<?xml version="1.0" standalone="no"?>
<!DOCTYPE svg PUBLIC "-//W3C//DTD SVG 1.1//EN" "http://www.w3.org/Graphics/SVG/1.1/DTD/svg11.dtd" >
<svg>
<metadata>
Created by FontForge 20110222 at Wed Jul  9 12:07:18 2014
 By deploy user
Copyright 2013 Monotype Imaging Inc. All rights reserved.
</metadata>
<defs>
<font id="TMSans-Italic" horiz-adv-x="388" >
  <font-face 
    font-family="TM Sans"
    font-weight="400"
    font-style="italic"
    font-stretch="normal"
    units-per-em="1000"
    panose-1="2 11 5 2 3 4 2 9 2 4"
    ascent="730"
    descent="-270"
    x-height="465"
    cap-height="682"
    bbox="-152 -257 1137 974"
    underline-thickness="50"
    underline-position="-50"
    slope="-9"
    unicode-range="U+0020-FB04"
  />
<missing-glyph horiz-adv-x="500" 
d="M12 0v665h475v-665h-475zM88 618l162 -243l161 243h-323zM60 575v-484q0 -1 11.5 16t30.5 46.5t38 58.5q30 47 81 121zM440 575l-162 -242l162 -243v485zM411 48l-161 242l-162 -242h323z" />
    <glyph glyph-name="IJ" unicode="IJ" horiz-adv-x="569" 
d="M44 0l109 682h79l-109 -682h-79zM290 47q50 0 73.5 27.5t32.5 89.5l81 518h77l-82 -522q-15 -95 -56.5 -139t-128.5 -44q-62 0 -102 25l23 66q36 -21 82 -21z" />
    <glyph glyph-name="ij" unicode="ij" horiz-adv-x="420" 
d="M113 465h75l-73 -465h-75zM127 579l14 86h88l-14 -86h-88zM399 465l-83 -524q-16 -99 -56 -141.5t-116 -42.5q-47 0 -86 16l22 63q28 -12 64 -12q41 0 63 26.5t33 89.5l83 525h76zM337 579l14 86h88l-14 -86h-88z" />
    <glyph glyph-name="napostrophe" unicode="&#x27;n" horiz-adv-x="535" 
d="M38 0l74 465h75l-9 -57h1q56 69 139 69q74 0 116.5 -43t42.5 -113q0 -33 -4 -52l-41 -269h-75l40 261q5 23 5 48q0 45 -25 73t-70 28q-62 0 -103 -45.5t-53 -121.5l-38 -243h-75zM39 472h-48q38 62 52 118h-46l16 104h101l-7 -47q-14 -100 -68 -175z" />
    <glyph glyph-name="f_f" unicode="ff" horiz-adv-x="533" 
d="M403 0h-75l63 401h-180l-63 -401h-75l63 401h-64l10 64h64l15 96q13 82 52 123t115 41q32 0 61 -10l-19 -60q-18 6 -40 6q-39 0 -61.5 -22.5t-31.5 -78.5l-15 -95h179l15 96q13 82 52 123t115 41q32 0 61 -10l-19 -60q-18 6 -40 6q-39 0 -61.5 -22.5t-31.5 -78.5l-15 -95
h102l-10 -64h-103z" />
    <glyph glyph-name="fi" unicode="fi" horiz-adv-x="488" 
d="M148 0h-75l63 401h-64l10 64h64l15 96q19 116 88 148q2 1 23 9q18 5 40 6q2 0 4 0.5t4 0.5h8q11 0 29 -2q1 0 3 -1q2 0 4 -0.5t4 -0.5l10 -3l11 -3l-19 -60q-1 0 -2 1h-2q-2 1 -5 1q-1 1 -2 1h-2l-2 1h-4l-12 2h-9h-8q-4 0 -7 -1h-3l-13 -3l-6 -2q-15 -8 -17 -9
q-10 -7 -18 -20l-2 -2q-1 -3 -2 -5l-3 -7q-6 -14 -8 -21l-2 -10q-2 -5 -4 -21l-15 -95h102l-10 -64h-103zM389 465h75l-73 -465h-75zM403 579l14 86h88l-14 -86h-88z" />
    <glyph glyph-name="fl" unicode="fl" horiz-adv-x="486" 
d="M328 725q32 0 61 -10l-19 -60q-18 6 -40 6q-39 0 -61.5 -22.5t-31.5 -78.5l-15 -95h102l-10 -64h-103l-63 -401h-75l63 401h-64l10 64h65l15 96q13 82 51.5 123t114.5 41zM431 721h75l-114 -721h-75z" />
    <glyph glyph-name="f_f_i" unicode="ffi" horiz-adv-x="741" 
d="M403 0h-75l63 401h-180l-63 -401h-75l63 401h-64l10 64h64l15 96q13 82 52 123t115 41q32 0 61 -10l-19 -60q-18 6 -40 6q-39 0 -61.5 -22.5t-31.5 -78.5l-15 -95h179l15 96q13 82 52 123t115 41q32 0 61 -10l-19 -60q-18 6 -40 6q-39 0 -61.5 -22.5t-31.5 -78.5l-15 -95
h102l-10 -64h-103zM644 465h75l-73 -465h-75zM658 579l14 86h88l-14 -86h-88z" />
    <glyph glyph-name="f_f_l" unicode="ffl" horiz-adv-x="741" 
d="M403 0h-75l63 401h-180l-63 -401h-75l63 401h-64l10 64h64l15 96q13 82 52 123t115 41q32 0 61 -10l-19 -60q-18 6 -40 6q-39 0 -61.5 -22.5t-31.5 -78.5l-15 -95h179l15 96q13 82 52 123t115 41q32 0 61 -10l-19 -60q-18 6 -40 6q-39 0 -61.5 -22.5t-31.5 -78.5l-15 -95
h102l-10 -64h-103zM686 721h75l-114 -721h-75z" />
    <glyph glyph-name=".notdef" horiz-adv-x="500" 
d="M12 0v665h475v-665h-475zM88 618l162 -243l161 243h-323zM60 575v-484q0 -1 11.5 16t30.5 46.5t38 58.5q30 47 81 121zM440 575l-162 -242l162 -243v485zM411 48l-161 242l-162 -242h323z" />
    <glyph glyph-name=".null" horiz-adv-x="0" 
 />
    <glyph glyph-name="nonmarkingreturn" horiz-adv-x="333" 
 />
    <glyph glyph-name="space" unicode=" " horiz-adv-x="240" 
 />
    <glyph glyph-name="exclam" unicode="!" horiz-adv-x="221" 
d="M38 0l13 88h85l-13 -88h-85zM146 682h85l-87 -493h-69z" />
    <glyph glyph-name="quotedbl" unicode="&#x22;" horiz-adv-x="345" 
d="M145 720h76l-45 -217h-57zM299 720h76l-45 -217h-59z" />
    <glyph glyph-name="numbersign" unicode="#" horiz-adv-x="590" 
d="M479 476h128l-16 -52h-127l-49 -170h129l-13 -54h-130l-57 -200h-58l58 200h-134l-59 -200h-56l57 200h-126l14 54h126l50 170h-129l14 52h130l57 206h58l-59 -206h134l59 206h57zM407 424h-135l-50 -170h136z" />
    <glyph glyph-name="dollar" unicode="$" horiz-adv-x="550" 
d="M505 563l-67 -31q-21 52 -73 63l-31 -199q151 -58 151 -190q0 -78 -54.5 -129.5t-153.5 -57.5l-13 -86h-61l13 89q-115 17 -156 130l71 31q16 -43 37.5 -66.5t57.5 -30.5l40 259q-71 28 -101 65.5t-30 92.5q0 67 47 109.5t132 49.5l11 72h61l-11 -73q94 -13 130 -98z
M410 206q0 38 -19 66.5t-68 50.5l-36 -239q59 5 91 38.5t32 83.5zM210 506q0 -31 14 -51.5t53 -37.5l27 180q-49 -5 -71.5 -30t-22.5 -61z" />
    <glyph glyph-name="percent" unicode="%" horiz-adv-x="724" 
d="M609 682h80l-517 -682h-80zM76 477q0 99 47 162t119 63q52 0 87.5 -36t35.5 -106q0 -99 -46.5 -164t-117.5 -65q-58 0 -91.5 38.5t-33.5 107.5zM296 552q0 86 -57 86q-40 0 -66.5 -41.5t-26.5 -115.5q0 -85 59 -85q39 0 64 43.5t27 112.5zM407 124q0 100 47 162.5
t121 62.5q50 0 85.5 -36.5t35.5 -105.5q0 -99 -46.5 -164t-118.5 -65q-55 0 -89.5 39t-34.5 107zM627 199q0 86 -57 86q-38 0 -65.5 -41.5t-27.5 -115.5q0 -85 59 -85q39 0 65 44t26 112z" />
    <glyph glyph-name="ampersand" unicode="&#x26;" horiz-adv-x="589" 
d="M498 326l2 12h73l-1 -9q-10 -59 -38.5 -121t-61.5 -100q20 -33 34.5 -43.5t37.5 -10.5q12 0 21 3l7 -61q-16 -9 -47 -9q-32 0 -55.5 15t-49.5 54q-90 -74 -202 -74q-86 0 -133 52t-47 124q0 84 48 136.5t140 97.5q-37 67 -37 132q0 73 46.5 125.5t129.5 52.5
q64 0 104 -34.5t40 -91.5q0 -76 -46.5 -124.5t-137.5 -91.5l111 -191q47 73 62 157zM386 113l-128 218q-144 -57 -144 -169q0 -48 29.5 -80t81.5 -32q93 0 161 63zM293 420q142 56 142 149q0 28 -18.5 46.5t-53.5 18.5q-47 0 -73.5 -34t-26.5 -73q0 -49 30 -107z" />
    <glyph glyph-name="quotesingle" unicode="'" horiz-adv-x="192" 
d="M145 720h76l-45 -217h-57z" />
    <glyph glyph-name="parenleft" unicode="(" horiz-adv-x="308" 
d="M242 -215h-76q-83 147 -83 370q0 144 61 305.5t172 282.5h78q-112 -121 -173.5 -282.5t-61.5 -305.5q0 -228 83 -370z" />
    <glyph glyph-name="parenright" unicode=")" horiz-adv-x="308" 
d="M29 -215h-77q108 123 171 283.5t63 335.5q0 92 -22 183t-61 156h76q83 -137 83 -339q0 -168 -58.5 -327t-174.5 -292z" />
    <glyph glyph-name="asterisk" unicode="*" horiz-adv-x="397" 
d="M68 559l22 69l135 -52l-7 144h72l-7 -144l135 52l22 -69l-139 -38l91 -112l-58 -43l-80 121l-80 -121l-58 43l91 112z" />
    <glyph glyph-name="plus" unicode="+" horiz-adv-x="672" 
d="M615 228h-222v-228h-72v228h-221v72h221v230h72v-230h222v-72z" />
    <glyph glyph-name="comma" unicode="," horiz-adv-x="220" 
d="M29 0l17 107h104l-14 -75q-17 -93 -76 -168h-50q34 43 58 136h-39z" />
    <glyph glyph-name="hyphen" unicode="-" horiz-adv-x="453" 
d="M399 232h-309l11 65h309z" />
    <glyph glyph-name="period" unicode="." horiz-adv-x="220" 
d="M29 0l17 107h104l-17 -107h-104z" />
    <glyph glyph-name="slash" unicode="/" horiz-adv-x="345" 
d="M345 720h74l-406 -834h-73z" />
    <glyph glyph-name="zero" unicode="0" horiz-adv-x="550" 
d="M57 240q0 129 32.5 233t100 168.5t160.5 64.5q92 0 146 -65t54 -184q0 -136 -31 -242t-97 -171.5t-159 -65.5q-92 0 -149 68t-57 194zM269 49q95 0 147.5 115.5t52.5 287.5q0 88 -31 135.5t-91 47.5q-67 0 -115.5 -58t-71 -147.5t-22.5 -197.5q0 -80 33 -131.5t98 -51.5z
" />
    <glyph glyph-name="one" unicode="1" horiz-adv-x="550" 
d="M205 0l97 609h-105l12 73h182l-109 -682h-77z" />
    <glyph glyph-name="two" unicode="2" horiz-adv-x="550" 
d="M49 0l11 74l251 245q62 61 97.5 113t35.5 110q0 45 -25.5 69t-70.5 24t-76 -25t-59 -85l-70 35q35 73 83.5 109.5t120.5 36.5q79 0 130 -41.5t51 -116.5q0 -70 -43.5 -136t-117.5 -138l-209 -201h306l-11 -73h-404z" />
    <glyph glyph-name="three" unicode="3" horiz-adv-x="550" 
d="M211 544l-65 39q35 64 81 93.5t116 29.5q80 0 127.5 -43.5t47.5 -115.5q0 -67 -40.5 -113.5t-109.5 -61.5v-4q55 -13 88 -52.5t33 -98.5q0 -102 -63.5 -170t-168.5 -68q-156 0 -198 141l74 29q32 -100 129 -100q65 0 104.5 47t39.5 115q0 121 -135 121h-42l11 72h40
q71 0 113 37t42 94q0 100 -103 100q-40 0 -67 -21t-54 -70z" />
    <glyph glyph-name="four" unicode="4" horiz-adv-x="550" 
d="M500 165h-84l-27 -165h-77l27 165h-304l10 66l377 451h75l-70 -447h84zM403 568l-276 -333h223z" />
    <glyph glyph-name="five" unicode="5" horiz-adv-x="550" 
d="M248 610l-55 -192q36 15 85 15q101 0 156.5 -58.5t55.5 -151.5q0 -96 -62.5 -170.5t-172.5 -74.5q-158 0 -207 160l77 30q20 -63 50 -91t83 -28q73 0 112 50t39 120q0 60 -35 101.5t-105 41.5q-71 0 -109 -43h-75l105 363h335l-12 -72h-265z" />
    <glyph glyph-name="six" unicode="6" horiz-adv-x="550" 
d="M38 189q0 77 36.5 138.5t131.5 174.5q11 13 17 20l135 160h89l-187 -223q24 9 64 9q90 0 144.5 -60.5t54.5 -146.5q0 -115 -73.5 -199t-189.5 -84q-101 0 -161.5 58.5t-60.5 152.5zM300 397q-78 0 -129.5 -60t-51.5 -142q0 -65 38 -105.5t106 -40.5q76 0 127.5 60
t51.5 141q0 70 -37 108.5t-105 38.5z" />
    <glyph glyph-name="seven" unicode="7" horiz-adv-x="550" 
d="M562 682l-11 -67q-64 -102 -189 -307.5t-189 -307.5h-90l380 609h-332l12 73h419z" />
    <glyph glyph-name="eight" unicode="8" horiz-adv-x="550" 
d="M331 634q-48 0 -84 -34.5t-36 -91.5q0 -45 30 -75t81 -30q54 0 85.5 36.5t31.5 88.5q0 50 -29 78t-79 28zM501 203q0 -99 -63.5 -161.5t-168.5 -62.5q-97 0 -156.5 55.5t-59.5 137.5q0 81 45 133t122 68q-89 41 -89 141q0 82 56 136.5t152 54.5q82 0 131 -47.5t49 -118.5
q0 -64 -36.5 -111t-95.5 -63q53 -21 83.5 -63t30.5 -99zM281 333q-61 0 -104 -41t-43 -113q0 -58 37.5 -93.5t104.5 -35.5q62 0 103 40t41 110q0 63 -38.5 98t-100.5 35z" />
    <glyph glyph-name="nine" unicode="9" horiz-adv-x="550" 
d="M550 493q0 -115 -95 -227l-237 -266h-89l199 223q-24 -9 -59 -9q-83 0 -143.5 57t-60.5 164q0 105 73.5 187t199.5 82q95 0 153.5 -59.5t58.5 -151.5zM290 285q80 0 129.5 60t49.5 147q0 62 -37.5 101.5t-102.5 39.5q-81 0 -132 -54.5t-51 -142.5q0 -71 40 -111t104 -40z
" />
    <glyph glyph-name="colon" unicode=":" horiz-adv-x="224" 
d="M34 0l17 105h103l-17 -105h-103zM88 341l16 105h103l-16 -105h-103z" />
    <glyph glyph-name="semicolon" unicode=";" horiz-adv-x="224" 
d="M35 0l16 105h104l-17 -80q-20 -92 -72 -156h-49q37 47 56 131h-38zM88 341l17 105h103l-17 -105h-103z" />
    <glyph glyph-name="less" unicode="&#x3c;" horiz-adv-x="672" 
d="M613 0l-514 235v61l514 234v-80l-413 -184v-2l413 -183v-81z" />
    <glyph glyph-name="equal" unicode="=" horiz-adv-x="672" 
d="M621 118h-519v72h519v-72zM621 340h-519v72h519v-72z" />
    <glyph glyph-name="greater" unicode="&#x3e;" horiz-adv-x="672" 
d="M617 234l-514 -234v81l413 182v3l-413 184v80l514 -235v-61z" />
    <glyph glyph-name="question" unicode="?" horiz-adv-x="419" 
d="M319 325q-64 -58 -76 -136h-73q8 55 26.5 93t56.5 76q4 4 30.5 29t35 35.5t25 32.5t23 43t6.5 44q0 41 -25.5 66.5t-71.5 25.5q-51 0 -85.5 -33.5t-43.5 -90.5h-80q15 89 70.5 141.5t143.5 52.5q77 0 126 -41t49 -112q0 -66 -35 -116t-102 -110zM135 0l13 88h85l-13 -88
h-85z" />
    <glyph glyph-name="at" unicode="@" horiz-adv-x="949" 
d="M901 356q0 -116 -55 -191t-135 -75q-49 0 -78.5 23t-34.5 64h-5q-21 -39 -62 -63t-79 -24q-71 0 -114 52t-43 137q0 99 57 172t144 73q79 0 122 -74h1l11 63h67l-40 -259q-4 -17 -4 -47q0 -28 16 -44.5t48 -16.5q49 0 81.5 58.5t32.5 146.5q0 140 -84.5 218.5
t-241.5 78.5q-152 0 -248 -105t-96 -255q0 -145 91.5 -234t246.5 -89q127 0 202 36l22 -49q-89 -43 -232 -43q-178 0 -289 103.5t-111 276.5q0 175 117.5 295t300.5 120q103 0 181.5 -30.5t122.5 -81.5t66 -110.5t22 -125.5zM603 341q0 60 -26.5 93.5t-74.5 33.5
q-65 0 -101 -57.5t-36 -133.5q0 -59 26 -95t73 -36q60 0 99.5 60.5t39.5 134.5z" />
    <glyph glyph-name="A" unicode="A" horiz-adv-x="611" 
d="M496 0l-39 196h-286l-102 -196h-88l376 682h69l151 -682h-81zM325 490l-117 -224h235l-45 224q-4 18 -9 52t-9 52h-2q-8 -17 -53 -104z" />
    <glyph glyph-name="B" unicode="B" horiz-adv-x="519" 
d="M44 0l109 682h129q102 0 153.5 -42.5t51.5 -110.5q0 -62 -34.5 -105.5t-97.5 -60.5v-4q65 -12 96.5 -50t31.5 -92q0 -95 -65 -156t-176 -61h-198zM133 72h115q73 0 113 40t40 105q0 52 -35.5 76t-91.5 24h-101zM184 389h67q65 0 109.5 36t44.5 97q0 47 -35 67.5t-85 20.5
h-66z" />
    <glyph glyph-name="C" unicode="C" horiz-adv-x="692" 
d="M446 704q178 0 256 -131l-68 -44q-59 105 -191 105q-98 0 -168.5 -47.5t-102.5 -121t-32 -162.5q0 -112 67.5 -183.5t171.5 -71.5q123 0 209 100l56 -53q-106 -117 -266 -117q-147 0 -233.5 92.5t-86.5 229.5q0 111 46.5 202.5t136 146.5t205.5 55z" />
    <glyph glyph-name="D" unicode="D" horiz-adv-x="677" 
d="M152 682h203q140 0 230 -72t90 -207q0 -176 -115.5 -289.5t-295.5 -113.5h-221zM134 72h137q142 0 231.5 92t89.5 232q0 99 -60.5 156.5t-180.5 57.5h-132z" />
    <glyph glyph-name="E" unicode="E" horiz-adv-x="502" 
d="M512 682l-12 -72h-281l-35 -221h271l-11 -72h-271l-39 -245h292l-12 -72h-370l109 682h359z" />
    <glyph glyph-name="F" unicode="F" horiz-adv-x="476" 
d="M512 682l-12 -72h-281l-37 -232h271l-11 -72h-271l-49 -306h-78l109 682h359z" />
    <glyph glyph-name="G" unicode="G" horiz-adv-x="745" 
d="M440 704q196 0 275 -146l-74 -40q-64 116 -200 116q-140 0 -220 -93.5t-80 -243.5q0 -106 65.5 -177.5t181.5 -71.5q103 0 172.5 67.5t85.5 174.5h-282l12 72h365l-2 -17q-22 -174 -117 -270.5t-242 -96.5q-144 0 -232.5 93t-88.5 232q0 109 45 199.5t133.5 146
t202.5 55.5z" />
    <glyph glyph-name="H" unicode="H" horiz-adv-x="662" 
d="M484 0l51 317h-362l-51 -317h-79l109 682h79l-47 -293h362l47 293h79l-109 -682h-79z" />
    <glyph glyph-name="I" unicode="I" horiz-adv-x="222" 
d="M44 0l109 682h79l-109 -682h-79z" />
    <glyph glyph-name="J" unicode="J" horiz-adv-x="337" 
d="M88 47q50 0 73.5 27.5t32.5 89.5l81 518h77l-82 -522q-15 -95 -56.5 -139t-128.5 -44q-62 0 -102 25l23 66q36 -21 82 -21z" />
    <glyph glyph-name="K" unicode="K" horiz-adv-x="567" 
d="M231 682l-48 -300l333 300h111l-374 -327l302 -355h-98l-282 333l-53 -333h-79l109 682h79z" />
    <glyph glyph-name="L" unicode="L" horiz-adv-x="483" 
d="M44 0l109 682h79l-97 -610h291l-12 -72h-370z" />
    <glyph glyph-name="M" unicode="M" horiz-adv-x="785" 
d="M751 682l-33 -682h-77l24 391q3 54 14 190l-3 1q-18 -35 -48.5 -102t-37.5 -81l-191 -399h-68l-63 409q-18 114 -25 173h-6q-27 -117 -40 -165l-107 -417h-79l186 682h96l72 -438q12 -76 17 -126h4q53 119 56 126l213 438h96z" />
    <glyph glyph-name="N" unicode="N" horiz-adv-x="644" 
d="M117 0h-74l109 682h75l161 -338q44 -94 103 -226h2q2 14 10.5 75t13.5 95l63 394h74l-109 -682h-74l-160 339q-82 171 -103 228h-3q-19 -139 -26 -178z" />
    <glyph glyph-name="O" unicode="O" horiz-adv-x="767" 
d="M395 50q137 0 212.5 97.5t75.5 228.5q0 107 -67.5 181.5t-175.5 74.5q-74 0 -132 -28t-93.5 -75t-53.5 -104t-18 -119q0 -108 69 -182t183 -74zM397 -22q-153 0 -244.5 94.5t-91.5 233.5q0 75 24 144.5t69 127t119.5 92t166.5 34.5q146 0 235.5 -95t89.5 -233
q0 -74 -23.5 -144t-68 -127.5t-116.5 -92t-160 -34.5z" />
    <glyph glyph-name="P" unicode="P" horiz-adv-x="538" 
d="M175 333h114q84 0 132.5 43t48.5 125q0 57 -37 83t-97 26h-117zM44 0l109 682h187q43 0 79 -9.5t67 -29.5t48.5 -57t17.5 -87q0 -112 -74.5 -174.5t-206.5 -62.5h-107l-42 -262h-78z" />
    <glyph glyph-name="Q" unicode="Q" horiz-adv-x="767" 
d="M397 -22q-153 0 -244.5 94.5t-91.5 233.5q0 75 24 144.5t69 127t119.5 92t166.5 34.5q146 0 235.5 -95t89.5 -233q0 -98 -40.5 -188t-115.5 -144l65 -99l-62 -42l-68 103q-66 -28 -147 -28zM395 50q56 0 107 19l-71 106l62 42l74 -110q57 46 86.5 117t29.5 152
q0 107 -67.5 181.5t-175.5 74.5q-74 0 -132 -28t-93.5 -75t-53.5 -104t-18 -119q0 -108 69 -182t183 -74z" />
    <glyph glyph-name="R" unicode="R" horiz-adv-x="543" 
d="M168 287l-46 -287h-78l109 682h174q104 0 156 -46t52 -125q0 -81 -50.5 -139.5t-135.5 -76.5l160 -295h-91l-151 287h-99zM179 359h112q76 0 119 42t43 110q0 99 -128 99h-106z" />
    <glyph glyph-name="S" unicode="S" horiz-adv-x="524" 
d="M506 579l-73 -31q-34 88 -120 88q-55 0 -87.5 -32t-32.5 -76q0 -39 25.5 -68.5t91.5 -54.5q90 -33 130.5 -84.5t40.5 -130.5q0 -92 -64.5 -151.5t-164.5 -59.5q-172 0 -218 158l78 26q37 -116 144 -116q63 0 104 39.5t41 103.5q0 53 -28 87.5t-102 61.5q-80 30 -119 73.5
t-39 108.5q0 84 57 133.5t145 49.5q138 0 191 -125z" />
    <glyph glyph-name="T" unicode="T" horiz-adv-x="495" 
d="M178 0l97 610h-172l12 72h424l-12 -72h-173l-97 -610h-79z" />
    <glyph glyph-name="U" unicode="U" horiz-adv-x="599" 
d="M269 -22q-96 0 -147 56.5t-51 161.5q0 38 6 76l65 410h79l-66 -422q-5 -32 -5 -64q0 -146 128 -146q84 0 132 52.5t65 161.5l66 418h79l-64 -408q-25 -152 -91.5 -224t-195.5 -72z" />
    <glyph glyph-name="V" unicode="V" horiz-adv-x="574" 
d="M650 682l-353 -682h-73l-137 682h80l83 -458q1 -7 21 -134h2q14 27 51.5 103t58.5 117l187 372h80z" />
    <glyph glyph-name="W" unicode="W" horiz-adv-x="800" 
d="M504 0l-32 432q-3 33 -3 147h-4q-42 -125 -49 -143l-175 -436h-80l-63 682h76l36 -441q7 -79 7 -134h4q29 92 50 143l173 432h78l32 -440q5 -70 5 -134h4q25 75 50 133l179 441h76l-278 -682h-86z" />
    <glyph glyph-name="X" unicode="X" horiz-adv-x="542" 
d="M184 682l87 -188q15 -32 35 -87q47 67 59 83l146 192h92l-260 -329l161 -353h-83l-101 230q-19 44 -28 68q-51 -72 -54 -76l-162 -222h-92l272 356l-156 326h84z" />
    <glyph glyph-name="Y" unicode="Y" horiz-adv-x="511" 
d="M183 0l45 279l-141 403h79l86 -250q19 -57 25 -81q16 29 46 76l164 255h86l-267 -402l-45 -280h-78z" />
    <glyph glyph-name="Z" unicode="Z" horiz-adv-x="577" 
d="M125 610l12 72h466l-11 -69l-469 -541h399l-12 -72h-498l11 68l471 542h-369z" />
    <glyph glyph-name="bracketleft" unicode="[" horiz-adv-x="340" 
d="M370 728l-12 -70h-102l-123 -788h101l-11 -70h-176l148 928h175z" />
    <glyph glyph-name="backslash" unicode="\" 
d="M96 723h71l172 -838h-71z" />
    <glyph glyph-name="bracketright" unicode="]" horiz-adv-x="340" 
d="M125 658l12 70h174l-146 -928h-175l12 70h102l123 788h-102z" />
    <glyph glyph-name="asciicircum" unicode="^" horiz-adv-x="672" 
d="M629 326h-86l-185 291h-4l-185 -291h-86l245 378h56z" />
    <glyph glyph-name="underscore" unicode="_" horiz-adv-x="550" 
d="M-50 -238v63h550v-63h-550z" />
    <glyph glyph-name="grave" unicode="`" horiz-adv-x="316" 
d="M121 695l61 46l103 -150l-45 -33z" />
    <glyph glyph-name="a" unicode="a" horiz-adv-x="575" 
d="M555 465l-73 -465h-76l9 53h-2q-57 -69 -161 -69q-90 0 -147.5 56.5t-57.5 156.5q0 118 72.5 199t185.5 81q50 0 93.5 -22t67.5 -61h2l11 71h76zM310 412q-81 0 -133 -61t-52 -156q0 -66 37.5 -105.5t100.5 -39.5q89 0 138.5 64t49.5 151q0 67 -38 107t-103 40z" />
    <glyph glyph-name="b" unicode="b" horiz-adv-x="571" 
d="M39 0l114 721h75l-51 -320h2q60 76 168 76q90 0 144.5 -57.5t54.5 -144.5q0 -122 -76 -206.5t-191 -84.5q-103 0 -153 79h-1l-11 -63h-75zM283 50q76 0 131 62t55 154q0 65 -36 105.5t-101 40.5q-82 0 -133.5 -66t-51.5 -151q0 -66 36.5 -105.5t99.5 -39.5z" />
    <glyph glyph-name="c" unicode="c" horiz-adv-x="491" 
d="M311 477q132 0 182 -111l-67 -36q-33 81 -116 81q-88 0 -136.5 -64t-48.5 -152q0 -63 36.5 -104t98.5 -41q77 0 128 68l55 -45q-71 -89 -187 -89q-92 0 -150.5 58t-58.5 160q0 111 75.5 193t188.5 82z" />
    <glyph glyph-name="d" unicode="d" horiz-adv-x="576" 
d="M596 721l-114 -721h-76l9 53h-2q-57 -69 -161 -69q-90 0 -147.5 56.5t-57.5 156.5q0 118 72.5 199t185.5 81q50 0 93.5 -22t67.5 -61h2l53 327h75zM310 412q-81 0 -133 -61t-52 -156q0 -66 37.5 -105.5t100.5 -39.5q89 0 138.5 64t49.5 151q0 67 -38 107t-103 40z" />
    <glyph glyph-name="e" unicode="e" horiz-adv-x="525" 
d="M305 477q78 0 135 -51t57 -146q0 -40 -8 -69h-365q-2 -16 -2 -24q0 -59 36 -98.5t95 -39.5q45 0 80.5 19t67.5 66l58 -43q-43 -59 -92.5 -83t-119.5 -24q-90 0 -144.5 58.5t-54.5 152.5q0 115 73 198.5t184 83.5zM301 413q-62 0 -106 -37.5t-60 -103.5h288v12
q0 58 -32 93.5t-90 35.5z" />
    <glyph glyph-name="f" unicode="f" horiz-adv-x="278" 
d="M328 725q32 0 61 -10l-19 -60q-18 6 -40 6q-39 0 -61.5 -22.5t-31.5 -78.5l-15 -95h102l-10 -64h-103l-63 -401h-75l63 401h-64l10 64h65l15 96q13 82 51.5 123t114.5 41z" />
    <glyph glyph-name="g" unicode="g" horiz-adv-x="582" 
d="M557 465l-74 -464q-23 -135 -88 -191t-185 -56q-51 0 -99 15t-76 38l31 58q61 -47 147 -47q89 0 136.5 44.5t61.5 145.5l8 57h-1q-63 -81 -164 -81q-37 0 -72 11q-64 21 -98.5 76.5t-34.5 126.5q0 113 73 196t185 83q59 0 101 -24.5t62 -58.5l13 71h74zM313 412
q-83 0 -134.5 -64.5t-51.5 -150.5q0 -67 36.5 -107t102.5 -40q78 0 130 66.5t52 149.5q0 63 -36 104.5t-99 41.5z" />
    <glyph glyph-name="h" unicode="h" horiz-adv-x="519" 
d="M39 0l114 721h75l-49 -313h2q55 69 138 69q75 0 117.5 -41t42.5 -115q0 -23 -7 -69l-39 -252h-75l39 247q6 36 6 62q0 101 -92 101q-66 0 -106.5 -47.5t-51.5 -119.5l-39 -243h-75z" />
    <glyph glyph-name="i" unicode="i" horiz-adv-x="210" 
d="M113 465h75l-73 -465h-75zM127 579l14 86h88l-14 -86h-88z" />
    <glyph glyph-name="j" unicode="j" horiz-adv-x="210" 
d="M189 465l-83 -524q-16 -99 -56 -141.5t-116 -42.5q-47 0 -86 16l22 63q28 -12 64 -12q41 0 63 26.5t33 89.5l83 525h76zM127 579l14 86h88l-14 -86h-88z" />
    <glyph glyph-name="k" unicode="k" horiz-adv-x="443" 
d="M462 465l-230 -215l202 -250h-93l-190 237l-37 -237h-75l114 721h75l-72 -451l205 195h101z" />
    <glyph glyph-name="l" unicode="l" horiz-adv-x="208" 
d="M153 721h75l-114 -721h-75z" />
    <glyph glyph-name="m" unicode="m" horiz-adv-x="803" 
d="M39 0l74 465h74l-11 -64h1q50 76 140 76q49 0 84.5 -26.5t47.5 -71.5q25 42 68 70t99 28q68 0 108 -44t40 -112q0 -28 -4 -52l-42 -269h-75l42 269q4 22 4 41q0 45 -22 72.5t-66 27.5q-56 0 -94.5 -39.5t-50.5 -114.5l-40 -256h-76l42 266q4 22 4 44q0 45 -21.5 72.5
t-65.5 27.5q-58 0 -96 -43t-49 -111l-41 -256h-74z" />
    <glyph glyph-name="n" unicode="n" horiz-adv-x="519" 
d="M39 0l74 465h75l-9 -57h2q54 69 138 69q74 0 117 -43t43 -113q0 -24 -4 -52l-42 -269h-75l41 261q4 28 4 48q0 45 -25 73t-70 28q-61 0 -102.5 -45.5t-53.5 -121.5l-38 -243h-75z" />
    <glyph glyph-name="o" unicode="o" horiz-adv-x="558" 
d="M47 202q0 69 28.5 130t91.5 103t149 42q96 0 155 -63t59 -157q0 -70 -30 -131t-93 -101.5t-147 -40.5q-95 0 -154 61t-59 157zM307 410q-77 0 -130 -57.5t-53 -147.5q0 -71 38.5 -112.5t107.5 -41.5q81 0 132 58.5t51 146.5q0 68 -37.5 111t-108.5 43z" />
    <glyph glyph-name="p" unicode="p" horiz-adv-x="575" 
d="M2 -235l111 700h75l-10 -64h1q62 76 168 76q91 0 145.5 -58.5t54.5 -149.5q0 -121 -73.5 -203t-185.5 -82t-163 81h-1l-47 -300h-75zM289 50q80 0 130.5 63t50.5 153q0 65 -36.5 105.5t-101.5 40.5q-82 0 -133.5 -67t-51.5 -155q0 -59 37 -99.5t105 -40.5z" />
    <glyph glyph-name="q" unicode="q" horiz-adv-x="575" 
d="M555 465l-111 -700h-74l46 294h-1q-62 -75 -169 -75q-90 0 -144.5 57t-54.5 144q0 122 76.5 207t191.5 85q103 0 152 -79h1l12 67h75zM307 411q-74 0 -128.5 -62t-54.5 -155q0 -65 36.5 -105t101.5 -40q82 0 133.5 66t51.5 151q0 63 -36 104t-104 41z" />
    <glyph glyph-name="r" unicode="r" horiz-adv-x="337" 
d="M350 472l-15 -67q-18 5 -41 5q-59 0 -94.5 -45t-47.5 -121l-38 -244h-75l74 465h74l-10 -56l2 -1q51 69 128 69q21 0 43 -5z" />
    <glyph glyph-name="s" unicode="s" horiz-adv-x="394" 
d="M367 396l-65 -33q-23 52 -78 52q-33 0 -53.5 -17.5t-20.5 -43.5q0 -23 15.5 -40t55.5 -35q68 -30 96 -65.5t28 -87.5q0 -61 -45.5 -101.5t-119.5 -40.5q-59 0 -100.5 28t-55.5 77l68 30q20 -72 91 -72q40 0 64 21t24 55q0 30 -17 51.5t-66 42.5q-112 48 -112 134
q0 54 41.5 90t112.5 36q101 0 137 -81z" />
    <glyph glyph-name="t" unicode="t" horiz-adv-x="299" 
d="M51 401l10 64h63l23 145h75l-23 -145h119l-10 -64h-118l-35 -214q-7 -51 -7 -68q0 -32 14 -46.5t49 -14.5q23 0 41 5l9 -61q-30 -8 -68 -8q-119 0 -119 123q0 35 8 80l33 204h-64z" />
    <glyph glyph-name="u" unicode="u" horiz-adv-x="509" 
d="M415 0h-76l9 53h-2q-54 -69 -137 -69q-59 0 -103 39.5t-44 119.5q0 25 4 51l43 271h75l-42 -266q-4 -30 -4 -46q0 -102 90 -102q62 0 98.5 49t47.5 119l39 246h76z" />
    <glyph glyph-name="v" unicode="v" horiz-adv-x="421" 
d="M456 465l-239 -465h-70l-93 465h75l53 -272q6 -28 15 -89h3q1 1 15 32.5t25 52.5l137 276h79z" />
    <glyph glyph-name="w" unicode="w" horiz-adv-x="638" 
d="M66 465h73l22 -281q6 -70 6 -112h2q14 56 34 102l115 291h78l28 -260q5 -51 5 -133h2q9 33 36 102l114 291h79l-192 -465h-92l-25 254q-6 60 -6 125h-2q-22 -84 -38 -124l-104 -255h-93z" />
    <glyph glyph-name="x" unicode="x" horiz-adv-x="447" 
d="M-6 0l201 239l-118 226h81l52 -105q19 -37 30 -73q29 44 51 72l83 106h90l-190 -226l128 -239h-83l-64 127q-15 30 -27 60q-17 -27 -50 -67l-94 -120h-90z" />
    <glyph glyph-name="y" unicode="y" horiz-adv-x="429" 
d="M458 465l-359 -700h-78l125 241l-104 459h77l57 -269q15 -71 18 -100h2l181 369h81z" />
    <glyph glyph-name="z" unicode="z" horiz-adv-x="470" 
d="M96 401l10 64h350l-9 -61l-317 -340h276l-10 -64h-373l9 61l317 340h-253z" />
    <glyph glyph-name="braceleft" unicode="{" horiz-adv-x="366" 
d="M371 741l-9 -60q-63 0 -76 -81l-33 -208q-8 -58 -29 -87.5t-65 -41.5v-2q56 -24 56 -89q0 -27 -5 -52l-32 -195q-3 -21 -3 -26q0 -28 12.5 -41t41.5 -13l-10 -60q-56 0 -86 29t-30 81q0 15 5 48l34 209q1 7 1 20q-2 28 -19.5 46.5t-48.5 18.5l8 51q38 0 62.5 24.5
t30.5 59.5l38 229q12 74 51.5 107t105.5 33z" />
    <glyph glyph-name="bar" unicode="|" horiz-adv-x="380" 
d="M253 -210h-72v1000h72v-1000z" />
    <glyph glyph-name="braceright" unicode="}" horiz-adv-x="366" 
d="M15 -215l9 60q63 0 76 81l33 208q8 58 29 87.5t65 41.5v2q-56 24 -56 89q0 27 5 52l32 195q3 21 3 26q0 28 -12.5 41t-41.5 13l10 60q56 0 86 -29t30 -81q0 -15 -5 -48l-34 -209q-1 -7 -1 -20q2 -28 19.5 -46.5t48.5 -18.5l-8 -51q-38 0 -62.5 -24.5t-30.5 -59.5
l-38 -229q-12 -74 -51.5 -107t-105.5 -33z" />
    <glyph glyph-name="asciitilde" unicode="~" horiz-adv-x="672" 
d="M571 330l53 -37q-33 -53 -71 -78t-91 -25q-62 0 -125 37q-66 39 -107 39q-34 0 -59 -17.5t-51 -55.5l-52 37q63 104 160 104q56 0 125 -38q68 -39 109 -39q64 0 109 73z" />
    <glyph glyph-name="uni00A0" unicode="&#xa0;" horiz-adv-x="240" 
 />
    <glyph glyph-name="exclamdown" unicode="&#xa1;" horiz-adv-x="221" 
d="M230 682l-13 -88h-85l13 88h85zM122 0h-85l87 493h69z" />
    <glyph glyph-name="cent" unicode="&#xa2;" horiz-adv-x="550" 
d="M332 682h61l-13 -81q61 -6 102 -40t58 -86l-71 -27q-23 74 -99 86l-58 -374q85 7 130 81l60 -39q-63 -102 -201 -110l-14 -92h-61l15 95q-82 12 -129.5 72.5t-47.5 143.5q0 109 67 194t188 96zM142 315q0 -58 29 -98.5t80 -52.5l58 369q-76 -11 -121.5 -75.5
t-45.5 -142.5z" />
    <glyph glyph-name="sterling" unicode="&#xa3;" horiz-adv-x="550" 
d="M463 548q-24 91 -107 91q-69 0 -105 -48.5t-36 -131.5q0 -41 3 -74h203l-10 -61h-185q4 -42 4 -60q0 -105 -78 -168q39 0 108.5 -25.5t96.5 -25.5q59 0 86 102l71 -24q-21 -72 -59 -108t-102 -36q-50 0 -126 30t-107 30q-41 0 -85 -25l-23 51q82 42 112 84t30 113
q0 29 -5 62h-93l10 61h74q-5 37 -5 73q0 106 57.5 176.5t169.5 70.5q140 0 177 -133z" />
    <glyph glyph-name="currency" unicode="&#xa4;" horiz-adv-x="621" 
d="M553 174l-42 -42l-67 66q-50 -39 -117 -39q-66 0 -116 39l-68 -66l-41 42q35 32 68 65q-39 56 -39 115q0 67 39 115l-34 33l-34 33l41 42l68 -66q52 38 116 38q68 0 117 -38l67 66l42 -42l-68 -66q38 -51 38 -115q0 -62 -38 -115q22 -23 68 -65zM467 355q0 60 -42.5 99
t-96.5 39q-59 0 -99.5 -40.5t-40.5 -97.5t41 -98.5t98 -41.5q58 0 99 41.5t41 98.5z" />
    <glyph glyph-name="yen" unicode="&#xa5;" horiz-adv-x="550" 
d="M88 339h151l-126 343h80l88 -252q9 -25 26 -84q41 70 50 83l167 253h86l-234 -343h154l-10 -58h-182l-15 -94h182l-10 -58h-181l-20 -129h-79l20 129h-182l10 58h181l15 94h-181z" />
    <glyph glyph-name="brokenbar" unicode="&#xa6;" horiz-adv-x="380" 
d="M253 -110h-72v300h72v-300zM253 390h-72v300h72v-300z" />
    <glyph glyph-name="section" unicode="&#xa7;" horiz-adv-x="431" 
d="M418 331q0 -48 -32.5 -83.5t-89.5 -51.5q45 -31 45 -98q0 -63 -43.5 -104t-114.5 -41q-116 0 -148 114l68 24q11 -39 30.5 -56.5t52.5 -17.5q37 0 59.5 20.5t22.5 53.5q0 32 -19.5 52.5t-74.5 48.5q-100 53 -100 133q0 52 31.5 86.5t93.5 43.5q-25 18 -41.5 47.5
t-16.5 61.5q0 66 42.5 103t107.5 37q109 0 138 -98l-68 -24q-17 62 -74 62q-33 0 -53.5 -20.5t-20.5 -50.5q0 -33 20.5 -55t82.5 -53q102 -50 102 -134zM242 231q45 5 75.5 33.5t30.5 59.5q0 58 -96 99q-108 -15 -108 -89q0 -29 19.5 -49.5t78.5 -53.5z" />
    <glyph glyph-name="dieresis" unicode="&#xa8;" horiz-adv-x="316" 
d="M95 603l13 84h83l-13 -84h-83zM257 603l13 84h84l-13 -84h-84z" />
    <glyph glyph-name="copyright" unicode="&#xa9;" horiz-adv-x="826" 
d="M429 143q-87 0 -140 58t-53 147q0 86 55 144t138 58q118 0 164 -103l-61 -30q-27 69 -103 69q-54 0 -88.5 -36.5t-34.5 -103.5q0 -61 34.5 -100.5t91.5 -39.5q73 0 100 70l61 -30q-46 -103 -164 -103zM64 341q0 150 106.5 256.5t256.5 106.5q151 0 257 -106.5t106 -256.5
t-106 -256.5t-257 -106.5q-150 0 -256.5 106.5t-106.5 256.5zM113 341q0 -130 92 -222t222 -92t222 92t92 222t-92 222t-222 92t-222 -92t-92 -222z" />
    <glyph glyph-name="ordfeminine" unicode="&#xaa;" horiz-adv-x="374" 
d="M382 388l3 -52q-22 -11 -49 -11q-50 0 -50 55q-39 -58 -109 -58q-107 0 -107 99q0 57 46.5 96t122.5 39q40 0 68 -5l3 17q2 16 2 23q0 56 -63 56q-54 0 -88 -52l-50 28q52 81 141 81q60 0 94.5 -28.5t34.5 -77.5q0 -14 -3 -30l-23 -145q-2 -16 -2 -22q0 -16 15 -16
q5 0 14 3zM295 475l4 21q-30 4 -60 4q-48 0 -74 -20.5t-26 -53.5q0 -46 52 -46q42 0 69.5 25.5t34.5 69.5z" />
    <glyph glyph-name="guillemotleft" unicode="&#xab;" horiz-adv-x="447" 
d="M65 250l145 187l43 -29l-113 -164l63 -177l-51 -19zM238 250l144 187l43 -29l-113 -164l64 -177l-52 -19z" />
    <glyph glyph-name="logicalnot" unicode="&#xac;" horiz-adv-x="672" 
d="M615 112h-72v192h-447v72h519v-264z" />
    <glyph glyph-name="uni00AD" unicode="&#xad;" horiz-adv-x="437" 
d="M384 223h-298l11 64h298z" />
    <glyph glyph-name="registered" unicode="&#xae;" horiz-adv-x="483" 
d="M85 498q0 84 61 145t145 61t144.5 -61t60.5 -145q0 -86 -60 -145.5t-145 -59.5t-145.5 59.5t-60.5 145.5zM124 498q0 -69 49 -117.5t118 -48.5t117.5 48.5t48.5 117.5t-48.5 117.5t-117.5 48.5t-118 -48.5t-49 -117.5zM332 478l66 -90h-54l-61 85h-26v-85h-47v226h88
q44 0 65.5 -20.5t21.5 -49.5q0 -26 -14.5 -43.5t-38.5 -22.5zM335 542q0 35 -43 35h-35v-69h34q44 0 44 34z" />
    <glyph glyph-name="macron" unicode="&#xaf;" horiz-adv-x="328" 
d="M361 608h-288l9 56h288z" />
    <glyph glyph-name="degree" unicode="&#xb0;" horiz-adv-x="424" 
d="M387 571q0 -53 -38 -91.5t-90 -38.5q-54 0 -92.5 38.5t-38.5 91.5t37.5 90.5t91.5 37.5t92 -37.5t38 -90.5zM337 571q0 35 -22.5 58t-55.5 23q-34 0 -58 -23.5t-24 -57.5q0 -35 23.5 -59t56.5 -24t56.5 24t23.5 59z" />
    <glyph glyph-name="plusminus" unicode="&#xb1;" horiz-adv-x="672" 
d="M617 0h-515v72h515v-72zM617 329h-222v-188h-72v188h-221v72h221v190h72v-190h222v-72z" />
    <glyph glyph-name="twosuperior" unicode="&#xb2;" 
d="M95 425l7 45l147 140q39 38 56 55.5t31.5 41t14.5 43.5q0 27 -17 43t-49 16q-55 0 -83 -63l-60 31q51 95 148 95q61 0 97 -31.5t36 -83.5q0 -46 -27.5 -84.5t-95.5 -99.5l-92 -84h187l-11 -64h-289z" />
    <glyph glyph-name="threesuperior" unicode="&#xb3;" 
d="M208 762l-54 35q24 40 56.5 57.5t80.5 17.5q57 0 89.5 -27.5t32.5 -72.5q0 -84 -90 -112v-1q35 -10 55 -36.5t20 -63.5q0 -68 -44.5 -107.5t-115.5 -39.5q-60 0 -93.5 26t-50.5 80l64 24q13 -39 31.5 -54.5t50.5 -15.5q39 0 63.5 24t24.5 61q0 72 -93 72h-22l9 59h20
q100 0 100 73q0 23 -15 37t-43 14q-48 0 -76 -50z" />
    <glyph glyph-name="acute" unicode="&#xb4;" horiz-adv-x="316" 
d="M134 599l151 150l48 -54l-161 -137z" />
    <glyph glyph-name="mu" unicode="&#xb5;" horiz-adv-x="531" 
d="M360 63h-2q-58 -78 -137 -78q-35 0 -62 18t-39 50l-2 -1q-1 -24 -16 -126l-25 -161h-75l110 700h75l-41 -260q-5 -30 -5 -50q0 -52 25 -78t68 -26q57 0 94.5 48.5t49.5 124.5l38 241h76l-50 -314q-6 -36 -6 -58q0 -17 8.5 -26.5t20.5 -9.5q8 0 16 2l9 -61q-19 -8 -50 -8
q-33 0 -54.5 19.5t-25.5 53.5z" />
    <glyph glyph-name="paragraph" unicode="&#xb6;" horiz-adv-x="521" 
d="M528 619h-61l-100 -619h-58l100 619h-84l-105 -619h-59l65 368q-67 1 -106.5 41t-39.5 110q0 73 49.5 118t149.5 45h259z" />
    <glyph glyph-name="periodcentered" unicode="&#xb7;" horiz-adv-x="230" 
d="M79 289l16 107h103l-17 -107h-102z" />
    <glyph glyph-name="cedilla" unicode="&#xb8;" horiz-adv-x="316" 
d="M106 0h49l-22 -39q35 -7 54.5 -27.5t19.5 -50.5q0 -50 -34.5 -81t-93.5 -31q-48 0 -88 15l25 48q20 -11 63 -11q30 0 48 15t18 39q0 22 -20.5 36t-60.5 14z" />
    <glyph glyph-name="onesuperior" unicode="&#xb9;" 
d="M197 425l62 371h-74l9 62h144l-71 -433h-70z" />
    <glyph glyph-name="ordmasculine" unicode="&#xba;" horiz-adv-x="426" 
d="M70 504q0 82 56 141t146 59q88 0 135 -50.5t47 -124.5q0 -90 -57 -147.5t-145 -57.5q-74 0 -128 48t-54 132zM271 637q-56 0 -91 -38.5t-35 -95.5q0 -52 31.5 -82t78.5 -30q59 0 91.5 42t32.5 91q0 51 -28.5 82t-79.5 31z" />
    <glyph glyph-name="guillemotright" unicode="&#xbb;" horiz-adv-x="448" 
d="M220 235l-145 -187l-43 29l114 164l-64 177l51 19zM392 235l-144 -187l-43 29l113 164l-64 177l52 19z" />
    <glyph glyph-name="onequarter" unicode="&#xbc;" horiz-adv-x="887" 
d="M173 250l62 370h-74l9 62h144l-71 -432h-70zM675 682h78l-480 -682h-77zM847 85h-57l-14 -85h-69l13 85h-201l8 49l258 299h63l-48 -287h57zM732 146l29 184l-158 -184h129z" />
    <glyph glyph-name="onehalf" unicode="&#xbd;" horiz-adv-x="937" 
d="M173 250l62 370h-74l9 62h144l-71 -432h-70zM675 682h78l-480 -682h-77zM580 0l7 45l147 140q39 38 56 55.5t31.5 41t14.5 43.5q0 27 -17 43t-49 16q-54 0 -83 -63l-60 31q51 95 148 95q61 0 97 -31.5t36 -83.5q0 -46 -27.5 -84.5t-95.5 -99.5l-92 -84h187l-11 -64h-289z
" />
    <glyph glyph-name="threequarters" unicode="&#xbe;" horiz-adv-x="917" 
d="M705 682h78l-480 -682h-77zM877 85h-57l-14 -85h-69l13 85h-201l8 49l258 299h63l-48 -287h57zM762 146l29 184l-158 -184h129zM185 585l-54 35q24 40 56.5 57.5t80.5 17.5q56 0 89 -27.5t33 -72.5q0 -84 -90 -112v-1q35 -10 55 -36.5t20 -63.5q0 -68 -44.5 -107.5
t-115.5 -39.5q-60 0 -93.5 26t-50.5 80l64 24q13 -39 31.5 -54.5t50.5 -15.5q39 0 63.5 24t24.5 61q0 72 -93 72h-22l9 59h20q100 0 100 73q0 23 -15 37t-43 14q-48 0 -76 -50z" />
    <glyph glyph-name="questiondown" unicode="&#xbf;" horiz-adv-x="419" 
d="M159 357q64 58 76 136h73q-10 -58 -27 -94t-56 -75q-4 -4 -30.5 -29t-35 -35.5t-25 -32.5t-23 -43t-6.5 -44q0 -41 25.5 -66.5t71.5 -25.5q51 0 85.5 33.5t43.5 90.5h80q-15 -89 -70.5 -141.5t-143.5 -52.5q-78 0 -126.5 41t-48.5 112q0 65 35.5 116t101.5 110zM343 682
l-13 -88h-85l13 88h85z" />
    <glyph glyph-name="Agrave" unicode="&#xc0;" horiz-adv-x="611" 
d="M496 0l-39 196h-286l-102 -196h-88l376 682h69l151 -682h-81zM325 490l-117 -224h235l-45 224q-4 18 -9 52t-9 52h-2q-8 -17 -53 -104zM297 817l28 62l160 -92l-23 -50z" />
    <glyph glyph-name="Aacute" unicode="&#xc1;" horiz-adv-x="611" 
d="M496 0l-39 196h-286l-102 -196h-88l376 682h69l151 -682h-81zM325 490l-117 -224h235l-45 224q-4 18 -9 52t-9 52h-2q-8 -17 -53 -104zM511 883l26 -60l-201 -86l-20 49z" />
    <glyph glyph-name="Acircumflex" unicode="&#xc2;" horiz-adv-x="611" 
d="M496 0l-39 196h-286l-102 -196h-88l376 682h69l151 -682h-81zM325 490l-117 -224h235l-45 224q-4 18 -9 52t-9 52h-2q-8 -17 -53 -104zM419 879l140 -100l-28 -44l-120 69l-144 -69l-21 46z" />
    <glyph glyph-name="Atilde" unicode="&#xc3;" horiz-adv-x="611" 
d="M496 0l-39 196h-286l-102 -196h-88l376 682h69l151 -682h-81zM325 490l-117 -224h235l-45 224q-4 18 -9 52t-9 52h-2q-8 -17 -53 -104zM304 771h-59q9 57 37.5 85t68.5 28q38 0 74 -33q34 -31 52 -31q37 0 46 57h59q-17 -113 -109 -113q-40 0 -74 33q-31 31 -51 31
q-33 0 -44 -57z" />
    <glyph glyph-name="Adieresis" unicode="&#xc4;" horiz-adv-x="611" 
d="M496 0l-39 196h-286l-102 -196h-88l376 682h69l151 -682h-81zM325 490l-117 -224h235l-45 224q-4 18 -9 52t-9 52h-2q-8 -17 -53 -104zM275 780l13 81h79l-13 -81h-79zM456 780l13 81h79l-13 -81h-79z" />
    <glyph glyph-name="Aring" unicode="&#xc5;" horiz-adv-x="611" 
d="M496 0l-39 196h-286l-102 -196h-88l376 682h69l151 -682h-81zM325 490l-117 -224h235l-45 224q-4 18 -9 52t-9 52h-2q-8 -17 -53 -104zM344 819q0 -28 19.5 -47.5t46.5 -19.5q29 0 48 19.5t19 47.5q0 29 -19 47.5t-48 18.5q-28 0 -47 -18.5t-19 -47.5zM298 819
q0 46 33 79t79 33q47 0 80 -33t33 -79t-33 -79.5t-80 -33.5q-46 0 -79 33.5t-33 79.5z" />
    <glyph glyph-name="AE" unicode="&#xc6;" horiz-adv-x="886" 
d="M494 610l-264 -355h228l56 355h-20zM418 0l28 185h-265l-139 -185h-89l512 682h420l-12 -72h-284l-35 -221h275l-11 -72h-275l-38 -245h294l-11 -72h-370z" />
    <glyph glyph-name="Ccedilla" unicode="&#xc7;" horiz-adv-x="692" 
d="M446 704q178 0 256 -131l-68 -44q-59 105 -191 105q-98 0 -168.5 -47.5t-102.5 -121t-32 -162.5q0 -112 67.5 -183.5t171.5 -71.5q123 0 209 100l56 -53q-105 -114 -258 -117l-9 -17q35 -7 54.5 -27.5t19.5 -50.5q0 -50 -34.5 -81t-93.5 -31q-48 0 -88 15l25 48
q20 -11 63 -11q30 0 48 15t18 39q0 22 -20.5 36t-60.5 14l30 53q-130 13 -205 103t-75 217q0 111 46.5 202.5t136 146.5t205.5 55z" />
    <glyph glyph-name="Egrave" unicode="&#xc8;" horiz-adv-x="502" 
d="M512 682l-12 -72h-281l-35 -221h271l-11 -72h-271l-39 -245h292l-12 -72h-370l109 682h359zM237 817l28 62l160 -92l-23 -50z" />
    <glyph glyph-name="Eacute" unicode="&#xc9;" horiz-adv-x="502" 
d="M512 682l-12 -72h-281l-35 -221h271l-11 -72h-271l-39 -245h292l-12 -72h-370l109 682h359zM452 883l26 -60l-201 -86l-20 49z" />
    <glyph glyph-name="Ecircumflex" unicode="&#xca;" horiz-adv-x="502" 
d="M512 682l-12 -72h-281l-35 -221h271l-11 -72h-271l-39 -245h292l-12 -72h-370l109 682h359zM360 879l140 -100l-28 -44l-120 69l-144 -69l-21 46z" />
    <glyph glyph-name="Edieresis" unicode="&#xcb;" horiz-adv-x="502" 
d="M512 682l-12 -72h-281l-35 -221h271l-11 -72h-271l-39 -245h292l-12 -72h-370l109 682h359zM216 780l13 81h79l-13 -81h-79zM397 780l13 81h79l-13 -81h-79z" />
    <glyph glyph-name="Igrave" unicode="&#xcc;" horiz-adv-x="222" 
d="M44 0l109 682h79l-109 -682h-79zM92 817l28 62l160 -92l-23 -50z" />
    <glyph glyph-name="Iacute" unicode="&#xcd;" horiz-adv-x="222" 
d="M44 0l109 682h79l-109 -682h-79zM306 883l26 -60l-201 -86l-20 49z" />
    <glyph glyph-name="Icircumflex" unicode="&#xce;" horiz-adv-x="222" 
d="M44 0l109 682h79l-109 -682h-79zM215 879l140 -100l-28 -44l-120 69l-144 -69l-21 46z" />
    <glyph glyph-name="Idieresis" unicode="&#xcf;" horiz-adv-x="222" 
d="M44 0l109 682h79l-109 -682h-79zM76 780l13 81h79l-13 -81h-79zM257 780l13 81h79l-13 -81h-79z" />
    <glyph glyph-name="Eth" unicode="&#xd0;" horiz-adv-x="705" 
d="M180 682h203q140 0 230 -72t90 -207q0 -176 -115.5 -289.5t-295.5 -113.5h-221l51 321h-84l10 63h84zM162 72h137q142 0 231.5 92t89.5 232q0 99 -60.5 156.5t-180.5 57.5h-132l-36 -226h191l-10 -63h-191z" />
    <glyph glyph-name="Ntilde" unicode="&#xd1;" horiz-adv-x="644" 
d="M117 0h-74l109 682h75l161 -338q44 -94 103 -226h2q2 14 10.5 75t13.5 95l63 394h74l-109 -682h-74l-160 339q-82 171 -103 228h-3q-19 -139 -26 -178zM301 771h-59q9 57 37.5 85t68.5 28q38 0 74 -33q34 -31 52 -31q37 0 46 57h59q-17 -113 -109 -113q-40 0 -74 33
q-31 31 -51 31q-33 0 -44 -57z" />
    <glyph glyph-name="Ograve" unicode="&#xd2;" horiz-adv-x="767" 
d="M395 50q137 0 212.5 97.5t75.5 228.5q0 107 -67.5 181.5t-175.5 74.5q-74 0 -132 -28t-93.5 -75t-53.5 -104t-18 -119q0 -108 69 -182t183 -74zM397 -22q-153 0 -244.5 94.5t-91.5 233.5q0 75 24 144.5t69 127t119.5 92t166.5 34.5q146 0 235.5 -95t89.5 -233
q0 -74 -23.5 -144t-68 -127.5t-116.5 -92t-160 -34.5zM363 817l28 62l160 -92l-23 -50z" />
    <glyph glyph-name="Oacute" unicode="&#xd3;" horiz-adv-x="767" 
d="M395 50q137 0 212.5 97.5t75.5 228.5q0 107 -67.5 181.5t-175.5 74.5q-74 0 -132 -28t-93.5 -75t-53.5 -104t-18 -119q0 -108 69 -182t183 -74zM397 -22q-153 0 -244.5 94.5t-91.5 233.5q0 75 24 144.5t69 127t119.5 92t166.5 34.5q146 0 235.5 -95t89.5 -233
q0 -74 -23.5 -144t-68 -127.5t-116.5 -92t-160 -34.5zM577 883l26 -60l-201 -86l-20 49z" />
    <glyph glyph-name="Ocircumflex" unicode="&#xd4;" horiz-adv-x="767" 
d="M395 50q137 0 212.5 97.5t75.5 228.5q0 107 -67.5 181.5t-175.5 74.5q-74 0 -132 -28t-93.5 -75t-53.5 -104t-18 -119q0 -108 69 -182t183 -74zM397 -22q-153 0 -244.5 94.5t-91.5 233.5q0 75 24 144.5t69 127t119.5 92t166.5 34.5q146 0 235.5 -95t89.5 -233
q0 -74 -23.5 -144t-68 -127.5t-116.5 -92t-160 -34.5zM475 879l140 -100l-28 -44l-120 69l-144 -69l-21 46z" />
    <glyph glyph-name="Otilde" unicode="&#xd5;" horiz-adv-x="767" 
d="M395 50q137 0 212.5 97.5t75.5 228.5q0 107 -67.5 181.5t-175.5 74.5q-74 0 -132 -28t-93.5 -75t-53.5 -104t-18 -119q0 -108 69 -182t183 -74zM397 -22q-153 0 -244.5 94.5t-91.5 233.5q0 75 24 144.5t69 127t119.5 92t166.5 34.5q146 0 235.5 -95t89.5 -233
q0 -74 -23.5 -144t-68 -127.5t-116.5 -92t-160 -34.5zM370 771h-59q9 57 37.5 85t68.5 28q38 0 74 -33q34 -31 52 -31q37 0 46 57h59q-17 -113 -109 -113q-40 0 -74 33q-31 31 -51 31q-33 0 -44 -57z" />
    <glyph glyph-name="Odieresis" unicode="&#xd6;" horiz-adv-x="767" 
d="M395 50q137 0 212.5 97.5t75.5 228.5q0 107 -67.5 181.5t-175.5 74.5q-74 0 -132 -28t-93.5 -75t-53.5 -104t-18 -119q0 -108 69 -182t183 -74zM397 -22q-153 0 -244.5 94.5t-91.5 233.5q0 75 24 144.5t69 127t119.5 92t166.5 34.5q146 0 235.5 -95t89.5 -233
q0 -74 -23.5 -144t-68 -127.5t-116.5 -92t-160 -34.5zM341 780l13 81h79l-13 -81h-79zM522 780l13 81h79l-13 -81h-79z" />
    <glyph glyph-name="multiply" unicode="&#xd7;" horiz-adv-x="672" 
d="M614 53l-51 -51l-197 198l-199 -197l-51 51l199 197l-198 198l51 51l198 -198l197 197l51 -51l-197 -197z" />
    <glyph glyph-name="Oslash" unicode="&#xd8;" horiz-adv-x="767" 
d="M40 -4l93 98q-72 87 -72 212q0 75 24 144.5t69 127t119.5 92t166.5 34.5q119 0 208 -71l82 86l44 -42l-83 -87q74 -91 74 -214q0 -74 -23.5 -144t-68 -127.5t-116.5 -92t-160 -34.5q-134 0 -221 73l-91 -96zM395 50q137 0 212.5 97.5t75.5 228.5q0 89 -47 156l-406 -425
q68 -57 165 -57zM143 306q0 -89 46 -154l406 425q-64 55 -155 55q-74 0 -132 -28t-93.5 -75t-53.5 -104t-18 -119z" />
    <glyph glyph-name="Ugrave" unicode="&#xd9;" horiz-adv-x="599" 
d="M269 -22q-96 0 -147 56.5t-51 161.5q0 38 6 76l65 410h79l-66 -422q-5 -32 -5 -64q0 -146 128 -146q84 0 132 52.5t65 161.5l66 418h79l-64 -408q-25 -152 -91.5 -224t-195.5 -72zM285 817l28 62l160 -92l-23 -50z" />
    <glyph glyph-name="Uacute" unicode="&#xda;" horiz-adv-x="599" 
d="M269 -22q-96 0 -147 56.5t-51 161.5q0 38 6 76l65 410h79l-66 -422q-5 -32 -5 -64q0 -146 128 -146q84 0 132 52.5t65 161.5l66 418h79l-64 -408q-25 -152 -91.5 -224t-195.5 -72zM500 883l26 -60l-201 -86l-20 49z" />
    <glyph glyph-name="Ucircumflex" unicode="&#xdb;" horiz-adv-x="599" 
d="M269 -22q-96 0 -147 56.5t-51 161.5q0 38 6 76l65 410h79l-66 -422q-5 -32 -5 -64q0 -146 128 -146q84 0 132 52.5t65 161.5l66 418h79l-64 -408q-25 -152 -91.5 -224t-195.5 -72zM408 879l140 -100l-28 -44l-120 69l-144 -69l-21 46z" />
    <glyph glyph-name="Udieresis" unicode="&#xdc;" horiz-adv-x="599" 
d="M269 -22q-96 0 -147 56.5t-51 161.5q0 38 6 76l65 410h79l-66 -422q-5 -32 -5 -64q0 -146 128 -146q84 0 132 52.5t65 161.5l66 418h79l-64 -408q-25 -152 -91.5 -224t-195.5 -72zM264 780l13 81h79l-13 -81h-79zM445 780l13 81h79l-13 -81h-79z" />
    <glyph glyph-name="Yacute" unicode="&#xdd;" horiz-adv-x="511" 
d="M183 0l45 279l-141 403h79l86 -250q19 -57 25 -81q16 29 46 76l164 255h86l-267 -402l-45 -280h-78zM454 883l26 -60l-201 -86l-20 49z" />
    <glyph glyph-name="Thorn" unicode="&#xde;" horiz-adv-x="527" 
d="M151 222h101q83 0 130.5 41t47.5 119q0 49 -35.5 77.5t-105.5 28.5h-97zM202 554h93q100 0 158.5 -44t58.5 -123q0 -112 -71.5 -171.5t-199.5 -59.5h-101l-24 -156h-79l107 682h79z" />
    <glyph glyph-name="germandbls" unicode="&#xdf;" horiz-adv-x="539" 
d="M114 0h-75l83 525q32 200 206 200q75 0 118 -39.5t43 -109.5q0 -83 -78 -132q-50 -31 -65.5 -48.5t-15.5 -39.5q0 -44 59 -72q63 -30 86.5 -67t23.5 -91q0 -60 -44 -101t-114 -41q-61 0 -95.5 25t-51.5 75l71 29q12 -35 29 -50.5t48 -15.5q37 0 60 22.5t23 57.5
q0 31 -14.5 53t-57.5 41q-97 43 -97 125q0 47 23 77t84 68q29 18 41 36.5t12 47.5q0 86 -93 86q-104 0 -126 -137z" />
    <glyph glyph-name="agrave" unicode="&#xe0;" horiz-adv-x="575" 
d="M555 465l-73 -465h-76l9 53h-2q-57 -69 -161 -69q-90 0 -147.5 56.5t-57.5 156.5q0 118 72.5 199t185.5 81q50 0 93.5 -22t67.5 -61h2l11 71h76zM310 412q-81 0 -133 -61t-52 -156q0 -66 37.5 -105.5t100.5 -39.5q89 0 138.5 64t49.5 151q0 67 -38 107t-103 40zM236 674
l61 46l103 -150l-45 -33z" />
    <glyph glyph-name="aacute" unicode="&#xe1;" horiz-adv-x="575" 
d="M555 465l-73 -465h-76l9 53h-2q-57 -69 -161 -69q-90 0 -147.5 56.5t-57.5 156.5q0 118 72.5 199t185.5 81q50 0 93.5 -22t67.5 -61h2l11 71h76zM310 412q-81 0 -133 -61t-52 -156q0 -66 37.5 -105.5t100.5 -39.5q89 0 138.5 64t49.5 151q0 67 -38 107t-103 40zM249 578
l151 150l48 -54l-161 -137z" />
    <glyph glyph-name="acircumflex" unicode="&#xe2;" horiz-adv-x="575" 
d="M555 465l-73 -465h-76l9 53h-2q-57 -69 -161 -69q-90 0 -147.5 56.5t-57.5 156.5q0 118 72.5 199t185.5 81q50 0 93.5 -22t67.5 -61h2l11 71h76zM310 412q-81 0 -133 -61t-52 -156q0 -66 37.5 -105.5t100.5 -39.5q89 0 138.5 64t49.5 151q0 67 -38 107t-103 40zM347 697
l123 -115l-39 -44l-92 75l-119 -75l-32 49z" />
    <glyph glyph-name="atilde" unicode="&#xe3;" horiz-adv-x="575" 
d="M555 465l-73 -465h-76l9 53h-2q-57 -69 -161 -69q-90 0 -147.5 56.5t-57.5 156.5q0 118 72.5 199t185.5 81q50 0 93.5 -22t67.5 -61h2l11 71h76zM310 412q-81 0 -133 -61t-52 -156q0 -66 37.5 -105.5t100.5 -39.5q89 0 138.5 64t49.5 151q0 67 -38 107t-103 40zM229 574
h-59q9 57 37.5 85t68.5 28q38 0 74 -33q34 -31 52 -31q37 0 46 57h59q-17 -113 -109 -113q-40 0 -74 33q-31 31 -51 31q-33 0 -44 -57z" />
    <glyph glyph-name="adieresis" unicode="&#xe4;" horiz-adv-x="575" 
d="M555 465l-73 -465h-76l9 53h-2q-57 -69 -161 -69q-90 0 -147.5 56.5t-57.5 156.5q0 118 72.5 199t185.5 81q50 0 93.5 -22t67.5 -61h2l11 71h76zM310 412q-81 0 -133 -61t-52 -156q0 -66 37.5 -105.5t100.5 -39.5q89 0 138.5 64t49.5 151q0 67 -38 107t-103 40zM210 581
l13 84h83l-13 -84h-83zM372 581l13 84h84l-13 -84h-84z" />
    <glyph glyph-name="aring" unicode="&#xe5;" horiz-adv-x="575" 
d="M555 465l-73 -465h-76l9 53h-2q-57 -69 -161 -69q-90 0 -147.5 56.5t-57.5 156.5q0 118 72.5 199t185.5 81q50 0 93.5 -22t67.5 -61h2l11 71h76zM310 412q-81 0 -133 -61t-52 -156q0 -66 37.5 -105.5t100.5 -39.5q89 0 138.5 64t49.5 151q0 67 -38 107t-103 40zM217 639
q0 48 35 83t83 35t83 -35t35 -83t-35 -83t-83 -35t-83 35t-35 83zM270 639q0 -27 19 -46t46 -19t46 19t19 46t-19 46t-46 19t-46 -19t-19 -46z" />
    <glyph glyph-name="ae" unicode="&#xe6;" horiz-adv-x="814" 
d="M355 211h-75q-182 0 -182 -105q0 -61 85 -61q65 0 111 45.5t61 120.5zM596 413q-124 0 -158 -141h274v9q0 61 -29 96.5t-87 35.5zM548 -17q-66 0 -109.5 32t-61.5 86q-71 -118 -206 -118q-75 0 -111 34.5t-36 83.5q0 171 261 171h80q7 46 7 60q0 81 -97 81
q-75 0 -129 -70l-51 42q72 92 182 92q122 0 150 -89q61 89 175 89q87 0 135.5 -54.5t48.5 -143.5q0 -38 -6 -68h-351q-1 -9 -1 -19q0 -65 31.5 -104.5t93.5 -39.5q84 0 138 85l58 -43q-41 -59 -87.5 -83t-113.5 -24z" />
    <glyph glyph-name="ccedilla" unicode="&#xe7;" horiz-adv-x="491" 
d="M311 477q132 0 182 -111l-67 -36q-33 81 -116 81q-88 0 -136.5 -64t-48.5 -152q0 -63 36.5 -104t98.5 -41q77 0 128 68l55 -45q-67 -84 -177 -89l-12 -22q72 -13 72 -75q0 -48 -33.5 -78t-91.5 -30q-45 0 -85 14l24 48q20 -11 61 -11q29 0 46.5 14.5t17.5 37.5
q0 20 -20 33.5t-59 13.5l32 58q-77 12 -124 68t-47 147q0 111 75.5 193t188.5 82z" />
    <glyph glyph-name="egrave" unicode="&#xe8;" horiz-adv-x="525" 
d="M305 477q78 0 135 -51t57 -146q0 -40 -8 -69h-365q-2 -16 -2 -24q0 -59 36 -98.5t95 -39.5q45 0 80.5 19t67.5 66l58 -43q-43 -59 -92.5 -83t-119.5 -24q-90 0 -144.5 58.5t-54.5 152.5q0 115 73 198.5t184 83.5zM301 413q-62 0 -106 -37.5t-60 -103.5h288v12
q0 58 -32 93.5t-90 35.5zM229 674l61 46l103 -150l-45 -33z" />
    <glyph glyph-name="eacute" unicode="&#xe9;" horiz-adv-x="525" 
d="M305 477q78 0 135 -51t57 -146q0 -40 -8 -69h-365q-2 -16 -2 -24q0 -59 36 -98.5t95 -39.5q45 0 80.5 19t67.5 66l58 -43q-43 -59 -92.5 -83t-119.5 -24q-90 0 -144.5 58.5t-54.5 152.5q0 115 73 198.5t184 83.5zM301 413q-62 0 -106 -37.5t-60 -103.5h288v12
q0 58 -32 93.5t-90 35.5zM242 578l151 150l48 -54l-161 -137z" />
    <glyph glyph-name="ecircumflex" unicode="&#xea;" horiz-adv-x="525" 
d="M305 477q78 0 135 -51t57 -146q0 -40 -8 -69h-365q-2 -16 -2 -24q0 -59 36 -98.5t95 -39.5q45 0 80.5 19t67.5 66l58 -43q-43 -59 -92.5 -83t-119.5 -24q-90 0 -144.5 58.5t-54.5 152.5q0 115 73 198.5t184 83.5zM301 413q-62 0 -106 -37.5t-60 -103.5h288v12
q0 58 -32 93.5t-90 35.5zM340 697l123 -115l-39 -44l-92 75l-119 -75l-32 49z" />
    <glyph glyph-name="edieresis" unicode="&#xeb;" horiz-adv-x="525" 
d="M305 477q78 0 135 -51t57 -146q0 -40 -8 -69h-365q-2 -16 -2 -24q0 -59 36 -98.5t95 -39.5q45 0 80.5 19t67.5 66l58 -43q-43 -59 -92.5 -83t-119.5 -24q-90 0 -144.5 58.5t-54.5 152.5q0 115 73 198.5t184 83.5zM301 413q-62 0 -106 -37.5t-60 -103.5h288v12
q0 58 -32 93.5t-90 35.5zM202 581l13 84h83l-13 -84h-83zM364 581l13 84h84l-13 -84h-84z" />
    <glyph glyph-name="igrave" unicode="&#xec;" horiz-adv-x="209" 
d="M75 674l61 46l103 -150l-45 -33zM113 465h75l-73 -465h-75z" />
    <glyph glyph-name="iacute" unicode="&#xed;" horiz-adv-x="209" 
d="M89 578l151 150l48 -54l-161 -137zM113 465h75l-73 -465h-75z" />
    <glyph glyph-name="icircumflex" unicode="&#xee;" horiz-adv-x="209" 
d="M113 465h75l-73 -465h-75zM186 697l123 -115l-39 -44l-92 75l-119 -75l-32 49z" />
    <glyph glyph-name="idieresis" unicode="&#xef;" horiz-adv-x="209" 
d="M49 581l13 84h83l-13 -84h-83zM211 581l13 84h84l-13 -84h-84zM113 465h75l-73 -465h-75z" />
    <glyph glyph-name="eth" unicode="&#xf0;" horiz-adv-x="559" 
d="M432 435l2 2q-25 73 -89 138l-117 -72l-26 45l108 69q-39 39 -81 68l38 45q60 -40 103 -83l89 55l26 -46l-79 -48q125 -143 125 -329q0 -123 -75.5 -209t-195.5 -86q-94 0 -153.5 62.5t-59.5 156.5q0 110 72.5 192t195.5 82q31 0 64.5 -12t52.5 -30zM312 410
q-81 0 -134.5 -60t-53.5 -145q0 -70 39 -112t107 -42q75 0 129 62.5t54 153.5q0 62 -39 102.5t-102 40.5z" />
    <glyph glyph-name="ntilde" unicode="&#xf1;" horiz-adv-x="519" 
d="M39 0l74 465h75l-9 -57h2q54 69 138 69q74 0 117 -43t43 -113q0 -24 -4 -52l-42 -269h-75l41 261q4 28 4 48q0 45 -25 73t-70 28q-61 0 -102.5 -45.5t-53.5 -121.5l-38 -243h-75zM222 574h-59q9 57 37.5 85t68.5 28q38 0 74 -33q34 -31 52 -31q37 0 46 57h59
q-17 -113 -109 -113q-40 0 -74 33q-31 31 -51 31q-33 0 -44 -57z" />
    <glyph glyph-name="ograve" unicode="&#xf2;" horiz-adv-x="558" 
d="M47 202q0 69 28.5 130t91.5 103t149 42q96 0 155 -63t59 -157q0 -70 -30 -131t-93 -101.5t-147 -40.5q-95 0 -154 61t-59 157zM307 410q-77 0 -130 -57.5t-53 -147.5q0 -71 38.5 -112.5t107.5 -41.5q81 0 132 58.5t51 146.5q0 68 -37.5 111t-108.5 43zM229 674l61 46
l103 -150l-45 -33z" />
    <glyph glyph-name="oacute" unicode="&#xf3;" horiz-adv-x="558" 
d="M47 202q0 69 28.5 130t91.5 103t149 42q96 0 155 -63t59 -157q0 -70 -30 -131t-93 -101.5t-147 -40.5q-95 0 -154 61t-59 157zM307 410q-77 0 -130 -57.5t-53 -147.5q0 -71 38.5 -112.5t107.5 -41.5q81 0 132 58.5t51 146.5q0 68 -37.5 111t-108.5 43zM259 578l151 150
l48 -54l-161 -137z" />
    <glyph glyph-name="ocircumflex" unicode="&#xf4;" horiz-adv-x="558" 
d="M47 202q0 69 28.5 130t91.5 103t149 42q96 0 155 -63t59 -157q0 -70 -30 -131t-93 -101.5t-147 -40.5q-95 0 -154 61t-59 157zM307 410q-77 0 -130 -57.5t-53 -147.5q0 -71 38.5 -112.5t107.5 -41.5q81 0 132 58.5t51 146.5q0 68 -37.5 111t-108.5 43zM352 697l123 -115
l-39 -44l-92 75l-119 -75l-32 49z" />
    <glyph glyph-name="otilde" unicode="&#xf5;" horiz-adv-x="558" 
d="M47 202q0 69 28.5 130t91.5 103t149 42q96 0 155 -63t59 -157q0 -70 -30 -131t-93 -101.5t-147 -40.5q-95 0 -154 61t-59 157zM307 410q-77 0 -130 -57.5t-53 -147.5q0 -71 38.5 -112.5t107.5 -41.5q81 0 132 58.5t51 146.5q0 68 -37.5 111t-108.5 43zM236 574h-59
q9 57 37.5 85t68.5 28q38 0 74 -33q34 -31 52 -31q37 0 46 57h59q-17 -113 -109 -113q-40 0 -74 33q-31 31 -51 31q-33 0 -44 -57z" />
    <glyph glyph-name="odieresis" unicode="&#xf6;" horiz-adv-x="558" 
d="M47 202q0 69 28.5 130t91.5 103t149 42q96 0 155 -63t59 -157q0 -70 -30 -131t-93 -101.5t-147 -40.5q-95 0 -154 61t-59 157zM307 410q-77 0 -130 -57.5t-53 -147.5q0 -71 38.5 -112.5t107.5 -41.5q81 0 132 58.5t51 146.5q0 68 -37.5 111t-108.5 43zM209 581l13 84h83
l-13 -84h-83zM371 581l13 84h84l-13 -84h-84z" />
    <glyph glyph-name="divide" unicode="&#xf7;" horiz-adv-x="672" 
d="M613 228h-515v72h515v-72zM409 455q0 -23 -15.5 -38t-37.5 -15q-21 0 -37 16t-16 36q0 22 15 38t38 16t38 -15.5t15 -37.5zM409 75q0 -23 -15.5 -39t-37.5 -16q-21 0 -37 16.5t-16 37.5q0 22 15 37.5t38 15.5q24 0 38.5 -15t14.5 -37z" />
    <glyph glyph-name="oslash" unicode="&#xf8;" horiz-adv-x="559" 
d="M48 202q0 69 28.5 130t91 103t148.5 42q76 0 131 -41l62 67l39 -38l-63 -66q46 -61 46 -142q0 -70 -30 -131t-93 -101.5t-147 -40.5q-77 0 -131 40l-61 -66l-39 37l63 66q-45 57 -45 141zM454 256q0 50 -22 88l-252 -267q36 -27 91 -27q81 0 132 59t51 147zM308 410
q-77 0 -130.5 -57.5t-53.5 -147.5q0 -50 22 -89l251 268q-37 26 -89 26z" />
    <glyph glyph-name="ugrave" unicode="&#xf9;" horiz-adv-x="509" 
d="M415 0h-76l9 53h-2q-54 -69 -137 -69q-59 0 -103 39.5t-44 119.5q0 25 4 51l43 271h75l-42 -266q-4 -30 -4 -46q0 -102 90 -102q62 0 98.5 49t47.5 119l39 246h76zM219 674l61 46l103 -150l-45 -33z" />
    <glyph glyph-name="uacute" unicode="&#xfa;" horiz-adv-x="509" 
d="M415 0h-76l9 53h-2q-54 -69 -137 -69q-59 0 -103 39.5t-44 119.5q0 25 4 51l43 271h75l-42 -266q-4 -30 -4 -46q0 -102 90 -102q62 0 98.5 49t47.5 119l39 246h76zM231 578l151 150l48 -54l-161 -137z" />
    <glyph glyph-name="ucircumflex" unicode="&#xfb;" horiz-adv-x="509" 
d="M415 0h-76l9 53h-2q-54 -69 -137 -69q-59 0 -103 39.5t-44 119.5q0 25 4 51l43 271h75l-42 -266q-4 -30 -4 -46q0 -102 90 -102q62 0 98.5 49t47.5 119l39 246h76zM330 697l123 -115l-39 -44l-92 75l-119 -75l-32 49z" />
    <glyph glyph-name="udieresis" unicode="&#xfc;" horiz-adv-x="509" 
d="M415 0h-76l9 53h-2q-54 -69 -137 -69q-59 0 -103 39.5t-44 119.5q0 25 4 51l43 271h75l-42 -266q-4 -30 -4 -46q0 -102 90 -102q62 0 98.5 49t47.5 119l39 246h76zM192 581l13 84h83l-13 -84h-83zM354 581l13 84h84l-13 -84h-84z" />
    <glyph glyph-name="yacute" unicode="&#xfd;" horiz-adv-x="429" 
d="M458 465l-359 -700h-78l125 241l-104 459h77l57 -269q15 -71 18 -100h2l181 369h81zM182 578l151 150l48 -54l-161 -137z" />
    <glyph glyph-name="thorn" unicode="&#xfe;" horiz-adv-x="575" 
d="M2 -235l151 956h75l-50 -320h1q62 76 168 76q91 0 145.5 -58.5t54.5 -149.5q0 -121 -73.5 -203t-185.5 -82t-163 81h-1l-47 -300h-75zM289 50q80 0 130.5 63t50.5 153q0 65 -36.5 105.5t-101.5 40.5q-82 0 -133.5 -67t-51.5 -155q0 -59 37 -99.5t105 -40.5z" />
    <glyph glyph-name="ydieresis" unicode="&#xff;" horiz-adv-x="429" 
d="M458 465l-359 -700h-78l125 241l-104 459h77l57 -269q15 -71 18 -100h2l181 369h81zM143 581l13 84h83l-13 -84h-83zM305 581l13 84h84l-13 -84h-84z" />
    <glyph glyph-name="Amacron" unicode="&#x100;" horiz-adv-x="611" 
d="M496 0l-39 196h-286l-102 -196h-88l376 682h69l151 -682h-81zM325 490l-117 -224h235l-45 224q-4 18 -9 52t-9 52h-2q-8 -17 -53 -104zM543 786h-279l9 56h279z" />
    <glyph glyph-name="amacron" unicode="&#x101;" horiz-adv-x="575" 
d="M555 465l-73 -465h-76l9 53h-2q-57 -69 -161 -69q-90 0 -147.5 56.5t-57.5 156.5q0 118 72.5 199t185.5 81q50 0 93.5 -22t67.5 -61h2l11 71h76zM310 412q-81 0 -133 -61t-52 -156q0 -66 37.5 -105.5t100.5 -39.5q89 0 138.5 64t49.5 151q0 67 -38 107t-103 40zM464 586
h-288l9 56h288z" />
    <glyph glyph-name="Abreve" unicode="&#x102;" horiz-adv-x="611" 
d="M496 0l-39 196h-286l-102 -196h-88l376 682h69l151 -682h-81zM325 490l-117 -224h235l-45 224q-4 18 -9 52t-9 52h-2q-8 -17 -53 -104zM514 882h56q-15 -61 -59.5 -93t-109.5 -32q-132 0 -132 125h55q0 -68 81 -68q40 0 70 18t39 50z" />
    <glyph glyph-name="abreve" unicode="&#x103;" horiz-adv-x="575" 
d="M555 465l-73 -465h-76l9 53h-2q-57 -69 -161 -69q-90 0 -147.5 56.5t-57.5 156.5q0 118 72.5 199t185.5 81q50 0 93.5 -22t67.5 -61h2l11 71h76zM310 412q-81 0 -133 -61t-52 -156q0 -66 37.5 -105.5t100.5 -39.5q89 0 138.5 64t49.5 151q0 67 -38 107t-103 40zM428 695
h60q-14 -64 -58.5 -103t-105.5 -39t-95.5 36t-34.5 106h58q0 -38 20 -61t56 -23t65 26t35 58z" />
    <glyph glyph-name="Aogonek" unicode="&#x104;" horiz-adv-x="611" 
d="M496 0l-39 196h-286l-102 -196h-88l376 682h69l151 -682q-35 -4 -66 -35t-31 -75q0 -37 38 -37q21 0 37 4l5 -60q-27 -8 -60 -8q-44 0 -67 22.5t-23 59.5q0 34 23 68.5t67 60.5h-4zM325 490l-117 -224h235l-45 224q-4 18 -9 52t-9 52h-2q-8 -17 -53 -104z" />
    <glyph glyph-name="aogonek" unicode="&#x105;" horiz-adv-x="575" 
d="M555 465l-73 -465q-81 -46 -81 -105q0 -36 37 -36q20 0 35 4l6 -59q-27 -8 -60 -8q-42 0 -64.5 22t-22.5 58q0 68 74 124l9 53h-2q-57 -69 -161 -69q-90 0 -147.5 56.5t-57.5 156.5q0 118 72.5 199t185.5 81q50 0 93.5 -22t67.5 -61h2l11 71h76zM310 412q-81 0 -133 -61
t-52 -156q0 -66 37.5 -105.5t100.5 -39.5q89 0 138.5 64t49.5 151q0 67 -38 107t-103 40z" />
    <glyph glyph-name="Cacute" unicode="&#x106;" horiz-adv-x="692" 
d="M446 704q178 0 256 -131l-68 -44q-59 105 -191 105q-98 0 -168.5 -47.5t-102.5 -121t-32 -162.5q0 -112 67.5 -183.5t171.5 -71.5q123 0 209 100l56 -53q-106 -117 -266 -117q-147 0 -233.5 92.5t-86.5 229.5q0 111 46.5 202.5t136 146.5t205.5 55zM580 883l26 -60
l-201 -86l-20 49z" />
    <glyph glyph-name="cacute" unicode="&#x107;" horiz-adv-x="491" 
d="M311 477q132 0 182 -111l-67 -36q-33 81 -116 81q-88 0 -136.5 -64t-48.5 -152q0 -63 36.5 -104t98.5 -41q77 0 128 68l55 -45q-71 -89 -187 -89q-92 0 -150.5 58t-58.5 160q0 111 75.5 193t188.5 82zM229 578l151 150l48 -54l-161 -137z" />
    <glyph glyph-name="Ccircumflex" unicode="&#x108;" horiz-adv-x="692" 
d="M446 704q178 0 256 -131l-68 -44q-59 105 -191 105q-98 0 -168.5 -47.5t-102.5 -121t-32 -162.5q0 -112 67.5 -183.5t171.5 -71.5q123 0 209 100l56 -53q-106 -117 -266 -117q-147 0 -233.5 92.5t-86.5 229.5q0 111 46.5 202.5t136 146.5t205.5 55zM464 879l140 -100
l-28 -44l-120 69l-144 -69l-21 46z" />
    <glyph glyph-name="ccircumflex" unicode="&#x109;" horiz-adv-x="491" 
d="M311 477q132 0 182 -111l-67 -36q-33 81 -116 81q-88 0 -136.5 -64t-48.5 -152q0 -63 36.5 -104t98.5 -41q77 0 128 68l55 -45q-71 -89 -187 -89q-92 0 -150.5 58t-58.5 160q0 111 75.5 193t188.5 82zM346 697l123 -115l-39 -44l-92 75l-119 -75l-32 49z" />
    <glyph glyph-name="Cdotaccent" unicode="&#x10a;" horiz-adv-x="692" 
d="M446 704q178 0 256 -131l-68 -44q-59 105 -191 105q-98 0 -168.5 -47.5t-102.5 -121t-32 -162.5q0 -112 67.5 -183.5t171.5 -71.5q123 0 209 100l56 -53q-106 -117 -266 -117q-147 0 -233.5 92.5t-86.5 229.5q0 111 46.5 202.5t136 146.5t205.5 55zM403 783l13 82h83
l-13 -82h-83z" />
    <glyph glyph-name="cdotaccent" unicode="&#x10b;" horiz-adv-x="491" 
d="M311 477q132 0 182 -111l-67 -36q-33 81 -116 81q-88 0 -136.5 -64t-48.5 -152q0 -63 36.5 -104t98.5 -41q77 0 128 68l55 -45q-71 -89 -187 -89q-92 0 -150.5 58t-58.5 160q0 111 75.5 193t188.5 82zM276 582l13 82h83l-13 -82h-83z" />
    <glyph glyph-name="Ccaron" unicode="&#x10c;" horiz-adv-x="692" 
d="M446 704q178 0 256 -131l-68 -44q-59 105 -191 105q-98 0 -168.5 -47.5t-102.5 -121t-32 -162.5q0 -112 67.5 -183.5t171.5 -71.5q123 0 209 100l56 -53q-106 -117 -266 -117q-147 0 -233.5 92.5t-86.5 229.5q0 111 46.5 202.5t136 146.5t205.5 55zM455 735l-140 100
l28 44l119 -69l145 69l21 -46z" />
    <glyph glyph-name="ccaron" unicode="&#x10d;" horiz-adv-x="491" 
d="M311 477q132 0 182 -111l-67 -36q-33 81 -116 81q-88 0 -136.5 -64t-48.5 -152q0 -63 36.5 -104t98.5 -41q77 0 128 68l55 -45q-71 -89 -187 -89q-92 0 -150.5 58t-58.5 160q0 111 75.5 193t188.5 82zM310 538l-123 115l39 44l92 -75l119 75l32 -49z" />
    <glyph glyph-name="Dcaron" unicode="&#x10e;" horiz-adv-x="677" 
d="M152 682h203q140 0 230 -72t90 -207q0 -176 -115.5 -289.5t-295.5 -113.5h-221zM134 72h137q142 0 231.5 92t89.5 232q0 99 -60.5 156.5t-180.5 57.5h-132zM358 735l-140 100l28 44l119 -69l145 69l21 -46z" />
    <glyph glyph-name="dcaron" unicode="&#x10f;" horiz-adv-x="655" 
d="M648 646l12 75h83l-11 -59q-10 -55 -37 -83h-48q26 26 32 67h-31zM596 721l-114 -721h-76l9 53h-2q-57 -69 -161 -69q-90 0 -147.5 56.5t-57.5 156.5q0 118 72.5 199t185.5 81q50 0 93.5 -22t67.5 -61h2l53 327h75zM310 412q-81 0 -133 -61t-52 -156q0 -66 37.5 -105.5
t100.5 -39.5q89 0 138.5 64t49.5 151q0 67 -38 107t-103 40z" />
    <glyph glyph-name="Dcroat" unicode="&#x110;" horiz-adv-x="705" 
d="M180 682h203q140 0 230 -72t90 -207q0 -176 -115.5 -289.5t-295.5 -113.5h-221l51 321h-84l10 63h84zM162 72h137q142 0 231.5 92t89.5 232q0 99 -60.5 156.5t-180.5 57.5h-132l-36 -226h191l-10 -63h-191z" />
    <glyph glyph-name="dcroat" unicode="&#x111;" horiz-adv-x="576" 
d="M596 721l-14 -85h64l-9 -56h-64l-91 -580h-76l9 53h-2q-57 -69 -161 -69q-90 0 -147.5 56.5t-57.5 156.5q0 118 72.5 199t185.5 81q50 0 93.5 -22t67.5 -61h2l30 186h-178l9 56h178l14 85h75zM310 412q-81 0 -133 -61t-52 -156q0 -66 37.5 -105.5t100.5 -39.5
q89 0 138.5 64t49.5 151q0 67 -38 107t-103 40z" />
    <glyph glyph-name="Emacron" unicode="&#x112;" horiz-adv-x="502" 
d="M512 682l-12 -72h-281l-35 -221h271l-11 -72h-271l-39 -245h292l-12 -72h-370l109 682h359zM483 786h-279l9 56h279z" />
    <glyph glyph-name="emacron" unicode="&#x113;" horiz-adv-x="525" 
d="M305 477q78 0 135 -51t57 -146q0 -40 -8 -69h-365q-2 -16 -2 -24q0 -59 36 -98.5t95 -39.5q45 0 80.5 19t67.5 66l58 -43q-43 -59 -92.5 -83t-119.5 -24q-90 0 -144.5 58.5t-54.5 152.5q0 115 73 198.5t184 83.5zM301 413q-62 0 -106 -37.5t-60 -103.5h288v12
q0 58 -32 93.5t-90 35.5zM459 586h-288l9 56h288z" />
    <glyph glyph-name="Ebreve" unicode="&#x114;" horiz-adv-x="502" 
d="M512 682l-12 -72h-281l-35 -221h271l-11 -72h-271l-39 -245h292l-12 -72h-370l109 682h359zM441 882h56q-15 -61 -59.5 -93t-109.5 -32q-132 0 -132 125h55q0 -68 81 -68q40 0 70 18t39 50z" />
    <glyph glyph-name="ebreve" unicode="&#x115;" horiz-adv-x="525" 
d="M305 477q78 0 135 -51t57 -146q0 -40 -8 -69h-365q-2 -16 -2 -24q0 -59 36 -98.5t95 -39.5q45 0 80.5 19t67.5 66l58 -43q-43 -59 -92.5 -83t-119.5 -24q-90 0 -144.5 58.5t-54.5 152.5q0 115 73 198.5t184 83.5zM301 413q-62 0 -106 -37.5t-60 -103.5h288v12
q0 58 -32 93.5t-90 35.5zM420 695h60q-14 -64 -58.5 -103t-105.5 -39t-95.5 36t-34.5 106h58q0 -38 20 -61t56 -23t65 26t35 58z" />
    <glyph glyph-name="Edotaccent" unicode="&#x116;" horiz-adv-x="502" 
d="M512 682l-12 -72h-281l-35 -221h271l-11 -72h-271l-39 -245h292l-12 -72h-370l109 682h359zM294 784l13 80h81l-13 -80h-81z" />
    <glyph glyph-name="edotaccent" unicode="&#x117;" horiz-adv-x="525" 
d="M305 477q78 0 135 -51t57 -146q0 -40 -8 -69h-365q-2 -16 -2 -24q0 -59 36 -98.5t95 -39.5q45 0 80.5 19t67.5 66l58 -43q-43 -59 -92.5 -83t-119.5 -24q-90 0 -144.5 58.5t-54.5 152.5q0 115 73 198.5t184 83.5zM301 413q-62 0 -106 -37.5t-60 -103.5h288v12
q0 58 -32 93.5t-90 35.5zM276 582l13 82h83l-13 -82h-83z" />
    <glyph glyph-name="Eogonek" unicode="&#x118;" horiz-adv-x="502" 
d="M371 -143l5 -60q-27 -8 -60 -8q-44 0 -67 22.5t-23 59.5q0 34 23 68.5t67 60.5h-272l109 682h359l-12 -72h-281l-35 -221h271l-11 -72h-271l-39 -245h292l-12 -72h-7q-41 0 -76 -33.5t-35 -76.5q0 -37 38 -37q21 0 37 4z" />
    <glyph glyph-name="eogonek" unicode="&#x119;" horiz-adv-x="525" 
d="M301 413q-60 0 -105 -38t-61 -103h287q0 2 0.5 5.5t0.5 6.5q0 58 -32 93.5t-90 35.5zM355 -137l6 -59q-27 -8 -60 -8q-42 0 -64.5 21.5t-22.5 57.5q0 58 63 110q-7 -1 -17 -1q-98 0 -155 58t-57 153q0 115 73 198.5t184 83.5q78 0 135 -51t57 -146q0 -39 -10 -69h-363
q-2 -16 -2 -24q0 -60 37 -99t101 -39q86 0 141 85l58 -43q-30 -43 -65.5 -73.5t-57.5 -42t-37.5 -31.5t-15.5 -49q0 -36 37 -36q20 0 35 4z" />
    <glyph glyph-name="Ecaron" unicode="&#x11a;" horiz-adv-x="502" 
d="M512 682l-12 -72h-281l-35 -221h271l-11 -72h-271l-39 -245h292l-12 -72h-370l109 682h359zM331 735l-140 100l28 44l119 -69l145 69l21 -46z" />
    <glyph glyph-name="ecaron" unicode="&#x11b;" horiz-adv-x="525" 
d="M305 477q78 0 135 -51t57 -146q0 -40 -8 -69h-365q-2 -16 -2 -24q0 -59 36 -98.5t95 -39.5q45 0 80.5 19t67.5 66l58 -43q-43 -59 -92.5 -83t-119.5 -24q-90 0 -144.5 58.5t-54.5 152.5q0 115 73 198.5t184 83.5zM301 413q-62 0 -106 -37.5t-60 -103.5h288v12
q0 58 -32 93.5t-90 35.5zM310 538l-123 115l39 44l92 -75l119 75l32 -49z" />
    <glyph glyph-name="Gcircumflex" unicode="&#x11c;" horiz-adv-x="745" 
d="M440 704q196 0 275 -146l-74 -40q-64 116 -200 116q-140 0 -220 -93.5t-80 -243.5q0 -106 65.5 -177.5t181.5 -71.5q103 0 172.5 67.5t85.5 174.5h-282l12 72h365l-2 -17q-22 -174 -117 -270.5t-242 -96.5q-144 0 -232.5 93t-88.5 232q0 109 45 199.5t133.5 146
t202.5 55.5zM465 879l140 -100l-28 -44l-120 69l-144 -69l-21 46z" />
    <glyph glyph-name="gcircumflex" unicode="&#x11d;" horiz-adv-x="582" 
d="M557 465l-74 -464q-23 -135 -88 -191t-185 -56q-51 0 -99 15t-76 38l31 58q61 -47 147 -47q89 0 136.5 44.5t61.5 145.5l8 57h-1q-63 -81 -164 -81q-37 0 -72 11q-64 21 -98.5 76.5t-34.5 126.5q0 113 73 196t185 83q59 0 101 -24.5t62 -58.5l13 71h74zM313 412
q-83 0 -134.5 -64.5t-51.5 -150.5q0 -67 36.5 -107t102.5 -40q78 0 130 66.5t52 149.5q0 63 -36 104.5t-99 41.5zM345 697l123 -115l-39 -44l-92 75l-119 -75l-32 49z" />
    <glyph glyph-name="Gbreve" unicode="&#x11e;" horiz-adv-x="745" 
d="M440 704q196 0 275 -146l-74 -40q-64 116 -200 116q-140 0 -220 -93.5t-80 -243.5q0 -106 65.5 -177.5t181.5 -71.5q103 0 172.5 67.5t85.5 174.5h-282l12 72h365l-2 -17q-22 -174 -117 -270.5t-242 -96.5q-144 0 -232.5 93t-88.5 232q0 109 45 199.5t133.5 146
t202.5 55.5zM560 882h56q-15 -61 -59.5 -93t-109.5 -32q-132 0 -132 125h55q0 -68 81 -68q40 0 70 18t39 50z" />
    <glyph glyph-name="gbreve" unicode="&#x11f;" horiz-adv-x="582" 
d="M557 465l-74 -464q-23 -135 -88 -191t-185 -56q-51 0 -99 15t-76 38l31 58q61 -47 147 -47q89 0 136.5 44.5t61.5 145.5l8 57h-1q-63 -81 -164 -81q-37 0 -72 11q-64 21 -98.5 76.5t-34.5 126.5q0 113 73 196t185 83q59 0 101 -24.5t62 -58.5l13 71h74zM313 412
q-83 0 -134.5 -64.5t-51.5 -150.5q0 -67 36.5 -107t102.5 -40q78 0 130 66.5t52 149.5q0 63 -36 104.5t-99 41.5zM420 695h60q-14 -64 -58.5 -103t-105.5 -39t-95.5 36t-34.5 106h58q0 -38 20 -61t56 -23t65 26t35 58z" />
    <glyph glyph-name="Gdotaccent" unicode="&#x120;" horiz-adv-x="745" 
d="M440 704q196 0 275 -146l-74 -40q-64 116 -200 116q-140 0 -220 -93.5t-80 -243.5q0 -106 65.5 -177.5t181.5 -71.5q103 0 172.5 67.5t85.5 174.5h-282l12 72h365l-2 -17q-22 -174 -117 -270.5t-242 -96.5q-144 0 -232.5 93t-88.5 232q0 109 45 199.5t133.5 146
t202.5 55.5zM402 784l13 80h81l-13 -80h-81z" />
    <glyph glyph-name="gdotaccent" unicode="&#x121;" horiz-adv-x="582" 
d="M557 465l-74 -464q-23 -135 -88 -191t-185 -56q-51 0 -99 15t-76 38l31 58q61 -47 147 -47q89 0 136.5 44.5t61.5 145.5l8 57h-1q-63 -81 -164 -81q-37 0 -72 11q-64 21 -98.5 76.5t-34.5 126.5q0 113 73 196t185 83q59 0 101 -24.5t62 -58.5l13 71h74zM313 412
q-83 0 -134.5 -64.5t-51.5 -150.5q0 -67 36.5 -107t102.5 -40q78 0 130 66.5t52 149.5q0 63 -36 104.5t-99 41.5zM288 582l13 82h83l-13 -82h-83z" />
    <glyph glyph-name="Gcommaaccent" unicode="&#x122;" horiz-adv-x="745" 
d="M440 704q196 0 275 -146l-74 -40q-64 116 -200 116q-140 0 -220 -93.5t-80 -243.5q0 -106 65.5 -177.5t181.5 -71.5q103 0 172.5 67.5t85.5 174.5h-282l12 72h365l-2 -17q-22 -174 -117 -270.5t-242 -96.5q-144 0 -232.5 93t-88.5 232q0 109 45 199.5t133.5 146
t202.5 55.5zM327 -145l12 77h85l-11 -61q-13 -59 -38 -85h-49q26 27 33 69h-32z" />
    <glyph glyph-name="gcommaaccent" unicode="&#x123;" horiz-adv-x="582" 
d="M557 465l-74 -464q-23 -135 -88 -191t-185 -56q-51 0 -99 15t-76 38l31 58q61 -47 147 -47q89 0 136.5 44.5t61.5 145.5l8 57h-1q-63 -81 -164 -81q-37 0 -72 11q-64 21 -98.5 76.5t-34.5 126.5q0 113 73 196t185 83q59 0 101 -24.5t62 -58.5l13 71h74zM313 412
q-83 0 -134.5 -64.5t-51.5 -150.5q0 -67 36.5 -107t102.5 -40q78 0 130 66.5t52 149.5q0 63 -36 104.5t-99 41.5zM366 618l-11 -75h-84l11 59q13 58 37 83h48q-26 -26 -32 -67h31z" />
    <glyph glyph-name="Hcircumflex" unicode="&#x124;" horiz-adv-x="662" 
d="M484 0l51 317h-362l-51 -317h-79l109 682h79l-47 -293h362l47 293h79l-109 -682h-79zM434 879l140 -100l-28 -44l-120 69l-144 -69l-21 46z" />
    <glyph glyph-name="hcircumflex" unicode="&#x125;" horiz-adv-x="519" 
d="M39 0l114 721h75l-49 -313h2q55 69 138 69q75 0 117.5 -41t42.5 -115q0 -23 -7 -69l-39 -252h-75l39 247q6 36 6 62q0 101 -92 101q-66 0 -106.5 -47.5t-51.5 -119.5l-39 -243h-75zM213 929l123 -115l-39 -44l-92 75l-119 -75l-32 49z" />
    <glyph glyph-name="Hbar" unicode="&#x126;" horiz-adv-x="662" 
d="M711 526h-64l-84 -526h-79l51 317h-362l-51 -317h-79l84 526h-64l9 56h64l16 100h79l-16 -100h362l16 100h79l-16 -100h64zM184 389h362l22 137h-362z" />
    <glyph glyph-name="hbar" unicode="&#x127;" horiz-adv-x="519" 
d="M357 579h-151l-27 -171h2q55 69 138 69q75 0 117.5 -41t42.5 -115q0 -23 -7 -69l-39 -252h-75l39 247q6 36 6 62q0 101 -92 101q-66 0 -106.5 -47.5t-51.5 -119.5l-39 -243h-75l92 579h-72l9 56h72l13 86h75l-13 -86h151z" />
    <glyph glyph-name="Itilde" unicode="&#x128;" horiz-adv-x="222" 
d="M44 0l109 682h79l-109 -682h-79zM105 771h-59q9 57 37.5 85t68.5 28q38 0 74 -33q34 -31 52 -31q37 0 46 57h59q-17 -113 -109 -113q-40 0 -74 33q-31 31 -51 31q-33 0 -44 -57z" />
    <glyph glyph-name="itilde" unicode="&#x129;" horiz-adv-x="209" 
d="M64 574h-59q9 57 37.5 85t68.5 28q38 0 74 -33q34 -31 52 -31q37 0 46 57h59q-17 -113 -109 -113q-40 0 -74 33q-31 31 -51 31q-33 0 -44 -57zM113 465h75l-73 -465h-75z" />
    <glyph glyph-name="Imacron" unicode="&#x12a;" horiz-adv-x="222" 
d="M44 0l109 682h79l-109 -682h-79zM339 786h-279l9 56h279z" />
    <glyph glyph-name="imacron" unicode="&#x12b;" horiz-adv-x="209" 
d="M305 586h-288l9 56h288zM113 465h75l-73 -465h-75z" />
    <glyph glyph-name="Ibreve" unicode="&#x12c;" horiz-adv-x="222" 
d="M44 0l109 682h79l-109 -682h-79zM315 882h56q-15 -61 -59.5 -93t-109.5 -32q-132 0 -132 125h55q0 -68 81 -68q40 0 70 18t39 50z" />
    <glyph glyph-name="ibreve" unicode="&#x12d;" horiz-adv-x="209" 
d="M267 695h60q-14 -64 -58.5 -103t-105.5 -39t-95.5 36t-34.5 106h58q0 -38 20 -61t56 -23t65 26t35 58zM113 465h75l-73 -465h-75z" />
    <glyph glyph-name="Iogonek" unicode="&#x12e;" horiz-adv-x="222" 
d="M111 -143l5 -60q-27 -8 -60 -8q-44 0 -67 22.5t-23 59.5q0 35 23 70.5t67 58.5h-12l109 682h79l-109 -682q-23 0 -55 -33t-32 -77q0 -37 38 -37q21 0 37 4z" />
    <glyph glyph-name="iogonek" unicode="&#x12f;" horiz-adv-x="209" 
d="M127 579l13 86h88l-13 -86h-88zM49 -204q-42 0 -64.5 21.5t-22.5 57.5q0 33 22.5 66.5t64.5 58.5h-9l73 465h75l-73 -465q-18 0 -51 -32t-33 -73q0 -36 36 -36q20 0 35 4l6 -59q-27 -8 -59 -8z" />
    <glyph glyph-name="Idotaccent" unicode="&#x130;" horiz-adv-x="222" 
d="M44 0l109 682h79l-109 -682h-79zM165 784l13 80h81l-13 -80h-81z" />
    <glyph glyph-name="dotlessi" unicode="&#x131;" horiz-adv-x="209" 
d="M113 465h75l-73 -465h-75z" />
    <glyph glyph-name="Jcircumflex" unicode="&#x134;" horiz-adv-x="337" 
d="M88 47q50 0 73.5 27.5t32.5 89.5l81 518h77l-82 -522q-15 -95 -56.5 -139t-128.5 -44q-62 0 -102 25l23 66q36 -21 82 -21zM339 879l140 -100l-28 -44l-120 69l-144 -69l-21 46z" />
    <glyph glyph-name="jcircumflex" unicode="&#x135;" horiz-adv-x="209" 
d="M189 465l-83 -524q-16 -99 -56 -141.5t-116 -42.5q-45 0 -82 13l12 66q31 -12 70 -12q41 0 63 26.5t33 89.5l83 525h76zM178 674l120 -111l-38 -44l-90 73l-115 -73l-31 49z" />
    <glyph glyph-name="Kcommaaccent" unicode="&#x136;" horiz-adv-x="574" 
d="M231 682l-48 -300l333 300h111l-374 -327l302 -355h-98l-282 333l-53 -333h-79l109 682h79zM228 -145l12 77h85l-11 -61q-13 -59 -38 -85h-49q26 27 33 69h-32z" />
    <glyph glyph-name="kcommaaccent" unicode="&#x137;" horiz-adv-x="443" 
d="M462 465l-230 -215l202 -250h-93l-190 237l-37 -237h-75l114 721h75l-72 -451l205 195h101zM164 -141l12 77h85l-11 -61q-13 -59 -38 -85h-49q26 27 33 69h-32z" />
    <glyph glyph-name="kgreenlandic" unicode="&#x138;" horiz-adv-x="443" 
d="M462 465l-227 -226l200 -239h-95l-189 228l-36 -228h-76l74 465h76l-34 -210l208 210h99z" />
    <glyph glyph-name="Lacute" unicode="&#x139;" horiz-adv-x="483" 
d="M44 0l109 682h79l-97 -610h291l-12 -72h-370zM334 883l26 -60l-201 -86l-20 49z" />
    <glyph glyph-name="lacute" unicode="&#x13a;" horiz-adv-x="208" 
d="M153 721h75l-114 -721h-75zM134 809l151 150l48 -54l-161 -137z" />
    <glyph glyph-name="Lcommaaccent" unicode="&#x13b;" horiz-adv-x="483" 
d="M44 0l109 682h79l-97 -610h291l-12 -72h-370zM177 -145l12 77h85l-11 -61q-13 -59 -38 -85h-49q26 27 33 69h-32z" />
    <glyph glyph-name="lcommaaccent" unicode="&#x13c;" horiz-adv-x="208" 
d="M153 721h75l-114 -721h-75zM14 -141l12 77h85l-11 -61q-13 -59 -38 -85h-49q26 27 33 69h-32z" />
    <glyph glyph-name="Lcaron" unicode="&#x13d;" horiz-adv-x="483" 
d="M44 0l109 682h79l-97 -610h291l-12 -72h-370zM378 605l12 77h85l-11 -61q-13 -59 -38 -85h-49q26 27 33 69h-32z" />
    <glyph glyph-name="lcaron" unicode="&#x13e;" horiz-adv-x="288" 
d="M150 694h75l-111 -694h-75zM277 619l12 75h83l-11 -59q-10 -55 -37 -83h-48q26 26 32 67h-31z" />
    <glyph glyph-name="Ldot" unicode="&#x13f;" horiz-adv-x="483" 
d="M44 0l109 682h79l-97 -610h291l-12 -72h-370zM337 317l13 82h83l-13 -82h-83z" />
    <glyph glyph-name="ldot" unicode="&#x140;" horiz-adv-x="292" 
d="M236 334l13 80h81l-12 -80h-82zM153 721h75l-114 -721h-75z" />
    <glyph glyph-name="Lslash" unicode="&#x141;" horiz-adv-x="483" 
d="M332 473l-12 -78l-150 -101l-35 -222h291l-12 -72h-369l39 247l-72 -51l11 78l74 50l56 358h78l-49 -310z" />
    <glyph glyph-name="lslash" unicode="&#x142;" horiz-adv-x="235" 
d="M167 721h75l-49 -309l87 60l-11 -77l-88 -60l-54 -335h-74l46 287l-86 -61l12 76l86 61z" />
    <glyph glyph-name="Nacute" unicode="&#x143;" horiz-adv-x="644" 
d="M117 0h-74l109 682h75l161 -338q44 -94 103 -226h2q2 14 10.5 75t13.5 95l63 394h74l-109 -682h-74l-160 339q-82 171 -103 228h-3q-19 -139 -26 -178zM521 883l26 -60l-201 -86l-20 49z" />
    <glyph glyph-name="nacute" unicode="&#x144;" horiz-adv-x="519" 
d="M39 0l74 465h75l-9 -57h2q54 69 138 69q74 0 117 -43t43 -113q0 -24 -4 -52l-42 -269h-75l41 261q4 28 4 48q0 45 -25 73t-70 28q-61 0 -102.5 -45.5t-53.5 -121.5l-38 -243h-75zM228 578l151 150l48 -54l-161 -137z" />
    <glyph glyph-name="Ncommaaccent" unicode="&#x145;" horiz-adv-x="644" 
d="M117 0h-74l109 682h75l161 -338q44 -94 103 -226h2q2 14 10.5 75t13.5 95l63 394h74l-109 -682h-74l-160 339q-82 171 -103 228h-3q-19 -139 -26 -178zM237 -145l12 77h85l-11 -61q-13 -59 -38 -85h-49q26 27 33 69h-32z" />
    <glyph glyph-name="ncommaaccent" unicode="&#x146;" horiz-adv-x="519" 
d="M39 0l74 465h75l-9 -57h2q54 69 138 69q74 0 117 -43t43 -113q0 -24 -4 -52l-42 -269h-75l41 261q4 28 4 48q0 45 -25 73t-70 28q-61 0 -102.5 -45.5t-53.5 -121.5l-38 -243h-75zM184 -141l12 77h85l-11 -61q-13 -59 -38 -85h-49q26 27 33 69h-32z" />
    <glyph glyph-name="Ncaron" unicode="&#x147;" horiz-adv-x="644" 
d="M117 0h-74l109 682h75l161 -338q44 -94 103 -226h2q2 14 10.5 75t13.5 95l63 394h74l-109 -682h-74l-160 339q-82 171 -103 228h-3q-19 -139 -26 -178zM406 735l-140 100l28 44l119 -69l145 69l21 -46z" />
    <glyph glyph-name="ncaron" unicode="&#x148;" horiz-adv-x="519" 
d="M39 0l74 465h75l-9 -57h2q54 69 138 69q74 0 117 -43t43 -113q0 -24 -4 -52l-42 -269h-75l41 261q4 28 4 48q0 45 -25 73t-70 28q-61 0 -102.5 -45.5t-53.5 -121.5l-38 -243h-75zM310 538l-123 115l39 44l92 -75l119 75l32 -49z" />
    <glyph glyph-name="Eng" unicode="&#x14a;" horiz-adv-x="644" 
d="M117 0h-74l109 682h75l162 -338q94 -196 103 -218h2q6 42 18.5 121.5t17.5 112.5l51 322h73l-109 -682q-21 -125 -57.5 -173t-123.5 -48q-46 0 -85 13l16 64q33 -12 73 -12q49 0 70 35t36 125l-163 335q-69 139 -103 228h-3q-19 -139 -36 -243z" />
    <glyph glyph-name="eng" unicode="&#x14b;" horiz-adv-x="519" 
d="M349 -60l50 321q4 28 4 48q0 45 -25 73t-70 28q-61 0 -102.5 -45.5t-53.5 -121.5l-38 -243h-75l74 465h75l-9 -57h2q54 69 138 69q74 0 117 -43t43 -113q0 -33 -4 -52l-52 -328q-16 -99 -55.5 -141.5t-114.5 -42.5q-47 0 -86 14l18 64q31 -11 68 -11q41 0 63 26.5
t33 89.5z" />
    <glyph glyph-name="Omacron" unicode="&#x14c;" horiz-adv-x="767" 
d="M395 50q137 0 212.5 97.5t75.5 228.5q0 107 -67.5 181.5t-175.5 74.5q-74 0 -132 -28t-93.5 -75t-53.5 -104t-18 -119q0 -108 69 -182t183 -74zM397 -22q-153 0 -244.5 94.5t-91.5 233.5q0 75 24 144.5t69 127t119.5 92t166.5 34.5q146 0 235.5 -95t89.5 -233
q0 -74 -23.5 -144t-68 -127.5t-116.5 -92t-160 -34.5zM582 786h-279l9 56h279z" />
    <glyph glyph-name="omacron" unicode="&#x14d;" horiz-adv-x="558" 
d="M47 202q0 69 28.5 130t91.5 103t149 42q96 0 155 -63t59 -157q0 -70 -30 -131t-93 -101.5t-147 -40.5q-95 0 -154 61t-59 157zM307 410q-77 0 -130 -57.5t-53 -147.5q0 -71 38.5 -112.5t107.5 -41.5q81 0 132 58.5t51 146.5q0 68 -37.5 111t-108.5 43zM477 586h-288l9 56
h288z" />
    <glyph glyph-name="Obreve" unicode="&#x14e;" horiz-adv-x="767" 
d="M395 50q137 0 212.5 97.5t75.5 228.5q0 107 -67.5 181.5t-175.5 74.5q-74 0 -132 -28t-93.5 -75t-53.5 -104t-18 -119q0 -108 69 -182t183 -74zM397 -22q-153 0 -244.5 94.5t-91.5 233.5q0 75 24 144.5t69 127t119.5 92t166.5 34.5q146 0 235.5 -95t89.5 -233
q0 -74 -23.5 -144t-68 -127.5t-116.5 -92t-160 -34.5zM555 882h56q-15 -61 -59.5 -93t-109.5 -32q-132 0 -132 125h55q0 -68 81 -68q40 0 70 18t39 50z" />
    <glyph glyph-name="obreve" unicode="&#x14f;" horiz-adv-x="558" 
d="M47 202q0 69 28.5 130t91.5 103t149 42q96 0 155 -63t59 -157q0 -70 -30 -131t-93 -101.5t-147 -40.5q-95 0 -154 61t-59 157zM307 410q-77 0 -130 -57.5t-53 -147.5q0 -71 38.5 -112.5t107.5 -41.5q81 0 132 58.5t51 146.5q0 68 -37.5 111t-108.5 43zM435 695h60
q-14 -64 -58.5 -103t-105.5 -39t-95.5 36t-34.5 106h58q0 -38 20 -61t56 -23t65 26t35 58z" />
    <glyph glyph-name="Ohungarumlaut" unicode="&#x150;" horiz-adv-x="767" 
d="M395 50q137 0 212.5 97.5t75.5 228.5q0 107 -67.5 181.5t-175.5 74.5q-74 0 -132 -28t-93.5 -75t-53.5 -104t-18 -119q0 -108 69 -182t183 -74zM397 -22q-153 0 -244.5 94.5t-91.5 233.5q0 75 24 144.5t69 127t119.5 92t166.5 34.5q146 0 235.5 -95t89.5 -233
q0 -74 -23.5 -144t-68 -127.5t-116.5 -92t-160 -34.5zM478 878l33 -49l-162 -94l-26 40zM636 878l34 -49l-163 -94l-26 40z" />
    <glyph glyph-name="ohungarumlaut" unicode="&#x151;" horiz-adv-x="558" 
d="M47 202q0 69 28.5 130t91.5 103t149 42q96 0 155 -63t59 -157q0 -70 -30 -131t-93 -101.5t-147 -40.5q-95 0 -154 61t-59 157zM307 410q-77 0 -130 -57.5t-53 -147.5q0 -71 38.5 -112.5t107.5 -41.5q81 0 132 58.5t51 146.5q0 68 -37.5 111t-108.5 43zM337 730l56 -44
l-136 -149l-38 29zM483 730l55 -44l-135 -149l-38 29z" />
    <glyph glyph-name="OE" unicode="&#x152;" horiz-adv-x="1079" 
d="M61 306q0 59 14.5 115.5t46 108t75 90t106.5 61.5t137 23q99 0 166.5 -44t101.5 -116l21 138h360l-12 -72h-284l-35 -221h274l-11 -72h-274l-39 -245h295l-11 -72h-371l12 85q-95 -107 -253 -107q-140 0 -229.5 96t-89.5 232zM385 50q74 0 132.5 28t94 75t53.5 104
t18 119q0 107 -67.5 181.5t-175.5 74.5q-74 0 -132 -28t-93.5 -75t-53.5 -104t-18 -119q0 -107 67 -181.5t175 -74.5z" />
    <glyph glyph-name="oe" unicode="&#x153;" horiz-adv-x="920" 
d="M304 410q-81 0 -130.5 -62.5t-49.5 -149.5q0 -61 35 -104t98 -43q88 0 142 60.5t54 149.5q0 66 -39.5 107.5t-109.5 41.5zM696 413q-60 0 -105 -38t-61 -103h288q0 2 0.5 5.5t0.5 6.5q0 58 -32 93.5t-91 35.5zM647 -16q-64 0 -110.5 28.5t-68.5 82.5q-77 -111 -222 -111
q-90 0 -144.5 60t-54.5 151q0 117 72 199.5t192 82.5q67 0 116 -31t73 -82q69 113 200 113q78 0 135 -51t57 -146q0 -43 -7 -69h-366q-2 -16 -2 -24q0 -58 37 -98t97 -40q89 0 144 85l58 -43q-42 -59 -90 -83t-116 -24z" />
    <glyph glyph-name="Racute" unicode="&#x154;" horiz-adv-x="543" 
d="M168 287l-46 -287h-78l109 682h174q104 0 156 -46t52 -125q0 -81 -50.5 -139.5t-135.5 -76.5l160 -295h-91l-151 287h-99zM179 359h112q76 0 119 42t43 110q0 99 -128 99h-106zM434 883l26 -60l-201 -86l-20 49z" />
    <glyph glyph-name="racute" unicode="&#x155;" horiz-adv-x="337" 
d="M350 472l-15 -67q-18 5 -41 5q-59 0 -94.5 -45t-47.5 -121l-38 -244h-75l74 465h74l-10 -56l2 -1q51 69 128 69q21 0 43 -5zM162 578l151 150l48 -54l-161 -137z" />
    <glyph glyph-name="Rcommaaccent" unicode="&#x156;" horiz-adv-x="543" 
d="M168 287l-46 -287h-78l109 682h174q104 0 156 -46t52 -125q0 -81 -50.5 -139.5t-135.5 -76.5l160 -295h-91l-151 287h-99zM179 359h112q76 0 119 42t43 110q0 99 -128 99h-106zM212 -145l12 77h85l-11 -61q-13 -59 -38 -85h-49q26 27 33 69h-32z" />
    <glyph glyph-name="rcommaaccent" unicode="&#x157;" horiz-adv-x="337" 
d="M350 472l-15 -67q-18 5 -41 5q-59 0 -94.5 -45t-47.5 -121l-38 -244h-75l74 465h74l-10 -56l2 -1q51 69 128 69q21 0 43 -5zM21 -141l12 77h85l-11 -61q-13 -59 -38 -85h-49q26 27 33 69h-32z" />
    <glyph glyph-name="Rcaron" unicode="&#x158;" horiz-adv-x="543" 
d="M168 287l-46 -287h-78l109 682h174q104 0 156 -46t52 -125q0 -81 -50.5 -139.5t-135.5 -76.5l160 -295h-91l-151 287h-99zM179 359h112q76 0 119 42t43 110q0 99 -128 99h-106zM319 735l-140 100l28 44l119 -69l145 69l21 -46z" />
    <glyph glyph-name="rcaron" unicode="&#x159;" horiz-adv-x="337" 
d="M350 472l-15 -67q-18 5 -41 5q-59 0 -94.5 -45t-47.5 -121l-38 -244h-75l74 465h74l-10 -56l2 -1q51 69 128 69q21 0 43 -5zM229 538l-123 115l39 44l92 -75l119 75l32 -49z" />
    <glyph glyph-name="Sacute" unicode="&#x15a;" horiz-adv-x="524" 
d="M506 579l-73 -31q-34 88 -120 88q-55 0 -87.5 -32t-32.5 -76q0 -39 25.5 -68.5t91.5 -54.5q90 -33 130.5 -84.5t40.5 -130.5q0 -92 -64.5 -151.5t-164.5 -59.5q-172 0 -218 158l78 26q37 -116 144 -116q63 0 104 39.5t41 103.5q0 53 -28 87.5t-102 61.5q-80 30 -119 73.5
t-39 108.5q0 84 57 133.5t145 49.5q138 0 191 -125zM460 883l26 -60l-201 -86l-20 49z" />
    <glyph glyph-name="sacute" unicode="&#x15b;" horiz-adv-x="394" 
d="M367 396l-65 -33q-23 52 -78 52q-33 0 -53.5 -17.5t-20.5 -43.5q0 -23 15.5 -40t55.5 -35q68 -30 96 -65.5t28 -87.5q0 -61 -45.5 -101.5t-119.5 -40.5q-59 0 -100.5 28t-55.5 77l68 30q20 -72 91 -72q40 0 64 21t24 55q0 30 -17 51.5t-66 42.5q-112 48 -112 134
q0 54 41.5 90t112.5 36q101 0 137 -81zM165 578l151 150l48 -54l-161 -137z" />
    <glyph glyph-name="Scircumflex" unicode="&#x15c;" horiz-adv-x="524" 
d="M506 579l-73 -31q-34 88 -120 88q-55 0 -87.5 -32t-32.5 -76q0 -39 25.5 -68.5t91.5 -54.5q90 -33 130.5 -84.5t40.5 -130.5q0 -92 -64.5 -151.5t-164.5 -59.5q-172 0 -218 158l78 26q37 -116 144 -116q63 0 104 39.5t41 103.5q0 53 -28 87.5t-102 61.5q-80 30 -119 73.5
t-39 108.5q0 84 57 133.5t145 49.5q138 0 191 -125zM338 879l140 -100l-28 -44l-120 69l-144 -69l-21 46z" />
    <glyph glyph-name="scircumflex" unicode="&#x15d;" horiz-adv-x="394" 
d="M367 396l-65 -33q-23 52 -78 52q-33 0 -53.5 -17.5t-20.5 -43.5q0 -23 15.5 -40t55.5 -35q68 -30 96 -65.5t28 -87.5q0 -61 -45.5 -101.5t-119.5 -40.5q-59 0 -100.5 28t-55.5 77l68 30q20 -72 91 -72q40 0 64 21t24 55q0 30 -17 51.5t-66 42.5q-112 48 -112 134
q0 54 41.5 90t112.5 36q101 0 137 -81zM259 697l123 -115l-39 -44l-92 75l-119 -75l-32 49z" />
    <glyph glyph-name="Scedilla" unicode="&#x15e;" horiz-adv-x="524" 
d="M506 579l-73 -31q-34 88 -120 88q-55 0 -87.5 -32t-32.5 -76q0 -39 25.5 -68.5t91.5 -54.5q90 -33 130.5 -84.5t40.5 -130.5q0 -91 -63.5 -150t-161.5 -61l-10 -18q35 -7 54.5 -27.5t19.5 -50.5q0 -50 -34.5 -81t-93.5 -31q-48 0 -88 15l25 48q20 -11 63 -11q30 0 48 15
t18 39q0 22 -20.5 36t-60.5 14l31 55q-136 20 -174 155l78 26q37 -116 144 -116q63 0 104 39.5t41 103.5q0 53 -28 87.5t-102 61.5q-80 30 -119 73.5t-39 108.5q0 84 57 133.5t145 49.5q138 0 191 -125z" />
    <glyph glyph-name="scedilla" unicode="&#x15f;" horiz-adv-x="394" 
d="M367 396l-65 -33q-23 52 -78 52q-33 0 -53.5 -17.5t-20.5 -43.5q0 -23 15.5 -40t55.5 -35q68 -30 96 -65.5t28 -87.5q0 -59 -43 -99t-113 -43l-12 -22q72 -13 72 -75q0 -48 -33.5 -78t-91.5 -30q-45 0 -85 14l25 48q19 -11 61 -11q28 0 45.5 14.5t17.5 37.5
q0 20 -20 33.5t-58 13.5l33 58q-94 17 -119 102l68 30q20 -72 91 -72q40 0 64 21t24 55q0 30 -17 51.5t-66 42.5q-112 48 -112 134q0 54 41.5 90t112.5 36q101 0 137 -81z" />
    <glyph glyph-name="Scaron" unicode="&#x160;" horiz-adv-x="524" 
d="M506 579l-73 -31q-34 88 -120 88q-55 0 -87.5 -32t-32.5 -76q0 -39 25.5 -68.5t91.5 -54.5q90 -33 130.5 -84.5t40.5 -130.5q0 -92 -64.5 -151.5t-164.5 -59.5q-172 0 -218 158l78 26q37 -116 144 -116q63 0 104 39.5t41 103.5q0 53 -28 87.5t-102 61.5q-80 30 -119 73.5
t-39 108.5q0 84 57 133.5t145 49.5q138 0 191 -125zM339 735l-140 100l28 44l119 -69l145 69l21 -46z" />
    <glyph glyph-name="scaron" unicode="&#x161;" horiz-adv-x="394" 
d="M367 396l-65 -33q-23 52 -78 52q-33 0 -53.5 -17.5t-20.5 -43.5q0 -23 15.5 -40t55.5 -35q68 -30 96 -65.5t28 -87.5q0 -61 -45.5 -101.5t-119.5 -40.5q-59 0 -100.5 28t-55.5 77l68 30q20 -72 91 -72q40 0 64 21t24 55q0 30 -17 51.5t-66 42.5q-112 48 -112 134
q0 54 41.5 90t112.5 36q101 0 137 -81zM252 538l-123 115l39 44l92 -75l119 75l32 -49z" />
    <glyph glyph-name="uni0162" unicode="&#x162;" horiz-adv-x="495" 
d="M178 0l97 610h-172l12 72h424l-12 -72h-173l-97 -610h-79zM154 -145l12 77h85l-11 -61q-13 -59 -38 -85h-49q26 27 33 69h-32z" />
    <glyph glyph-name="uni0163" unicode="&#x163;" horiz-adv-x="299" 
d="M51 401l10 64h63l23 145h75l-23 -145h119l-10 -64h-118l-35 -214q-7 -51 -7 -68q0 -32 14 -46.5t49 -14.5q23 0 41 5l9 -61q-30 -8 -68 -8q-119 0 -119 123q0 35 8 80l33 204h-64zM122 -141l12 77h85l-11 -61q-13 -59 -38 -85h-49q26 27 33 69h-32z" />
    <glyph glyph-name="Tcaron" unicode="&#x164;" horiz-adv-x="495" 
d="M178 0l97 610h-172l12 72h424l-12 -72h-173l-97 -610h-79zM327 735l-140 100l28 44l119 -69l145 69l21 -46z" />
    <glyph glyph-name="tcaron" unicode="&#x165;" horiz-adv-x="301" 
d="M292 619l11 75h84l-11 -59q-10 -55 -37 -83h-48q26 26 32 67h-31zM51 401l10 64h63l23 145h75l-23 -145h119l-10 -64h-118l-35 -214q-7 -51 -7 -68q0 -32 14 -46.5t49 -14.5q23 0 41 5l9 -61q-30 -8 -68 -8q-119 0 -119 123q0 35 8 80l33 204h-64z" />
    <glyph glyph-name="Tbar" unicode="&#x166;" horiz-adv-x="495" 
d="M426 322h-118l-51 -322h-79l51 322h-118l9 56h118l37 232h-172l12 72h424l-12 -72h-173l-37 -232h118z" />
    <glyph glyph-name="tbar" unicode="&#x167;" horiz-adv-x="299" 
d="M261 213h-102l-4 -27q-7 -51 -7 -67q0 -32 14 -46.5t49 -14.5q27 0 51 6l-12 -64q-24 -6 -57 -6q-119 0 -119 123q0 15 8 79l2 17h-43l9 55h43l21 133h-63l10 64h63l23 145h75l-23 -145h119l-10 -64h-119l-21 -133h101z" />
    <glyph glyph-name="Utilde" unicode="&#x168;" horiz-adv-x="599" 
d="M269 -22q-96 0 -147 56.5t-51 161.5q0 38 6 76l65 410h79l-66 -422q-5 -32 -5 -64q0 -146 128 -146q84 0 132 52.5t65 161.5l66 418h79l-64 -408q-25 -152 -91.5 -224t-195.5 -72zM288 771h-59q9 57 37.5 85t68.5 28q38 0 74 -33q34 -31 52 -31q37 0 46 57h59
q-17 -113 -109 -113q-40 0 -74 33q-31 31 -51 31q-33 0 -44 -57z" />
    <glyph glyph-name="utilde" unicode="&#x169;" horiz-adv-x="509" 
d="M415 0h-76l9 53h-2q-54 -69 -137 -69q-59 0 -103 39.5t-44 119.5q0 25 4 51l43 271h75l-42 -266q-4 -30 -4 -46q0 -102 90 -102q62 0 98.5 49t47.5 119l39 246h76zM211 574h-59q9 57 37.5 85t68.5 28q38 0 74 -33q34 -31 52 -31q37 0 46 57h59q-17 -113 -109 -113
q-40 0 -74 33q-31 31 -51 31q-33 0 -44 -57z" />
    <glyph glyph-name="Umacron" unicode="&#x16a;" horiz-adv-x="599" 
d="M269 -22q-96 0 -147 56.5t-51 161.5q0 38 6 76l65 410h79l-66 -422q-5 -32 -5 -64q0 -146 128 -146q84 0 132 52.5t65 161.5l66 418h79l-64 -408q-25 -152 -91.5 -224t-195.5 -72zM533 786h-279l9 56h279z" />
    <glyph glyph-name="umacron" unicode="&#x16b;" horiz-adv-x="509" 
d="M415 0h-76l9 53h-2q-54 -69 -137 -69q-59 0 -103 39.5t-44 119.5q0 25 4 51l43 271h75l-42 -266q-4 -30 -4 -46q0 -102 90 -102q62 0 98.5 49t47.5 119l39 246h76zM458 586h-288l9 56h288z" />
    <glyph glyph-name="Ubreve" unicode="&#x16c;" horiz-adv-x="599" 
d="M269 -22q-96 0 -147 56.5t-51 161.5q0 38 6 76l65 410h79l-66 -422q-5 -32 -5 -64q0 -146 128 -146q84 0 132 52.5t65 161.5l66 418h79l-64 -408q-25 -152 -91.5 -224t-195.5 -72zM501 882h56q-15 -61 -59.5 -93t-109.5 -32q-132 0 -132 125h55q0 -68 81 -68q40 0 70 18
t39 50z" />
    <glyph glyph-name="ubreve" unicode="&#x16d;" horiz-adv-x="509" 
d="M415 0h-76l9 53h-2q-54 -69 -137 -69q-59 0 -103 39.5t-44 119.5q0 25 4 51l43 271h75l-42 -266q-4 -30 -4 -46q0 -102 90 -102q62 0 98.5 49t47.5 119l39 246h76zM414 695h60q-14 -64 -58.5 -103t-105.5 -39t-95.5 36t-34.5 106h58q0 -38 20 -61t56 -23t65 26t35 58z
" />
    <glyph glyph-name="Uring" unicode="&#x16e;" horiz-adv-x="599" 
d="M269 -22q-96 0 -147 56.5t-51 161.5q0 38 6 76l65 410h79l-66 -422q-5 -32 -5 -64q0 -146 128 -146q84 0 132 52.5t65 161.5l66 418h79l-64 -408q-25 -152 -91.5 -224t-195.5 -72zM334 862q0 -28 19.5 -47.5t46.5 -19.5q29 0 48 19.5t19 47.5q0 29 -19 47.5t-48 18.5
q-28 0 -47 -18.5t-19 -47.5zM288 862q0 46 33 79t79 33q47 0 80 -33t33 -79t-33 -79.5t-80 -33.5q-46 0 -79 33.5t-33 79.5z" />
    <glyph glyph-name="uring" unicode="&#x16f;" horiz-adv-x="509" 
d="M415 0h-76l9 53h-2q-54 -69 -137 -69q-59 0 -103 39.5t-44 119.5q0 25 4 51l43 271h75l-42 -266q-4 -30 -4 -46q0 -102 90 -102q62 0 98.5 49t47.5 119l39 246h76zM190 639q0 48 35 83t83 35t83 -35t35 -83t-35 -83t-83 -35t-83 35t-35 83zM243 639q0 -27 19 -46t46 -19
t46 19t19 46t-19 46t-46 19t-46 -19t-19 -46z" />
    <glyph glyph-name="Uhungarumlaut" unicode="&#x170;" horiz-adv-x="599" 
d="M269 -22q-96 0 -147 56.5t-51 161.5q0 38 6 76l65 410h79l-66 -422q-5 -32 -5 -64q0 -146 128 -146q84 0 132 52.5t65 161.5l66 418h79l-64 -408q-25 -152 -91.5 -224t-195.5 -72zM420 878l33 -49l-162 -94l-26 40zM578 878l34 -49l-163 -94l-26 40z" />
    <glyph glyph-name="uhungarumlaut" unicode="&#x171;" horiz-adv-x="509" 
d="M415 0h-76l9 53h-2q-54 -69 -137 -69q-59 0 -103 39.5t-44 119.5q0 25 4 51l43 271h75l-42 -266q-4 -30 -4 -46q0 -102 90 -102q62 0 98.5 49t47.5 119l39 246h76zM305 730l56 -44l-136 -149l-38 29zM451 730l55 -44l-135 -149l-38 29z" />
    <glyph glyph-name="Uogonek" unicode="&#x172;" horiz-adv-x="599" 
d="M389 -143l5 -60q-27 -8 -60 -8q-44 0 -67 22.5t-23 59.5q0 59 60 108q-4 0 -13 -0.5t-14 -0.5q-206 0 -206 218q0 38 6 76l65 410h79l-66 -422q-5 -32 -5 -64q0 -74 30.5 -110t97.5 -36q81 0 130.5 51.5t67.5 163.5l65 417h79l-64 -408q-18 -112 -55.5 -177t-109.5 -97
q-37 -17 -57 -48t-20 -62q0 -37 38 -37q21 0 37 4z" />
    <glyph glyph-name="uogonek" unicode="&#x173;" horiz-adv-x="509" 
d="M415 0q-82 -45 -82 -105q0 -36 37 -36q20 0 35 4l6 -59q-27 -8 -59 -8q-43 0 -65.5 22t-22.5 58q0 67 75 124l9 53h-2q-54 -69 -137 -69q-59 0 -103 39.5t-44 119.5q0 25 4 51l43 271h75l-42 -266q-4 -30 -4 -46q0 -102 90 -102q62 0 98.5 49t47.5 119l39 246h76z" />
    <glyph glyph-name="Wcircumflex" unicode="&#x174;" horiz-adv-x="800" 
d="M504 0l-32 432q-3 33 -3 147h-4q-42 -125 -49 -143l-175 -436h-80l-63 682h76l36 -441q7 -79 7 -134h4q29 92 50 143l173 432h78l32 -440q5 -70 5 -134h4q25 75 50 133l179 441h76l-278 -682h-86zM507 879l140 -100l-28 -44l-120 69l-144 -69l-21 46z" />
    <glyph glyph-name="wcircumflex" unicode="&#x175;" horiz-adv-x="638" 
d="M66 465h73l22 -281q6 -70 6 -112h2q14 56 34 102l115 291h78l28 -260q5 -51 5 -133h2q9 33 36 102l114 291h79l-192 -465h-92l-25 254q-6 60 -6 125h-2q-22 -84 -38 -124l-104 -255h-93zM387 697l123 -115l-39 -44l-92 75l-119 -75l-32 49z" />
    <glyph glyph-name="Ycircumflex" unicode="&#x176;" horiz-adv-x="511" 
d="M183 0l45 279l-141 403h79l86 -250q19 -57 25 -81q16 29 46 76l164 255h86l-267 -402l-45 -280h-78zM354 879l140 -100l-28 -44l-120 69l-144 -69l-21 46z" />
    <glyph glyph-name="ycircumflex" unicode="&#x177;" horiz-adv-x="429" 
d="M458 465l-359 -700h-78l125 241l-104 459h77l57 -269q15 -71 18 -100h2l181 369h81zM271 697l123 -115l-39 -44l-92 75l-119 -75l-32 49z" />
    <glyph glyph-name="Ydieresis" unicode="&#x178;" horiz-adv-x="511" 
d="M183 0l45 279l-141 403h79l86 -250q19 -57 25 -81q16 29 46 76l164 255h86l-267 -402l-45 -280h-78zM208 780l13 81h79l-13 -81h-79zM389 780l13 81h79l-13 -81h-79z" />
    <glyph glyph-name="Zacute" unicode="&#x179;" horiz-adv-x="577" 
d="M125 610l12 72h466l-11 -69l-469 -541h399l-12 -72h-498l11 68l471 542h-369zM484 883l26 -60l-201 -86l-20 49z" />
    <glyph glyph-name="zacute" unicode="&#x17a;" horiz-adv-x="470" 
d="M96 401l10 64h350l-9 -61l-317 -340h276l-10 -64h-373l9 61l317 340h-253zM214 578l151 150l48 -54l-161 -137z" />
    <glyph glyph-name="Zdotaccent" unicode="&#x17b;" horiz-adv-x="577" 
d="M125 610l12 72h466l-11 -69l-469 -541h399l-12 -72h-498l11 68l471 542h-369zM335 784l13 80h81l-13 -80h-81z" />
    <glyph glyph-name="zdotaccent" unicode="&#x17c;" horiz-adv-x="470" 
d="M96 401l10 64h350l-9 -61l-317 -340h276l-10 -64h-373l9 61l317 340h-253zM251 582l13 82h83l-13 -82h-83z" />
    <glyph glyph-name="Zcaron" unicode="&#x17d;" horiz-adv-x="577" 
d="M125 610l12 72h466l-11 -69l-469 -541h399l-12 -72h-498l11 68l471 542h-369zM362 735l-140 100l28 44l119 -69l145 69l21 -46z" />
    <glyph glyph-name="zcaron" unicode="&#x17e;" horiz-adv-x="470" 
d="M96 401l10 64h350l-9 -61l-317 -340h276l-10 -64h-373l9 61l317 340h-253zM295 538l-123 115l39 44l92 -75l119 75l32 -49z" />
    <glyph glyph-name="longs" unicode="&#x17f;" horiz-adv-x="241" 
d="M50 -12l88 558q12 82 51.5 122.5t115.5 40.5q24 0 57 -7l-10 -62q-30 5 -45 5q-39 0 -61.5 -22.5t-31.5 -78.5l-90 -565q-17 -110 -61 -158.5t-120 -48.5q-30 0 -57 9l10 63q23 -7 47 -7q41 0 67 32t40 119z" />
    <glyph glyph-name="florin" unicode="&#x192;" horiz-adv-x="550" 
d="M131 -101l135 520h-84l11 63h90l17 70q20 83 62.5 117.5t109.5 34.5q26 0 52 -6l-10 -63q-25 5 -42 5q-39 0 -60 -20.5t-33 -63.5l-20 -74h90l-10 -63h-97l-135 -518q-23 -85 -64.5 -121.5t-107.5 -36.5q-28 0 -52 6l8 64q15 -5 46 -5q69 0 94 91z" />
    <glyph glyph-name="Scommaaccent" unicode="&#x218;" horiz-adv-x="524" 
d="M506 579l-73 -31q-34 88 -120 88q-55 0 -87.5 -32t-32.5 -76q0 -39 25.5 -68.5t91.5 -54.5q90 -33 130.5 -84.5t40.5 -130.5q0 -92 -64.5 -151.5t-164.5 -59.5q-172 0 -218 158l78 26q37 -116 144 -116q63 0 104 39.5t41 103.5q0 53 -28 87.5t-102 61.5q-80 30 -119 73.5
t-39 108.5q0 84 57 133.5t145 49.5q138 0 191 -125zM196 -145l12 77h85l-11 -61q-13 -59 -38 -85h-49q26 27 33 69h-32z" />
    <glyph glyph-name="scommaaccent" unicode="&#x219;" horiz-adv-x="394" 
d="M367 396l-65 -33q-23 52 -78 52q-33 0 -53.5 -17.5t-20.5 -43.5q0 -23 15.5 -40t55.5 -35q68 -30 96 -65.5t28 -87.5q0 -61 -45.5 -101.5t-119.5 -40.5q-59 0 -100.5 28t-55.5 77l68 30q20 -72 91 -72q40 0 64 21t24 55q0 30 -17 51.5t-66 42.5q-112 48 -112 134
q0 54 41.5 90t112.5 36q101 0 137 -81zM123 -141l12 77h85l-11 -61q-13 -59 -38 -85h-49q26 27 33 69h-32z" />
    <glyph glyph-name="uni021A" unicode="&#x21a;" horiz-adv-x="495" 
d="M178 0l97 610h-172l12 72h424l-12 -72h-173l-97 -610h-79zM154 -145l12 77h85l-11 -61q-13 -59 -38 -85h-49q26 27 33 69h-32z" />
    <glyph glyph-name="uni021B" unicode="&#x21b;" horiz-adv-x="299" 
d="M51 401l10 64h63l23 145h75l-23 -145h119l-10 -64h-118l-35 -214q-7 -51 -7 -68q0 -32 14 -46.5t49 -14.5q23 0 41 5l9 -61q-30 -8 -68 -8q-119 0 -119 123q0 35 8 80l33 204h-64zM122 -141l12 77h85l-11 -61q-13 -59 -38 -85h-49q26 27 33 69h-32z" />
    <glyph glyph-name="dotlessj" unicode="&#x237;" horiz-adv-x="209" 
d="M189 465l-83 -524q-16 -99 -56 -141.5t-116 -42.5q-47 0 -86 16l22 63q28 -12 64 -12q41 0 63 26.5t33 89.5l83 525h76z" />
    <glyph glyph-name="circumflex" unicode="&#x2c6;" horiz-adv-x="316" 
d="M232 718l123 -115l-39 -44l-92 75l-119 -75l-32 49z" />
    <glyph glyph-name="caron" unicode="&#x2c7;" horiz-adv-x="316" 
d="M211 559l-123 115l39 44l92 -75l119 75l32 -49z" />
    <glyph glyph-name="uni02C9" unicode="&#x2c9;" horiz-adv-x="328" 
d="M361 608h-288l9 56h288z" />
    <glyph glyph-name="breve" unicode="&#x2d8;" horiz-adv-x="316" 
d="M317 717h60q-14 -64 -58.5 -103t-105.5 -39t-95.5 36t-34.5 106h58q0 -38 20 -61t56 -23t65 26t35 58z" />
    <glyph glyph-name="dotaccent" unicode="&#x2d9;" horiz-adv-x="316" 
d="M176 605l13 82h83l-13 -82h-83z" />
    <glyph glyph-name="ring" unicode="&#x2da;" horiz-adv-x="316" 
d="M102 661q0 48 35 83t83 35t83 -35t35 -83t-35 -83t-83 -35t-83 35t-35 83zM155 661q0 -27 19 -46t46 -19t46 19t19 46t-19 46t-46 19t-46 -19t-19 -46z" />
    <glyph glyph-name="ogonek" unicode="&#x2db;" horiz-adv-x="316" 
d="M198 -143l5 -60q-27 -8 -60 -8q-44 0 -67 22.5t-23 59.5q0 34 23 68.5t67 60.5h57q-77 -51 -77 -110q0 -37 38 -37q21 0 37 4z" />
    <glyph glyph-name="tilde" unicode="&#x2dc;" horiz-adv-x="316" 
d="M114 596h-59q9 57 37.5 85t68.5 28q38 0 74 -33q34 -31 52 -31q37 0 46 57h59q-17 -113 -109 -113q-40 0 -74 33q-31 31 -51 31q-33 0 -44 -57z" />
    <glyph glyph-name="hungarumlaut" unicode="&#x2dd;" horiz-adv-x="316" 
d="M219 751l56 -44l-136 -149l-38 29zM365 751l55 -44l-135 -149l-38 29z" />
    <glyph glyph-name="uni037E" unicode="&#x37e;" horiz-adv-x="224" 
d="M35 0l16 105h104l-17 -80q-20 -92 -72 -156h-49q37 47 56 131h-38zM88 341l17 105h103l-17 -105h-103z" />
    <glyph glyph-name="tonos" unicode="&#x384;" horiz-adv-x="305" 
d="M162 564l59 179l74 -25l-84 -173z" />
    <glyph glyph-name="dieresistonos" unicode="&#x385;" horiz-adv-x="324" 
d="M182 577l49 172l76 -26l-74 -166zM72 576l13 84h79l-13 -84h-79zM297 576l13 84h80l-13 -84h-80z" />
    <glyph glyph-name="Alphatonos" unicode="&#x386;" horiz-adv-x="611" 
d="M496 0l-39 196h-286l-102 -196h-88l376 682h69l151 -682h-81zM325 490l-117 -224h235l-45 224q-4 18 -9 52t-9 52h-2q-8 -17 -53 -104zM100 539l59 179l74 -25l-84 -173z" />
    <glyph glyph-name="anoteleia" unicode="&#x387;" horiz-adv-x="230" 
d="M79 289l16 107h103l-17 -107h-102z" />
    <glyph glyph-name="Epsilontonos" unicode="&#x388;" horiz-adv-x="585" 
d="M595 682l-12 -72h-281l-35 -221h271l-11 -72h-271l-39 -245h292l-12 -72h-370l109 682h359zM50 539l59 179l74 -25l-84 -173z" />
    <glyph glyph-name="Etatonos" unicode="&#x389;" horiz-adv-x="745" 
d="M567 0l51 317h-362l-51 -317h-79l109 682h79l-47 -293h362l47 293h79l-109 -682h-79zM50 539l59 179l74 -25l-84 -173z" />
    <glyph glyph-name="Iotatonos" unicode="&#x38a;" horiz-adv-x="305" 
d="M127 0l109 682h79l-109 -682h-79zM50 539l59 179l74 -25l-84 -173z" />
    <glyph glyph-name="Omicrontonos" unicode="&#x38c;" horiz-adv-x="832" 
d="M460 50q137 0 212.5 97.5t75.5 228.5q0 107 -67.5 181.5t-175.5 74.5q-74 0 -132 -28t-93.5 -75t-53.5 -104t-18 -119q0 -108 69 -182t183 -74zM462 -22q-153 0 -244.5 94.5t-91.5 233.5q0 75 24 144.5t69 127t119.5 92t166.5 34.5q146 0 235.5 -95t89.5 -233
q0 -74 -23.5 -144t-68 -127.5t-116.5 -92t-160 -34.5zM50 539l59 179l74 -25l-84 -173z" />
    <glyph glyph-name="Upsilontonos" unicode="&#x38e;" horiz-adv-x="624" 
d="M296 0l45 279l-141 403h79l86 -250q19 -57 25 -81q16 29 46 76l164 255h86l-267 -402l-45 -280h-78zM50 539l59 179l74 -25l-84 -173z" />
    <glyph glyph-name="Omegatonos" unicode="&#x38f;" horiz-adv-x="798" 
d="M115 72h186l2 11q-78 34 -122.5 101.5t-44.5 154.5q0 68 22.5 132t64.5 117t111 84.5t155 31.5q136 0 219.5 -87.5t83.5 -213.5q0 -108 -58 -192.5t-157 -127.5l-2 -11h186l-12 -72h-258l19 118q92 25 146 106t54 178t-63 163.5t-168 66.5q-124 0 -192.5 -87t-68.5 -205
q0 -79 44 -140.5t118 -81.5l-19 -118h-258zM50 539l59 179l74 -25l-84 -173z" />
    <glyph glyph-name="iotadieresistonos" unicode="&#x390;" horiz-adv-x="224" 
d="M57 132l52 333h75l-52 -331q-4 -24 -4 -37q0 -39 40 -39q14 0 24 3l10 -62q-18 -8 -56 -8q-41 0 -67 24.5t-26 76.5q0 17 4 40zM127 577l49 172l76 -26l-74 -166zM17 576l13 84h79l-13 -84h-79zM242 576l13 84h80l-13 -84h-80z" />
    <glyph glyph-name="Alpha" unicode="&#x391;" horiz-adv-x="611" 
d="M496 0l-39 196h-286l-102 -196h-88l376 682h69l151 -682h-81zM325 490l-117 -224h235l-45 224q-4 18 -9 52t-9 52h-2q-8 -17 -53 -104z" />
    <glyph glyph-name="Beta" unicode="&#x392;" horiz-adv-x="519" 
d="M44 0l109 682h129q102 0 153.5 -42.5t51.5 -110.5q0 -62 -34.5 -105.5t-97.5 -60.5v-4q65 -12 96.5 -50t31.5 -92q0 -95 -65 -156t-176 -61h-198zM133 72h115q73 0 113 40t40 105q0 52 -35.5 76t-91.5 24h-101zM184 389h67q65 0 109.5 36t44.5 97q0 47 -35 67.5t-85 20.5
h-66z" />
    <glyph glyph-name="Gamma" unicode="&#x393;" horiz-adv-x="467" 
d="M511 682l-12 -72h-281l-97 -610h-78l109 682h359z" />
    <glyph glyph-name="uni0394" unicode="&#x394;" horiz-adv-x="611" 
d="M-19 0l376 682h69l151 -682h-596zM482 70l-84 420q-4 18 -9 52t-9 52h-2q-29 -60 -53 -104l-219 -420h376z" />
    <glyph glyph-name="Epsilon" unicode="&#x395;" horiz-adv-x="502" 
d="M512 682l-12 -72h-281l-35 -221h271l-11 -72h-271l-39 -245h292l-12 -72h-370l109 682h359z" />
    <glyph glyph-name="Zeta" unicode="&#x396;" horiz-adv-x="577" 
d="M125 610l12 72h466l-11 -69l-469 -541h399l-12 -72h-498l11 68l471 542h-369z" />
    <glyph glyph-name="Eta" unicode="&#x397;" horiz-adv-x="662" 
d="M484 0l51 317h-362l-51 -317h-79l109 682h79l-47 -293h362l47 293h79l-109 -682h-79z" />
    <glyph glyph-name="Theta" unicode="&#x398;" horiz-adv-x="767" 
d="M232 317l10 72h352l-10 -72h-352zM395 46q137 0 212.5 97.5t75.5 228.5q0 107 -67.5 181.5t-175.5 74.5q-74 0 -132 -28t-93.5 -75t-53.5 -104t-18 -119q0 -108 69 -182t183 -74zM397 -26q-153 0 -244.5 94.5t-91.5 233.5q0 75 24 144.5t69 127t119.5 92t166.5 34.5
q146 0 235.5 -95t89.5 -233q0 -74 -23.5 -144t-68 -127.5t-116.5 -92t-160 -34.5z" />
    <glyph glyph-name="Iota" unicode="&#x399;" horiz-adv-x="222" 
d="M44 0l109 682h79l-109 -682h-79z" />
    <glyph glyph-name="Kappa" unicode="&#x39a;" horiz-adv-x="567" 
d="M231 682l-48 -300l333 300h111l-374 -327l302 -355h-98l-282 333l-53 -333h-79l109 682h79z" />
    <glyph glyph-name="Lambda" unicode="&#x39b;" horiz-adv-x="611" 
d="M325 489l-256 -489h-88l376 682h69l151 -682h-81l-98 488q-2 10 -18 106h-2q-17 -35 -53 -105z" />
    <glyph glyph-name="Mu" unicode="&#x39c;" horiz-adv-x="785" 
d="M751 682l-33 -682h-77l24 391q3 54 14 190l-3 1q-18 -35 -48.5 -102t-37.5 -81l-191 -399h-68l-63 409q-18 114 -25 173h-6q-27 -117 -40 -165l-107 -417h-79l186 682h96l72 -438q12 -76 17 -126h4q53 119 56 126l213 438h96z" />
    <glyph glyph-name="Nu" unicode="&#x39d;" horiz-adv-x="644" 
d="M117 0h-74l109 682h75l161 -338q44 -94 103 -226h2q2 14 10.5 75t13.5 95l63 394h74l-109 -682h-74l-160 339q-82 171 -103 228h-3q-19 -139 -26 -178z" />
    <glyph glyph-name="Xi" unicode="&#x39e;" horiz-adv-x="507" 
d="M22 72h430l-12 -72h-430zM521 610h-397l12 72h397zM102 317l11 72h347l-11 -72h-347z" />
    <glyph glyph-name="Omicron" unicode="&#x39f;" horiz-adv-x="767" 
d="M395 50q137 0 212.5 97.5t75.5 228.5q0 107 -67.5 181.5t-175.5 74.5q-74 0 -132 -28t-93.5 -75t-53.5 -104t-18 -119q0 -108 69 -182t183 -74zM397 -22q-153 0 -244.5 94.5t-91.5 233.5q0 75 24 144.5t69 127t119.5 92t166.5 34.5q146 0 235.5 -95t89.5 -233
q0 -74 -23.5 -144t-68 -127.5t-116.5 -92t-160 -34.5z" />
    <glyph glyph-name="Pi" unicode="&#x3a0;" horiz-adv-x="644" 
d="M466 0l97 610h-343l-98 -610h-79l109 682h502l-109 -682h-79z" />
    <glyph glyph-name="Rho" unicode="&#x3a1;" horiz-adv-x="538" 
d="M175 333h114q84 0 132.5 43t48.5 125q0 57 -37 83t-97 26h-117zM44 0l109 682h187q43 0 79 -9.5t67 -29.5t48.5 -57t17.5 -87q0 -112 -74.5 -174.5t-206.5 -62.5h-107l-42 -262h-78z" />
    <glyph glyph-name="Sigma" unicode="&#x3a3;" horiz-adv-x="533" 
d="M374 343l-251 -271h344l-12 -72h-444l10 63l263 287l-156 267l10 65h415l-12 -72h-324z" />
    <glyph glyph-name="Tau" unicode="&#x3a4;" horiz-adv-x="495" 
d="M178 0l97 610h-172l12 72h424l-12 -72h-173l-97 -610h-79z" />
    <glyph glyph-name="Upsilon" unicode="&#x3a5;" horiz-adv-x="511" 
d="M183 0l45 279l-141 403h79l86 -250q19 -57 25 -81q16 29 46 76l164 255h86l-267 -402l-45 -280h-78z" />
    <glyph glyph-name="Phi" unicode="&#x3a6;" horiz-adv-x="743" 
d="M302 -35l15 87q-124 17 -190 89.5t-66 172.5q0 139 99.5 227t247.5 97l13 78h77l-13 -79q118 -16 186.5 -88t68.5 -176q0 -143 -98.5 -226.5t-248.5 -95.5l-13 -86h-78zM398 569q-105 -7 -180.5 -77t-75.5 -178q0 -83 52 -133.5t134 -59.5zM404 120q106 10 180.5 76
t74.5 176q0 80 -51 133.5t-134 62.5z" />
    <glyph glyph-name="Chi" unicode="&#x3a7;" horiz-adv-x="542" 
d="M184 682l87 -188q15 -32 35 -87q47 67 59 83l146 192h92l-260 -329l161 -353h-83l-101 230q-19 44 -28 68q-51 -72 -54 -76l-162 -222h-92l272 356l-156 326h84z" />
    <glyph glyph-name="Psi" unicode="&#x3a8;" horiz-adv-x="718" 
d="M291 0l28 172q-97 9 -161 65t-64 162q0 31 7 71l34 212h79l-36 -229q-4 -24 -4 -50q0 -148 156 -162l70 441h79l-72 -441q93 10 150 65t71 148l36 228h79l-34 -219q-22 -142 -106.5 -212.5t-205.5 -78.5l-28 -172h-78z" />
    <glyph glyph-name="uni03A9" unicode="&#x3a9;" horiz-adv-x="729" 
d="M46 72h186l2 11q-78 34 -122.5 101.5t-44.5 154.5q0 68 22.5 132t64.5 117t111 84.5t155 31.5q136 0 219.5 -87.5t83.5 -213.5q0 -108 -58 -192.5t-157 -127.5l-2 -11h186l-12 -72h-258l19 118q92 25 146 106t54 178t-63 163.5t-168 66.5q-124 0 -192.5 -87t-68.5 -205
q0 -79 44 -140.5t118 -81.5l-19 -118h-258z" />
    <glyph glyph-name="Iotadieresis" unicode="&#x3aa;" horiz-adv-x="222" 
d="M44 0l109 682h79l-109 -682h-79zM76 780l13 81h79l-13 -81h-79zM257 780l13 81h79l-13 -81h-79z" />
    <glyph glyph-name="Upsilondieresis" unicode="&#x3ab;" horiz-adv-x="511" 
d="M183 0l45 279l-141 403h79l86 -250q19 -57 25 -81q16 29 46 76l164 255h86l-267 -402l-45 -280h-78zM208 780l13 81h79l-13 -81h-79zM389 780l13 81h79l-13 -81h-79z" />
    <glyph glyph-name="alphatonos" unicode="&#x3ac;" horiz-adv-x="581" 
d="M498 467h70q-39 -86 -59 -210l-19 -120q-4 -25 -4 -44q0 -36 30 -36q7 0 15 2l9 -61q-19 -8 -49 -8q-69 0 -81 75q-60 -81 -158 -81q-90 0 -147.5 57t-57.5 156q0 21 3 45q15 107 87 171t164 64q58 0 101 -28.5t63 -75.5q12 53 33 94zM128 236q-3 -20 -3 -38
q0 -65 35.5 -106.5t103.5 -41.5q65 0 114.5 53t57.5 128q2 22 2 32q0 64 -36 106.5t-93 42.5q-74 0 -122 -50.5t-59 -125.5zM295 564l59 179l74 -25l-84 -173z" />
    <glyph glyph-name="epsilontonos" unicode="&#x3ad;" horiz-adv-x="440" 
d="M443 419l-47 -56q-52 50 -124 50q-49 0 -80.5 -19t-31.5 -51q0 -31 32.5 -49.5t90.5 -18.5h37l-10 -65h-43q-77 0 -118.5 -23t-41.5 -62q0 -35 30.5 -54.5t81.5 -19.5q75 0 148 53l39 -56q-80 -64 -195 -64q-89 0 -135 39t-46 100q0 54 37.5 86t93.5 38v2
q-34 9 -55.5 34.5t-21.5 61.5q0 60 52 97.5t136 37.5q115 0 171 -61zM244 564l59 179l74 -25l-84 -173z" />
    <glyph glyph-name="etatonos" unicode="&#x3ae;" horiz-adv-x="519" 
d="M39 0l44 276q16 100 16 134q0 28 -5 55h68q7 -27 7 -65v-7h1q57 84 151 84q68 0 113 -40.5t45 -118.5q0 -18 -4 -48l-78 -505h-76l77 489q5 33 5 54q0 46 -25 74t-68 28q-62 0 -103.5 -44t-54.5 -125l-38 -241h-75zM280 564l59 179l74 -25l-84 -173z" />
    <glyph glyph-name="iotatonos" unicode="&#x3af;" horiz-adv-x="224" 
d="M57 132l52 333h75l-52 -331q-4 -24 -4 -37q0 -39 40 -39q14 0 24 3l10 -62q-18 -8 -56 -8q-41 0 -67 24.5t-26 76.5q0 17 4 40zM127 564l59 179l74 -25l-84 -173z" />
    <glyph glyph-name="upsilondieresistonos" unicode="&#x3b0;" horiz-adv-x="518" 
d="M490 302q0 -83 -24.5 -152.5t-82.5 -117.5t-142 -48q-74 0 -126.5 41.5t-52.5 125.5q0 19 5 49l42 265h75l-41 -259q-5 -31 -5 -51q0 -49 30 -76.5t79 -27.5q71 0 118.5 68t47.5 180q0 75 -37 150l71 31q43 -77 43 -178zM265 577l49 172l76 -26l-74 -166zM155 576l13 84
h79l-13 -84h-79zM380 576l13 84h80l-13 -84h-80z" />
    <glyph glyph-name="alpha" unicode="&#x3b1;" horiz-adv-x="581" 
d="M498 467h70q-39 -86 -59 -210l-19 -120q-4 -25 -4 -44q0 -36 30 -36q7 0 15 2l9 -61q-19 -8 -49 -8q-69 0 -81 75q-60 -81 -158 -81q-90 0 -147.5 57t-57.5 156q0 21 3 45q15 107 87 171t164 64q58 0 101 -28.5t63 -75.5q12 53 33 94zM128 236q-3 -20 -3 -38
q0 -65 35.5 -106.5t103.5 -41.5q65 0 114.5 53t57.5 128q2 22 2 32q0 64 -36 106.5t-93 42.5q-74 0 -122 -50.5t-59 -125.5z" />
    <glyph glyph-name="beta" unicode="&#x3b2;" horiz-adv-x="565" 
d="M365 727q87 0 143.5 -51t56.5 -134q0 -79 -45 -125t-108 -58v-2q55 -13 87.5 -53.5t32.5 -103.5q0 -94 -66.5 -155t-170.5 -61q-122 0 -169 84l-48 -303h-76l112 710q19 122 85.5 187t165.5 65zM296 390h15q74 0 125 40t51 112q0 53 -35.5 85.5t-91.5 32.5
q-64 0 -110 -47.5t-61 -138.5l-39 -248q-3 -18 -3 -39q0 -60 41 -98.5t104 -38.5q64 0 112.5 40.5t48.5 109.5q0 61 -45.5 93.5t-121.5 33.5z" />
    <glyph glyph-name="gamma" unicode="&#x3b3;" horiz-adv-x="452" 
d="M471 471q-20 -131 -91.5 -251.5t-161.5 -212.5l-38 -242h-75l37 235l-90 465h75l45 -245q14 -73 22 -141h2q65 69 122.5 173.5t75.5 218.5h77z" />
    <glyph glyph-name="delta" unicode="&#x3b4;" horiz-adv-x="558" 
d="M596 721l-10 -64h-309l156 -186q53 -64 75 -111.5t22 -101.5q0 -121 -77 -197.5t-192 -76.5q-97 0 -155.5 61.5t-58.5 157.5q0 115 78.5 187.5t176.5 72.5q30 0 50 -5l2 2l-177 211l8 50h411zM266 51q81 0 134 58t53 143q0 66 -38.5 107.5t-99.5 41.5q-80 0 -135.5 -55.5
t-55.5 -141.5q0 -70 39 -111.5t103 -41.5z" />
    <glyph glyph-name="epsilon" unicode="&#x3b5;" horiz-adv-x="440" 
d="M443 419l-47 -56q-52 50 -124 50q-49 0 -80.5 -19t-31.5 -51q0 -31 32.5 -49.5t90.5 -18.5h37l-10 -65h-43q-77 0 -118.5 -23t-41.5 -62q0 -35 30.5 -54.5t81.5 -19.5q75 0 148 53l39 -56q-80 -64 -195 -64q-89 0 -135 39t-46 100q0 54 37.5 86t93.5 38v2
q-34 9 -55.5 34.5t-21.5 61.5q0 60 52 97.5t136 37.5q115 0 171 -61z" />
    <glyph glyph-name="zeta" unicode="&#x3b6;" horiz-adv-x="455" 
d="M47 197q0 44 11.5 81.5t38 72t52.5 61t70 64.5l207 181h-291l10 64h387l-10 -58l-287 -264q-56 -52 -83 -98t-27 -99q0 -102 128 -145q31 -10 52 -20t43.5 -26t33.5 -39.5t11 -53.5q0 -55 -41 -106l-63 31q25 37 25 65q0 31 -21 47t-71 33q-175 59 -175 209z" />
    <glyph glyph-name="eta" unicode="&#x3b7;" horiz-adv-x="519" 
d="M39 0l44 276q16 100 16 134q0 28 -5 55h68q7 -27 7 -65v-7h1q57 84 151 84q68 0 113 -40.5t45 -118.5q0 -18 -4 -48l-78 -505h-76l77 489q5 33 5 54q0 46 -25 74t-68 28q-62 0 -103.5 -44t-54.5 -125l-38 -241h-75z" />
    <glyph glyph-name="theta" unicode="&#x3b8;" horiz-adv-x="556" 
d="M65 367q25 166 105.5 263t187.5 97q90 0 142 -76t52 -202q0 -44 -8 -102q-24 -163 -102 -263t-190 -100q-93 0 -144 76.5t-51 204.5q0 44 8 102zM256 51q67 0 124.5 75.5t81.5 201.5h-323q-4 -29 -4 -63q0 -101 33 -157.5t88 -56.5zM351 660q-66 0 -121 -72t-81 -195h323
q3 23 3 50q0 99 -33 158t-91 59z" />
    <glyph glyph-name="iota" unicode="&#x3b9;" horiz-adv-x="224" 
d="M57 132l52 333h75l-52 -331q-4 -24 -4 -37q0 -39 40 -39q14 0 24 3l10 -62q-18 -8 -56 -8q-41 0 -67 24.5t-26 76.5q0 17 4 40z" />
    <glyph glyph-name="kappa" unicode="&#x3ba;" horiz-adv-x="443" 
d="M462 465l-227 -226l200 -239h-95l-189 228l-36 -228h-76l74 465h76l-34 -210l208 210h99z" />
    <glyph glyph-name="lambda" unicode="&#x3bb;" horiz-adv-x="437" 
d="M134 651l-12 65q29 11 57 11q53 0 80 -37.5t39 -102.5l110 -587h-77l-37 212q-14 78 -23 169h-4q-32 -70 -67 -134l-136 -247h-83l267 471l-15 85q-17 100 -67 100q-17 0 -32 -5z" />
    <glyph glyph-name="uni03BC" unicode="&#x3bc;" horiz-adv-x="527" 
d="M360 71h-2q-57 -86 -152 -86q-75 0 -104 63l-2 -1q0 -55 -11 -118l-20 -134h-75l105 668h75l-41 -258q-4 -24 -4 -50q0 -103 92 -103q59 0 98 45t53 127l39 239h75l-50 -308q-7 -53 -7 -66q0 -35 29 -35q5 0 17 2l-10 -65q-11 -3 -27 -3q-40 0 -58 20t-20 63z" />
    <glyph glyph-name="nu" unicode="&#x3bd;" horiz-adv-x="452" 
d="M471 471q-20 -135 -95.5 -256.5t-170.5 -214.5h-60l-93 465h75l48 -246q12 -58 21 -133h2q65 70 121.5 171t74.5 214h77z" />
    <glyph glyph-name="xi" unicode="&#x3be;" horiz-adv-x="457" 
d="M45 182q0 73 50.5 123t129.5 66v2q-43 12 -73.5 52.5t-30.5 96.5q0 100 71.5 152.5t169.5 52.5q94 0 161 -45l-38 -63q-60 41 -125 41q-69 0 -115.5 -39.5t-46.5 -102.5q0 -54 45 -89.5t112 -35.5h75l-11 -65h-81q-92 0 -153.5 -37t-61.5 -104q0 -51 34 -80t98 -50
q31 -10 52 -20t43.5 -26t33.5 -39.5t11 -53.5q0 -55 -41 -106l-63 31q25 37 25 65q0 31 -21 47t-71 33q-86 29 -132.5 74t-46.5 120z" />
    <glyph glyph-name="omicron" unicode="&#x3bf;" horiz-adv-x="558" 
d="M47 202q0 69 28.5 130t91.5 103t149 42q96 0 155 -63t59 -157q0 -70 -30 -131t-93 -101.5t-147 -40.5q-95 0 -154 61t-59 157zM307 410q-77 0 -130 -57.5t-53 -147.5q0 -71 38.5 -112.5t107.5 -41.5q81 0 132 58.5t51 146.5q0 68 -37.5 111t-108.5 43z" />
    <glyph glyph-name="pi" unicode="&#x3c0;" horiz-adv-x="595" 
d="M523 64l8 -63q-22 -8 -56 -8q-46 0 -72.5 24.5t-26.5 73.5q0 21 5 50l41 260h-175l-37 -229q-19 -115 -46 -172h-78q35 69 51 172l36 229q-64 0 -117 -25l-21 58q62 31 153 31h426l-10 -64h-107l-43 -268q-3 -24 -3 -31q0 -42 41 -42q15 0 31 4z" />
    <glyph glyph-name="rho" unicode="&#x3c1;" horiz-adv-x="569" 
d="M-1 -235l76 467q20 121 88 183t169 62q95 0 152 -62t57 -160q0 -21 -3 -42q-17 -108 -89 -168.5t-165 -60.5q-116 0 -161 82h-2l-47 -301h-75zM462 223q2 18 2 31q0 65 -35.5 111.5t-103.5 46.5q-71 0 -118 -49t-59 -130q-4 -24 -4 -41q0 -64 38.5 -103t100.5 -39
q76 0 123 50.5t56 122.5z" />
    <glyph glyph-name="sigma1" unicode="&#x3c2;" horiz-adv-x="455" 
d="M47 199q0 112 74.5 195t190.5 83q98 0 168 -51l-41 -63q-64 48 -131 48q-85 0 -134 -63.5t-49 -146.5q0 -56 33.5 -90t94.5 -54q31 -10 52 -20t43.5 -26t33.5 -39.5t11 -53.5q0 -55 -41 -106l-63 31q25 37 25 65q0 31 -21 47t-71 33q-175 59 -175 211z" />
    <glyph glyph-name="sigma" unicode="&#x3c3;" horiz-adv-x="585" 
d="M594 401h-119v-2q41 -61 41 -143q0 -112 -72 -192t-183 -80q-95 0 -154.5 61t-59.5 159q0 112 79.5 186.5t201.5 74.5h276zM402 401h-77q-85 0 -143 -56t-58 -141q0 -70 39.5 -111.5t100.5 -41.5q77 0 126 60t49 151q0 67 -37 139z" />
    <glyph glyph-name="tau" unicode="&#x3c4;" horiz-adv-x="403" 
d="M180 401h-10q-60 0 -114 -25l-21 58q64 31 152 31h235l-10 -64h-156l-36 -220q-7 -42 -7 -62q0 -32 14 -46.5t49 -14.5q23 0 41 5l9 -61q-30 -8 -68 -8q-120 0 -120 120q0 25 9 77z" />
    <glyph glyph-name="upsilon" unicode="&#x3c5;" horiz-adv-x="518" 
d="M490 302q0 -83 -24.5 -152.5t-82.5 -117.5t-142 -48q-74 0 -126.5 41.5t-52.5 125.5q0 19 5 49l42 265h75l-41 -259q-5 -31 -5 -51q0 -49 30 -76.5t79 -27.5q71 0 118.5 68t47.5 180q0 75 -37 150l71 31q43 -77 43 -178z" />
    <glyph glyph-name="phi" unicode="&#x3c6;" horiz-adv-x="657" 
d="M478 477q69 0 109.5 -50.5t40.5 -130.5q0 -96 -45.5 -167t-112 -105t-144.5 -39l-34 -220h-74l35 221q-88 11 -146 71t-58 151q0 85 31 148t92 125l55 -49q-54 -60 -78 -106t-24 -115q0 -66 38.5 -109t99.5 -51l37 233q15 97 61.5 145t116.5 48zM337 51q94 11 154.5 81
t60.5 166q0 53 -21 82.5t-56 29.5q-36 0 -63.5 -31t-37.5 -93z" />
    <glyph glyph-name="chi" unicode="&#x3c7;" horiz-adv-x="441" 
d="M224 186h3q19 40 39 72l129 207h83l-218 -336l106 -364h-76l-61 223q-13 46 -19 87h-2q-18 -32 -51 -85l-140 -225h-81l238 372l-55 190q-12 42 -23.5 60t-27.5 18q-11 0 -23 -4l-18 64q24 11 52 11q44 0 65.5 -30.5t38.5 -92.5l26 -95q10 -36 15 -72z" />
    <glyph glyph-name="psi" unicode="&#x3c8;" horiz-adv-x="664" 
d="M635 301q0 -137 -78.5 -222t-214.5 -94l-34 -220h-74l35 221q-82 8 -141 62t-59 146q0 24 4 45l36 226h75l-37 -232q-4 -28 -4 -39q0 -63 39.5 -99t96.5 -44l106 670h74l-106 -670q93 10 149.5 80t56.5 171q0 71 -37 147l70 31q43 -76 43 -179z" />
    <glyph glyph-name="omega" unicode="&#x3c9;" horiz-adv-x="802" 
d="M529 -16q-51 0 -90 26.5t-51 74.5q-62 -101 -165 -101q-80 0 -127.5 56.5t-47.5 146.5q0 87 35 157t101 137l55 -49q-59 -66 -85.5 -117.5t-26.5 -125.5q0 -62 27.5 -98t75.5 -36q51 0 88 37.5t49 111.5l16 99h76l-16 -99q-4 -28 -4 -42q0 -52 26 -79.5t69 -27.5
q69 0 114.5 66.5t45.5 165.5q0 77 -45 156l69 38q55 -84 55 -193q0 -139 -68.5 -221.5t-175.5 -82.5z" />
    <glyph glyph-name="iotadieresis" unicode="&#x3ca;" horiz-adv-x="224" 
d="M57 132l52 333h75l-52 -331q-4 -24 -4 -37q0 -39 40 -39q14 0 24 3l10 -62q-18 -8 -56 -8q-41 0 -67 24.5t-26 76.5q0 17 4 40zM45 603l13 84h83l-13 -84h-83zM207 603l13 84h84l-13 -84h-84z" />
    <glyph glyph-name="upsilondieresis" unicode="&#x3cb;" horiz-adv-x="518" 
d="M490 302q0 -83 -24.5 -152.5t-82.5 -117.5t-142 -48q-74 0 -126.5 41.5t-52.5 125.5q0 19 5 49l42 265h75l-41 -259q-5 -31 -5 -51q0 -49 30 -76.5t79 -27.5q71 0 118.5 68t47.5 180q0 75 -37 150l71 31q43 -77 43 -178zM194 603l13 84h83l-13 -84h-83zM356 603l13 84h84
l-13 -84h-84z" />
    <glyph glyph-name="omicrontonos" unicode="&#x3cc;" horiz-adv-x="558" 
d="M47 202q0 69 28.5 130t91.5 103t149 42q96 0 155 -63t59 -157q0 -70 -30 -131t-93 -101.5t-147 -40.5q-95 0 -154 61t-59 157zM307 410q-77 0 -130 -57.5t-53 -147.5q0 -71 38.5 -112.5t107.5 -41.5q81 0 132 58.5t51 146.5q0 68 -37.5 111t-108.5 43zM292 564l59 179
l74 -25l-84 -173z" />
    <glyph glyph-name="upsilontonos" unicode="&#x3cd;" horiz-adv-x="518" 
d="M490 302q0 -83 -24.5 -152.5t-82.5 -117.5t-142 -48q-74 0 -126.5 41.5t-52.5 125.5q0 19 5 49l42 265h75l-41 -259q-5 -31 -5 -51q0 -49 30 -76.5t79 -27.5q71 0 118.5 68t47.5 180q0 75 -37 150l71 31q43 -77 43 -178zM267 564l59 179l74 -25l-84 -173z" />
    <glyph glyph-name="omegatonos" unicode="&#x3ce;" horiz-adv-x="802" 
d="M529 -16q-51 0 -90 26.5t-51 74.5q-62 -101 -165 -101q-80 0 -127.5 56.5t-47.5 146.5q0 87 35 157t101 137l55 -49q-59 -66 -85.5 -117.5t-26.5 -125.5q0 -62 27.5 -98t75.5 -36q51 0 88 37.5t49 111.5l16 99h76l-16 -99q-4 -28 -4 -42q0 -52 26 -79.5t69 -27.5
q69 0 114.5 66.5t45.5 165.5q0 77 -45 156l69 38q55 -84 55 -193q0 -139 -68.5 -221.5t-175.5 -82.5zM415 564l59 179l74 -25l-84 -173z" />
    <glyph glyph-name="uni0400" unicode="&#x400;" horiz-adv-x="502" 
d="M512 682l-12 -72h-281l-35 -221h271l-11 -72h-271l-39 -245h292l-12 -72h-370l109 682h359zM237 817l28 62l160 -92l-23 -50z" />
    <glyph glyph-name="uni0401" unicode="&#x401;" horiz-adv-x="502" 
d="M512 682l-12 -72h-281l-35 -221h271l-11 -72h-271l-39 -245h292l-12 -72h-370l109 682h359zM216 780l13 81h79l-13 -81h-79zM397 780l13 81h79l-13 -81h-79z" />
    <glyph glyph-name="uni0402" unicode="&#x402;" horiz-adv-x="708" 
d="M178 0l97 610h-172l12 72h454l-12 -72h-203l-37 -229h2q69 79 175 79q77 0 130 -55.5t53 -154.5q0 -128 -63 -197.5t-157 -69.5q-46 0 -84 16l22 64q28 -13 63 -13q54 0 95.5 54t41.5 145q0 68 -34 104t-88 36q-66 0 -117 -44t-64 -126l-35 -219h-79z" />
    <glyph glyph-name="uni0403" unicode="&#x403;" horiz-adv-x="467" 
d="M511 682l-12 -72h-281l-97 -610h-78l109 682h359zM452 883l26 -60l-201 -86l-20 49z" />
    <glyph glyph-name="uni0404" unicode="&#x404;" horiz-adv-x="692" 
d="M446 704q178 0 256 -131l-68 -44q-59 105 -191 105q-121 0 -197 -68.5t-99 -176.5h404l-11 -72h-402v-14q0 -111 68.5 -183t172.5 -72q123 0 209 100l56 -53q-106 -117 -266 -117q-147 0 -233.5 92.5t-86.5 229.5q0 111 46.5 202.5t136 146.5t205.5 55z" />
    <glyph glyph-name="uni0405" unicode="&#x405;" horiz-adv-x="524" 
d="M506 579l-73 -31q-34 88 -120 88q-55 0 -87.5 -32t-32.5 -76q0 -39 25.5 -68.5t91.5 -54.5q90 -33 130.5 -84.5t40.5 -130.5q0 -92 -64.5 -151.5t-164.5 -59.5q-172 0 -218 158l78 26q37 -116 144 -116q63 0 104 39.5t41 103.5q0 53 -28 87.5t-102 61.5q-80 30 -119 73.5
t-39 108.5q0 84 57 133.5t145 49.5q138 0 191 -125z" />
    <glyph glyph-name="uni0406" unicode="&#x406;" horiz-adv-x="222" 
d="M44 0l109 682h79l-109 -682h-79z" />
    <glyph glyph-name="uni0407" unicode="&#x407;" horiz-adv-x="222" 
d="M44 0l109 682h79l-109 -682h-79zM76 780l13 81h79l-13 -81h-79zM257 780l13 81h79l-13 -81h-79z" />
    <glyph glyph-name="uni0408" unicode="&#x408;" horiz-adv-x="337" 
d="M88 47q50 0 73.5 27.5t32.5 89.5l81 518h77l-82 -522q-15 -95 -56.5 -139t-128.5 -44q-62 0 -102 25l23 66q36 -21 82 -21z" />
    <glyph glyph-name="uni0409" unicode="&#x409;" horiz-adv-x="870" 
d="M316 484l-250 -484h-85l366 682h69l62 -293h138q102 0 161 -46.5t59 -132.5q0 -104 -77.5 -157t-200.5 -53h-73l-96 479q-7 37 -18 115h-2q-7 -13 -24.5 -51.5t-28.5 -58.5zM606 317h-112l52 -245h18q89 0 139.5 35t50.5 104q0 51 -38 78.5t-110 27.5z" />
    <glyph glyph-name="uni040A" unicode="&#x40a;" horiz-adv-x="926" 
d="M526 389l47 293h79l-47 -293h67q102 0 161 -46.5t59 -132.5q0 -104 -77.5 -157t-200.5 -53h-150l50 317h-341l-51 -317h-79l109 682h79l-47 -293h342zM554 72h66q89 0 139.5 35t50.5 104q0 51 -38 78.5t-110 27.5h-69z" />
    <glyph glyph-name="uni040B" unicode="&#x40b;" horiz-adv-x="708" 
d="M628 0h-79l35 216q5 35 5 53q0 56 -31.5 88t-85.5 32q-67 0 -117.5 -45t-62.5 -124l-35 -220h-79l97 610h-172l12 72h454l-12 -72h-203l-37 -229h2q69 79 172 79q75 0 126.5 -49t51.5 -132q0 -22 -6 -62z" />
    <glyph glyph-name="uni040C" unicode="&#x40c;" horiz-adv-x="567" 
d="M231 682l-48 -297h51q64 0 116 90l56 95q70 120 158 120q33 0 59 -11l-21 -68q-20 6 -33 6q-28 0 -51 -20t-51 -67l-43 -74q-50 -86 -101 -112l227 -344h-93l-206 317h-79l-50 -317h-79l109 682h79zM492 883l26 -60l-201 -86l-20 49z" />
    <glyph glyph-name="uni040D" unicode="&#x40d;" horiz-adv-x="644" 
d="M560 553h-2q-32 -47 -173 -223l-265 -330h-77l109 682h74l-65 -407q-20 -120 -25 -145h2q45 62 172 221l266 331h78l-109 -682h-74l65 408q21 130 24 145zM289 817l28 62l160 -92l-23 -50z" />
    <glyph glyph-name="uni040E" unicode="&#x40e;" horiz-adv-x="553" 
d="M631 682l-340 -575q-37 -63 -75.5 -92.5t-94.5 -29.5q-36 0 -58 11l19 67q18 -8 40 -8q52 0 100 81l25 43l-165 503h78l105 -331q17 -52 30 -108h3q38 73 59 110l189 329h85zM448 874h68q-7 -60 -50.5 -96t-110.5 -36q-65 0 -102.5 30t-37.5 82q0 10 2 20h66
q-2 -10 -2 -18q0 -56 75 -56q82 0 92 74z" />
    <glyph glyph-name="uni040F" unicode="&#x40f;" horiz-adv-x="644" 
d="M231 682l-97 -610h343l98 610h79l-109 -682h-212l-27 -170h-76l27 170h-214l109 682h79z" />
    <glyph glyph-name="uni0410" unicode="&#x410;" horiz-adv-x="611" 
d="M496 0l-39 196h-286l-102 -196h-88l376 682h69l151 -682h-81zM325 490l-117 -224h235l-45 224q-4 18 -9 52t-9 52h-2q-8 -17 -53 -104z" />
    <glyph glyph-name="uni0411" unicode="&#x411;" horiz-adv-x="539" 
d="M534 682l-12 -72h-304l-35 -217h102q102 0 161 -46t59 -132q0 -108 -77.5 -161.5t-200.5 -53.5h-184l109 682h382zM133 72h100q90 0 140 36t50 108q0 50 -38 77.5t-110 27.5h-103z" />
    <glyph glyph-name="uni0412" unicode="&#x412;" horiz-adv-x="519" 
d="M44 0l109 682h129q102 0 153.5 -42.5t51.5 -110.5q0 -62 -34.5 -105.5t-97.5 -60.5v-4q65 -12 96.5 -50t31.5 -92q0 -95 -65 -156t-176 -61h-198zM133 72h115q73 0 113 40t40 105q0 52 -35.5 76t-91.5 24h-101zM184 389h67q65 0 109.5 36t44.5 97q0 47 -35 67.5t-85 20.5
h-66z" />
    <glyph glyph-name="uni0413" unicode="&#x413;" horiz-adv-x="467" 
d="M511 682l-12 -72h-281l-97 -610h-78l109 682h359z" />
    <glyph glyph-name="uni0414" unicode="&#x414;" horiz-adv-x="648" 
d="M624 76l-39 -246h-76l27 170h-480l-27 -170h-75l39 246h51l325 606h73l125 -606h57zM339 486l-211 -410h362l-78 408q-8 40 -18 110h-2q-43 -89 -53 -108z" />
    <glyph glyph-name="uni0415" unicode="&#x415;" horiz-adv-x="502" 
d="M512 682l-12 -72h-281l-35 -221h271l-11 -72h-271l-39 -245h292l-12 -72h-370l109 682h359z" />
    <glyph glyph-name="uni0416" unicode="&#x416;" horiz-adv-x="867" 
d="M425 385l47 297h77l-47 -297h52q67 0 112 92l49 98q57 115 154 115q32 0 58 -11l-24 -68q-18 6 -30 6q-56 0 -96 -79l-39 -79q-42 -85 -103 -116l192 -343h-88l-176 322h-71l-50 -322h-78l51 322h-68l-272 -322h-97l300 348q-44 29 -61 114l-15 74q-17 81 -65 81
q-14 0 -34 -6l-14 68q29 11 57 11q97 0 123 -122l19 -91q10 -46 29 -69t56 -23h52z" />
    <glyph glyph-name="uni0417" unicode="&#x417;" horiz-adv-x="519" 
d="M170 536l-60 44q80 124 217 124q85 0 136 -47t51 -120q0 -75 -40.5 -120t-105.5 -61v-2q51 -12 82.5 -51.5t31.5 -102.5q0 -96 -66 -159t-185 -63q-79 0 -136.5 36t-79.5 106l69 30q41 -98 147 -98q79 0 124.5 43t45.5 107q0 51 -38 82t-112 31h-83l11 72h72
q79 0 130 37.5t51 104.5q0 44 -29.5 72.5t-78.5 28.5q-89 0 -154 -94z" />
    <glyph glyph-name="uni0418" unicode="&#x418;" horiz-adv-x="644" 
d="M560 553h-2q-32 -47 -173 -223l-265 -330h-77l109 682h74l-65 -407q-20 -120 -25 -145h2q45 62 172 221l266 331h78l-109 -682h-74l65 408q21 130 24 145z" />
    <glyph glyph-name="uni0419" unicode="&#x419;" horiz-adv-x="644" 
d="M560 553h-2q-32 -47 -173 -223l-265 -330h-77l109 682h74l-65 -407q-20 -120 -25 -145h2q45 62 172 221l266 331h78l-109 -682h-74l65 408q21 130 24 145zM501 874h68q-7 -60 -50.5 -96t-110.5 -36q-65 0 -102.5 30t-37.5 82q0 10 2 20h66q-2 -10 -2 -18q0 -56 75 -56
q82 0 92 74z" />
    <glyph glyph-name="uni041A" unicode="&#x41a;" horiz-adv-x="567" 
d="M231 682l-48 -297h51q64 0 116 90l56 95q70 120 158 120q33 0 59 -11l-21 -68q-20 6 -33 6q-28 0 -51 -20t-51 -67l-43 -74q-50 -86 -101 -112l227 -344h-93l-206 317h-79l-50 -317h-79l109 682h79z" />
    <glyph glyph-name="uni041B" unicode="&#x41b;" horiz-adv-x="611" 
d="M325 489l-256 -489h-88l376 682h69l151 -682h-81l-98 488q-2 10 -18 106h-2q-17 -35 -53 -105z" />
    <glyph glyph-name="uni041C" unicode="&#x41c;" horiz-adv-x="785" 
d="M751 682l-33 -682h-77l24 391q3 54 14 190l-3 1q-18 -35 -48.5 -102t-37.5 -81l-191 -399h-68l-63 409q-18 114 -25 173h-6q-27 -117 -40 -165l-107 -417h-79l186 682h96l72 -438q12 -76 17 -126h4q53 119 56 126l213 438h96z" />
    <glyph glyph-name="uni041D" unicode="&#x41d;" horiz-adv-x="662" 
d="M484 0l51 317h-362l-51 -317h-79l109 682h79l-47 -293h362l47 293h79l-109 -682h-79z" />
    <glyph glyph-name="uni041E" unicode="&#x41e;" horiz-adv-x="767" 
d="M395 50q137 0 212.5 97.5t75.5 228.5q0 107 -67.5 181.5t-175.5 74.5q-74 0 -132 -28t-93.5 -75t-53.5 -104t-18 -119q0 -108 69 -182t183 -74zM397 -22q-153 0 -244.5 94.5t-91.5 233.5q0 75 24 144.5t69 127t119.5 92t166.5 34.5q146 0 235.5 -95t89.5 -233
q0 -74 -23.5 -144t-68 -127.5t-116.5 -92t-160 -34.5z" />
    <glyph glyph-name="uni041F" unicode="&#x41f;" horiz-adv-x="644" 
d="M466 0l97 610h-343l-98 -610h-79l109 682h502l-109 -682h-79z" />
    <glyph glyph-name="uni0420" unicode="&#x420;" horiz-adv-x="538" 
d="M175 333h114q84 0 132.5 43t48.5 125q0 57 -37 83t-97 26h-117zM44 0l109 682h187q43 0 79 -9.5t67 -29.5t48.5 -57t17.5 -87q0 -112 -74.5 -174.5t-206.5 -62.5h-107l-42 -262h-78z" />
    <glyph glyph-name="uni0421" unicode="&#x421;" horiz-adv-x="692" 
d="M446 704q178 0 256 -131l-68 -44q-59 105 -191 105q-98 0 -168.5 -47.5t-102.5 -121t-32 -162.5q0 -112 67.5 -183.5t171.5 -71.5q123 0 209 100l56 -53q-106 -117 -266 -117q-147 0 -233.5 92.5t-86.5 229.5q0 111 46.5 202.5t136 146.5t205.5 55z" />
    <glyph glyph-name="uni0422" unicode="&#x422;" horiz-adv-x="495" 
d="M178 0l97 610h-172l12 72h424l-12 -72h-173l-97 -610h-79z" />
    <glyph glyph-name="uni0423" unicode="&#x423;" horiz-adv-x="553" 
d="M631 682l-340 -575q-37 -63 -75.5 -92.5t-94.5 -29.5q-36 0 -58 11l19 67q18 -8 40 -8q52 0 100 81l25 43l-165 503h78l105 -331q17 -52 30 -108h3q38 73 59 110l189 329h85z" />
    <glyph glyph-name="uni0424" unicode="&#x424;" horiz-adv-x="743" 
d="M302 -35l15 87q-124 17 -190 89.5t-66 172.5q0 139 99.5 227t247.5 97l13 78h77l-13 -79q118 -16 186.5 -88t68.5 -176q0 -143 -98.5 -226.5t-248.5 -95.5l-13 -86h-78zM398 569q-105 -7 -180.5 -77t-75.5 -178q0 -83 52 -133.5t134 -59.5zM404 120q106 10 180.5 76
t74.5 176q0 80 -51 133.5t-134 62.5z" />
    <glyph glyph-name="uni0425" unicode="&#x425;" horiz-adv-x="542" 
d="M184 682l87 -188q15 -32 35 -87q47 67 59 83l146 192h92l-260 -329l161 -353h-83l-101 230q-19 44 -28 68q-51 -72 -54 -76l-162 -222h-92l272 356l-156 326h84z" />
    <glyph glyph-name="uni0426" unicode="&#x426;" horiz-adv-x="655" 
d="M476 72l98 610h79l-98 -610h72l-37 -242h-77l27 170h-497l109 682h79l-97 -610h342z" />
    <glyph glyph-name="uni0427" unicode="&#x427;" horiz-adv-x="585" 
d="M486 0h-79l47 291h-3q-66 -79 -174 -79q-79 0 -131.5 44t-52.5 130q0 18 5 50l39 246h79l-38 -241q-5 -28 -5 -48q0 -53 32.5 -81.5t90.5 -28.5q69 0 120 47.5t64 129.5l36 222h79z" />
    <glyph glyph-name="uni0428" unicode="&#x428;" horiz-adv-x="908" 
d="M43 0l109 682h79l-97 -610h266l97 610h79l-97 -610h263l97 610h79l-109 -682h-766z" />
    <glyph glyph-name="uni0429" unicode="&#x429;" horiz-adv-x="920" 
d="M43 0l109 682h79l-97 -610h266l97 610h79l-97 -610h263l97 610h79l-98 -610h72l-37 -242h-77l27 170h-762z" />
    <glyph glyph-name="uni042A" unicode="&#x42a;" horiz-adv-x="665" 
d="M178 0l98 610h-173l12 72h251l-47 -289h92q102 0 161 -46t59 -132q0 -108 -77.5 -161.5t-200.5 -53.5h-175zM401 321h-93l-40 -249h91q90 0 140 36t50 108q0 50 -38 77.5t-110 27.5z" />
    <glyph glyph-name="uni042B" unicode="&#x42b;" horiz-adv-x="757" 
d="M152 682h79l-47 -289h97q102 0 161 -46t59 -132q0 -108 -77.5 -161.5t-200.5 -53.5h-180zM133 72h96q90 0 140 36t50 108q0 50 -38 77.5t-110 27.5h-98zM579 0l109 682h79l-109 -682h-79z" />
    <glyph glyph-name="uni042C" unicode="&#x42c;" horiz-adv-x="540" 
d="M152 682h79l-47 -289h102q102 0 161 -46t59 -132q0 -108 -77.5 -161.5t-200.5 -53.5h-185zM133 72h101q90 0 140 36t50 108q0 50 -38 77.5t-110 27.5h-103z" />
    <glyph glyph-name="uni042D" unicode="&#x42d;" horiz-adv-x="692" 
d="M299 -22q-178 0 -256 131l66 44q59 -105 191 -105q121 0 204 76.5t98 192.5h-404l11 72h398q0 101 -69.5 173t-171.5 72q-123 0 -209 -100l-55 53q106 117 266 117q147 0 233 -92.5t86 -229.5q0 -172 -105 -288t-283 -116z" />
    <glyph glyph-name="uni042E" unicode="&#x42e;" horiz-adv-x="978" 
d="M618 -22q-149 0 -237.5 94.5t-88.5 233.5v11h-119l-51 -317h-79l109 682h79l-47 -293h115q16 86 59 155t121.5 114.5t180.5 45.5q142 0 229 -95t87 -233q0 -74 -23 -144t-66 -127.5t-113 -92t-156 -34.5zM617 50q89 0 154 49t94 121.5t29 155.5q0 107 -64.5 181.5
t-169.5 74.5q-93 0 -160 -49t-96.5 -121t-29.5 -156q0 -108 66.5 -182t176.5 -74z" />
    <glyph glyph-name="uni042F" unicode="&#x42f;" horiz-adv-x="543" 
d="M-20 0l251 303q-54 17 -88 59t-34 108q0 96 72.5 154t176.5 58h195l-109 -682h-79l46 287h-96l-236 -287h-99zM462 610h-107q-69 0 -116.5 -37t-47.5 -103q0 -50 36.5 -80.5t96.5 -30.5h99z" />
    <glyph glyph-name="uni0430" unicode="&#x430;" horiz-adv-x="575" 
d="M555 465l-73 -465h-76l9 53h-2q-57 -69 -161 -69q-90 0 -147.5 56.5t-57.5 156.5q0 118 72.5 199t185.5 81q50 0 93.5 -22t67.5 -61h2l11 71h76zM310 412q-81 0 -133 -61t-52 -156q0 -66 37.5 -105.5t100.5 -39.5q89 0 138.5 64t49.5 151q0 67 -38 107t-103 40z" />
    <glyph glyph-name="uni0431" unicode="&#x431;" horiz-adv-x="555" 
d="M572 659l-175 -40q-161 -37 -229 -211l2 -1q69 63 167 63q83 0 137 -60.5t54 -152.5q0 -116 -75.5 -194.5t-189.5 -78.5q-93 0 -153 61.5t-60 166.5q0 85 29.5 173t83.5 159q81 106 215 138l181 42zM314 403q-77 0 -132.5 -57.5t-55.5 -137.5q0 -69 37.5 -113t102.5 -44
q80 0 132.5 56.5t52.5 148.5q0 64 -37.5 105.5t-99.5 41.5z" />
    <glyph glyph-name="uni0432" unicode="&#x432;" horiz-adv-x="505" 
d="M47 202q0 69 29 130t92.5 103t150.5 42q77 0 124 -36.5t47 -89.5q0 -47 -29.5 -75t-73.5 -36v-2q40 -9 62 -36t22 -67q0 -66 -57 -108.5t-154 -42.5q-95 0 -154 61t-59 157zM271 208h-149v-3q0 -70 39 -112t109 -42q53 0 88.5 22.5t35.5 62.5q0 33 -32 52.5t-91 19.5z
M311 410q-65 0 -114 -38.5t-67 -102.5h145q138 0 138 75q0 31 -28 48.5t-74 17.5z" />
    <glyph glyph-name="uni0433" unicode="&#x433;" horiz-adv-x="394" 
d="M150 367l-56 41q20 31 57.5 50t86.5 19q61 0 101.5 -33.5t40.5 -89.5q0 -58 -40 -95t-105 -52q-32 -8 -51.5 -14t-39.5 -16.5t-29.5 -25.5t-9.5 -35q0 -30 24 -49.5t60 -19.5q61 0 101 54l50 -47q-60 -70 -154 -70q-67 0 -111 36t-44 93q0 60 43 98.5t137 60.5
q95 23 95 82q0 25 -20 43t-51 18q-53 0 -85 -48z" />
    <glyph glyph-name="uni0434" unicode="&#x434;" horiz-adv-x="562" 
d="M209 611l-47 49q67 67 166 67q61 0 106 -25t69 -68.5t35 -91.5t11 -103q0 -244 -83 -354q-77 -101 -204 -101q-89 0 -152 58.5t-63 161.5q0 119 78 195.5t185 76.5q106 0 163 -85l2 1q1 19 1 48q0 96 -38.5 159t-114.5 63q-63 0 -114 -51zM266 51q81 0 133 63.5t52 145.5
q0 66 -38.5 107.5t-99.5 41.5q-81 0 -135 -59t-54 -146q0 -70 40 -111.5t102 -41.5z" />
    <glyph glyph-name="uni0435" unicode="&#x435;" horiz-adv-x="525" 
d="M305 477q78 0 135 -51t57 -146q0 -40 -8 -69h-365q-2 -16 -2 -24q0 -59 36 -98.5t95 -39.5q45 0 80.5 19t67.5 66l58 -43q-43 -59 -92.5 -83t-119.5 -24q-90 0 -144.5 58.5t-54.5 152.5q0 115 73 198.5t184 83.5zM301 413q-62 0 -106 -37.5t-60 -103.5h288v12
q0 58 -32 93.5t-90 35.5z" />
    <glyph glyph-name="uni0436" unicode="&#x436;" horiz-adv-x="678" 
d="M634 61l15 -60q-28 -13 -63 -13q-65 0 -101.5 55t-36.5 146q0 15 1 24h-73l-33 -213h-71l34 213h-71q-16 -94 -75 -159.5t-144 -65.5q-21 0 -34 4l12 64q14 -2 23 -2q65 0 108.5 68.5t43.5 146.5q0 60 -19.5 98.5t-51.5 38.5q-23 0 -44 -7l-16 60q35 13 64 13
q64 0 101 -56.5t37 -145.5h74l31 195h71l-31 -195h73q21 86 78 144t136 58q21 0 34 -4l-12 -64q-14 2 -23 2q-65 0 -108.5 -68.5t-43.5 -147.5q0 -60 19.5 -98t51.5 -38q23 0 44 7z" />
    <glyph glyph-name="uni0437" unicode="&#x437;" horiz-adv-x="440" 
d="M114 365l-40 57q73 58 184 58q77 0 122 -34.5t45 -86.5q0 -50 -31.5 -78.5t-78.5 -36.5v-2q40 -8 63 -34.5t23 -69.5q0 -68 -57 -111t-161 -43q-116 0 -177 64l44 57q59 -54 133 -54q63 0 101.5 23.5t38.5 64.5q0 70 -123 70h-83l10 64h77q65 0 104 21t39 58
q0 28 -26.5 44.5t-68.5 16.5q-76 0 -138 -48z" />
    <glyph glyph-name="uni0438" unicode="&#x438;" horiz-adv-x="509" 
d="M415 0h-76l9 53h-2q-54 -69 -137 -69q-59 0 -103 39.5t-44 119.5q0 25 4 51l43 271h75l-42 -266q-4 -30 -4 -46q0 -102 90 -102q62 0 98.5 49t47.5 119l39 246h76z" />
    <glyph glyph-name="uni0439" unicode="&#x439;" horiz-adv-x="509" 
d="M415 0h-76l9 53h-2q-54 -69 -137 -69q-59 0 -103 39.5t-44 119.5q0 25 4 51l43 271h75l-42 -266q-4 -30 -4 -46q0 -102 90 -102q62 0 98.5 49t47.5 119l39 246h76zM430 716h62q-29 -75 -77 -116t-108 -41q-51 0 -83 28.5t-32 75.5q0 22 9 43h62q-8 -20 -8 -38
q0 -26 15.5 -39t39.5 -13q33 0 65.5 26t54.5 74z" />
    <glyph glyph-name="uni043A" unicode="&#x43a;" horiz-adv-x="443" 
d="M471 466l-16 -65q-10 2 -15 2q-23 0 -40 -15.5t-43 -58.5q-45 -75 -98 -99l169 -230h-88l-149 205h-44l-33 -205h-75l74 465h75l-32 -199h26q33 0 57 19.5t54 71.5q34 58 65 86.5t76 28.5q19 0 37 -6z" />
    <glyph glyph-name="uni043B" unicode="&#x43b;" horiz-adv-x="432" 
d="M-20 0l254 470h69l105 -470h-76l-52 250q-13 61 -21 130h-4q-30 -67 -62 -129l-132 -251h-81z" />
    <glyph glyph-name="uni043C" unicode="&#x43c;" horiz-adv-x="625" 
d="M570 465l-6 -465h-76l9 250l9 131h-3l-51 -111l-128 -270h-71l-59 381h-3l-31 -130l-71 -251h-74l136 465h96l44 -274l10 -94h3l38 92l132 276h96z" />
    <glyph glyph-name="uni043D" unicode="&#x43d;" horiz-adv-x="532" 
d="M362 0l33 209h-247l-33 -209h-75l73 465h75l-30 -192h247l30 192h75l-73 -465h-75z" />
    <glyph glyph-name="uni043E" unicode="&#x43e;" horiz-adv-x="558" 
d="M47 202q0 69 28.5 130t91.5 103t149 42q96 0 155 -63t59 -157q0 -70 -30 -131t-93 -101.5t-147 -40.5q-95 0 -154 61t-59 157zM307 410q-77 0 -130 -57.5t-53 -147.5q0 -71 38.5 -112.5t107.5 -41.5q81 0 132 58.5t51 146.5q0 68 -37.5 111t-108.5 43z" />
    <glyph glyph-name="uni043F" unicode="&#x43f;" horiz-adv-x="519" 
d="M39 0l74 465h75l-9 -57h2q54 69 138 69q74 0 117 -43t43 -113q0 -24 -4 -52l-42 -269h-75l41 261q4 28 4 48q0 45 -25 73t-70 28q-61 0 -102.5 -45.5t-53.5 -121.5l-38 -243h-75z" />
    <glyph glyph-name="uni0440" unicode="&#x440;" horiz-adv-x="575" 
d="M2 -235l111 700h75l-10 -64h1q62 76 168 76q91 0 145.5 -58.5t54.5 -149.5q0 -121 -73.5 -203t-185.5 -82t-163 81h-1l-47 -300h-75zM289 50q80 0 130.5 63t50.5 153q0 65 -36.5 105.5t-101.5 40.5q-82 0 -133.5 -67t-51.5 -155q0 -59 37 -99.5t105 -40.5z" />
    <glyph glyph-name="uni0441" unicode="&#x441;" horiz-adv-x="491" 
d="M311 477q132 0 182 -111l-67 -36q-33 81 -116 81q-88 0 -136.5 -64t-48.5 -152q0 -63 36.5 -104t98.5 -41q77 0 128 68l55 -45q-71 -89 -187 -89q-92 0 -150.5 58t-58.5 160q0 111 75.5 193t188.5 82z" />
    <glyph glyph-name="uni0442" unicode="&#x442;" horiz-adv-x="803" 
d="M39 0l74 465h74l-11 -64h1q50 76 140 76q49 0 84.5 -26.5t47.5 -71.5q25 42 68 70t99 28q68 0 108 -44t40 -112q0 -28 -4 -52l-42 -269h-75l42 269q4 22 4 41q0 45 -22 72.5t-66 27.5q-56 0 -94.5 -39.5t-50.5 -114.5l-40 -256h-76l42 266q4 22 4 44q0 45 -21.5 72.5
t-65.5 27.5q-58 0 -96 -43t-49 -111l-41 -256h-74z" />
    <glyph glyph-name="uni0443" unicode="&#x443;" horiz-adv-x="429" 
d="M458 465l-359 -700h-78l125 241l-104 459h77l57 -269q15 -71 18 -100h2l181 369h81z" />
    <glyph glyph-name="uni0444" unicode="&#x444;" horiz-adv-x="645" 
d="M48 210q0 118 79.5 193.5t207.5 80.5l37 237h75l-38 -237q94 -13 150.5 -74t56.5 -152q0 -116 -80 -193t-207 -81l-34 -219h-75l36 220q-94 13 -151 73.5t-57 151.5zM325 420q-86 -6 -143.5 -63t-57.5 -148q0 -66 38.5 -108.5t103.5 -50.5zM540 259q0 66 -38.5 109
t-102.5 51l-60 -370q87 7 144 63t57 147z" />
    <glyph glyph-name="uni0445" unicode="&#x445;" horiz-adv-x="447" 
d="M-6 0l201 239l-118 226h81l52 -105q19 -37 30 -73q29 44 51 72l83 106h90l-190 -226l128 -239h-83l-64 127q-15 30 -27 60q-17 -27 -50 -67l-94 -120h-90z" />
    <glyph glyph-name="uni0446" unicode="&#x446;" horiz-adv-x="529" 
d="M489 465l-50 -314q-6 -36 -6 -58q0 -17 8.5 -26.5t21.5 -9.5q20 0 36 7l-34 -214h-75l24 143q-51 12 -57 70h-2q-60 -79 -146 -79q-59 0 -103 39.5t-44 119.5q0 25 4 51l43 271h75l-42 -266q-4 -30 -4 -46q0 -102 90 -102q62 0 98.5 49t47.5 119l39 246h76z" />
    <glyph glyph-name="uni0447" unicode="&#x447;" horiz-adv-x="506" 
d="M486 465l-74 -465h-76l33 203h-1q-57 -70 -143 -70q-65 0 -109 40.5t-44 118.5q0 29 4 53l20 120h75l-19 -116q-4 -25 -4 -47q0 -48 23 -75t67 -27q58 0 101 43t55 122l16 100h76z" />
    <glyph glyph-name="uni0448" unicode="&#x448;" horiz-adv-x="807" 
d="M787 465l-74 -465h-74l11 64h-1q-50 -76 -140 -76q-49 0 -84.5 26.5t-47.5 71.5q-25 -42 -68 -70t-99 -28q-68 0 -108 44t-40 112q0 28 4 52l42 269h75l-42 -269q-4 -22 -4 -41q0 -45 22 -72.5t66 -27.5q56 0 94.5 39.5t50.5 114.5l40 256h76l-42 -266q-4 -22 -4 -44
q0 -45 21.5 -72.5t65.5 -27.5q58 0 96 43t49 111l41 256h74z" />
    <glyph glyph-name="uni0449" unicode="&#x449;" horiz-adv-x="827" 
d="M654 63q-55 -75 -145 -75q-49 0 -84.5 26.5t-47.5 71.5q-25 -42 -68 -70t-99 -28q-68 0 -108 44t-40 112q0 28 4 52l42 269h75l-42 -269q-4 -22 -4 -41q0 -45 22 -72.5t66 -27.5q56 0 94.5 39.5t50.5 114.5l40 256h76l-42 -266q-4 -22 -4 -44q0 -45 21.5 -72.5
t65.5 -27.5q58 0 96 43t49 111l41 256h74l-50 -314q-6 -36 -6 -58q0 -17 8.5 -26.5t21.5 -9.5q20 0 36 7l-34 -214h-75l24 143q-23 5 -38.5 23.5t-18.5 46.5h-1z" />
    <glyph glyph-name="uni044A" unicode="&#x44a;" horiz-adv-x="533" 
d="M249 292h85q82 0 124 -40.5t42 -100.5q0 -71 -50 -119t-135 -48q-76 0 -118 42.5t-42 118.5q0 26 4 49l34 207h-142l11 64h215zM327 228h-88l-6 -39q-3 -18 -3 -38q0 -47 22.5 -74t64.5 -27q49 0 77.5 28.5t28.5 69.5q0 35 -23.5 57.5t-72.5 22.5z" />
    <glyph glyph-name="uni044B" unicode="&#x44b;" horiz-adv-x="629" 
d="M234 228h-88l-6 -39q-3 -18 -3 -38q0 -47 22.5 -74t64.5 -27q49 0 77.5 28.5t28.5 69.5q0 35 -23.5 57.5t-72.5 22.5zM156 292h85q82 0 124 -40.5t42 -100.5q0 -71 -50 -119t-135 -48q-76 0 -118 42.5t-42 118.5q0 26 4 49l43 271h74zM533 465h75l-73 -465h-75z" />
    <glyph glyph-name="uni044C" unicode="&#x44c;" horiz-adv-x="445" 
d="M239 228h-93l-6 -39q-3 -18 -3 -38q0 -47 24 -74t67 -27q49 0 78 28.5t29 69.5q0 35 -23.5 57.5t-72.5 22.5zM156 292h90q82 0 124 -40.5t42 -100.5q0 -71 -50.5 -119t-135.5 -48q-76 0 -120 43t-44 118q0 26 4 49l43 271h74z" />
    <glyph glyph-name="uni044D" unicode="&#x44d;" horiz-adv-x="491" 
d="M135 211l11 61h244q-1 63 -39.5 101.5t-97.5 38.5q-80 0 -131 -68l-52 44q71 89 186 89q89 0 149.5 -58.5t60.5 -159.5q0 -113 -74 -194t-188 -81q-134 0 -184 111l63 34q35 -81 121 -81q71 0 119.5 46t61.5 117h-250z" />
    <glyph glyph-name="uni044E" unicode="&#x44e;" horiz-adv-x="749" 
d="M253 202v7h-105l-33 -209h-75l73 465h75l-30 -192h103q21 87 86.5 145.5t166.5 58.5q93 0 150 -63t57 -157q0 -110 -70.5 -191.5t-190.5 -81.5q-92 0 -149.5 61t-57.5 157zM505 410q-73 0 -124 -57.5t-51 -147.5q0 -71 36.5 -112.5t102.5 -41.5q76 0 125.5 59t49.5 146
q0 68 -36 111t-103 43z" />
    <glyph glyph-name="uni044F" unicode="&#x44f;" horiz-adv-x="455" 
d="M315 174h-95l-147 -174h-93l167 194q-77 36 -77 118q0 71 54 112t152 41h159l-73 -465h-75zM247 238h78l25 163h-81q-57 0 -89.5 -23.5t-32.5 -64.5q0 -33 26 -54t74 -21z" />
    <glyph glyph-name="uni0450" unicode="&#x450;" horiz-adv-x="525" 
d="M305 477q78 0 135 -51t57 -146q0 -40 -8 -69h-365q-2 -16 -2 -24q0 -59 36 -98.5t95 -39.5q45 0 80.5 19t67.5 66l58 -43q-43 -59 -92.5 -83t-119.5 -24q-90 0 -144.5 58.5t-54.5 152.5q0 115 73 198.5t184 83.5zM301 413q-62 0 -106 -37.5t-60 -103.5h288v12
q0 58 -32 93.5t-90 35.5zM229 674l61 46l103 -150l-45 -33z" />
    <glyph glyph-name="uni0451" unicode="&#x451;" horiz-adv-x="525" 
d="M305 477q78 0 135 -51t57 -146q0 -40 -8 -69h-365q-2 -16 -2 -24q0 -59 36 -98.5t95 -39.5q45 0 80.5 19t67.5 66l58 -43q-43 -59 -92.5 -83t-119.5 -24q-90 0 -144.5 58.5t-54.5 152.5q0 115 73 198.5t184 83.5zM301 413q-62 0 -106 -37.5t-60 -103.5h288v12
q0 58 -32 93.5t-90 35.5zM202 581l13 84h83l-13 -84h-83zM364 581l13 84h84l-13 -84h-84z" />
    <glyph glyph-name="uni0452" unicode="&#x452;" horiz-adv-x="519" 
d="M357 579h-151l-27 -171h2q55 69 138 69q75 0 117.5 -41t42.5 -115q0 -23 -7 -69l-49 -311q-16 -99 -55.5 -141.5t-114.5 -42.5q-47 0 -86 14l18 64q31 -11 68 -11q78 0 96 116l48 307q6 36 6 62q0 101 -92 101q-66 0 -106.5 -47.5t-51.5 -119.5l-39 -243h-75l92 579h-72
l9 56h72l13 86h75l-13 -86h151z" />
    <glyph glyph-name="uni0453" unicode="&#x453;" horiz-adv-x="394" 
d="M150 367l-56 41q20 31 57.5 50t86.5 19q61 0 101.5 -33.5t40.5 -89.5q0 -58 -40 -95t-105 -52q-32 -8 -51.5 -14t-39.5 -16.5t-29.5 -25.5t-9.5 -35q0 -30 24 -49.5t60 -19.5q61 0 101 54l50 -47q-60 -70 -154 -70q-67 0 -111 36t-44 93q0 60 43 98.5t137 60.5
q95 23 95 82q0 25 -20 43t-51 18q-53 0 -85 -48zM210 578l151 150l48 -54l-161 -137z" />
    <glyph glyph-name="uni0454" unicode="&#x454;" horiz-adv-x="491" 
d="M309 477q134 0 184 -111l-65 -35q-34 82 -120 82q-67 0 -112.5 -39t-63.5 -102h246l-10 -61h-246v-16q0 -67 37.5 -106.5t99.5 -39.5q80 0 131 68l53 -44q-71 -89 -186 -89q-91 0 -150.5 57t-59.5 159q0 111 74 194t188 83z" />
    <glyph glyph-name="uni0455" unicode="&#x455;" horiz-adv-x="394" 
d="M367 396l-65 -33q-23 52 -78 52q-33 0 -53.5 -17.5t-20.5 -43.5q0 -23 15.5 -40t55.5 -35q68 -30 96 -65.5t28 -87.5q0 -61 -45.5 -101.5t-119.5 -40.5q-59 0 -100.5 28t-55.5 77l68 30q20 -72 91 -72q40 0 64 21t24 55q0 30 -17 51.5t-66 42.5q-112 48 -112 134
q0 54 41.5 90t112.5 36q101 0 137 -81z" />
    <glyph glyph-name="uni0456" unicode="&#x456;" horiz-adv-x="210" 
d="M113 465h75l-73 -465h-75zM127 579l14 86h88l-14 -86h-88z" />
    <glyph glyph-name="uni0457" unicode="&#x457;" horiz-adv-x="209" 
d="M113 465h75l-73 -465h-75zM59 581l13 84h83l-13 -84h-83zM201 581l13 84h84l-13 -84h-84z" />
    <glyph glyph-name="uni0458" unicode="&#x458;" horiz-adv-x="210" 
d="M189 465l-83 -524q-16 -99 -56 -141.5t-116 -42.5q-47 0 -86 16l22 63q28 -12 64 -12q41 0 63 26.5t33 89.5l83 525h76zM127 579l14 86h88l-14 -86h-88z" />
    <glyph glyph-name="uni0459" unicode="&#x459;" horiz-adv-x="673" 
d="M295 143l-21 107q-7 41 -18 130h-4q-33 -74 -61 -128l-130 -252h-81l250 470h70l41 -197h128q85 0 126.5 -38t41.5 -97q0 -65 -45.5 -109.5t-129.5 -44.5q-74 0 -112.5 39t-54.5 120zM462 209h-108l13 -59q10 -50 33 -75t64 -25q47 0 70.5 24.5t23.5 60.5q0 74 -96 74z
" />
    <glyph glyph-name="uni045A" unicode="&#x45a;" horiz-adv-x="745" 
d="M460 273h83q85 0 125.5 -37.5t40.5 -97.5q0 -65 -46 -109.5t-130 -44.5q-76 0 -120.5 42t-44.5 117q0 16 5 51l2 15h-228l-33 -209h-74l73 465h74l-30 -192h228l31 192h74zM536 209h-86l-3 -20q-4 -26 -4 -40q0 -46 24.5 -72.5t67.5 -26.5q47 0 72 24.5t25 60.5
q0 74 -96 74z" />
    <glyph glyph-name="uni045B" unicode="&#x45b;" horiz-adv-x="519" 
d="M357 579h-151l-27 -171h2q55 69 138 69q75 0 117.5 -41t42.5 -115q0 -23 -7 -69l-39 -252h-75l39 247q6 36 6 62q0 101 -92 101q-66 0 -106.5 -47.5t-51.5 -119.5l-39 -243h-75l92 579h-72l9 56h72l13 86h75l-13 -86h151z" />
    <glyph glyph-name="uni045C" unicode="&#x45c;" horiz-adv-x="443" 
d="M471 466l-16 -65q-10 2 -15 2q-23 0 -40 -15.5t-43 -58.5q-45 -75 -98 -99l169 -230h-88l-149 205h-44l-33 -205h-75l74 465h75l-32 -199h26q33 0 57 19.5t54 71.5q34 58 65 86.5t76 28.5q19 0 37 -6zM227 599l151 150l48 -54l-161 -137z" />
    <glyph glyph-name="uni045D" unicode="&#x45d;" horiz-adv-x="509" 
d="M415 0h-76l9 53h-2q-54 -69 -137 -69q-59 0 -103 39.5t-44 119.5q0 25 4 51l43 271h75l-42 -266q-4 -30 -4 -46q0 -102 90 -102q62 0 98.5 49t47.5 119l39 246h76zM200 674l61 46l103 -150l-45 -33z" />
    <glyph glyph-name="uni045E" unicode="&#x45e;" horiz-adv-x="429" 
d="M458 465l-359 -700h-78l125 241l-104 459h77l57 -269q15 -71 18 -100h2l181 369h81zM376 716h62q-29 -75 -77 -116t-108 -41q-51 0 -83 28.5t-32 75.5q0 22 9 43h62q-8 -20 -8 -38q0 -26 15.5 -39t39.5 -13q33 0 65.5 26t54.5 74z" />
    <glyph glyph-name="uni045F" unicode="&#x45f;" horiz-adv-x="509" 
d="M194 -31h69l-20 -139h-74zM415 0h-76l9 53h-2q-54 -69 -137 -69q-59 0 -103 39.5t-44 119.5q0 25 4 51l43 271h75l-42 -266q-4 -30 -4 -46q0 -102 90 -102q62 0 98.5 49t47.5 119l39 246h76z" />
    <glyph glyph-name="uni0490" unicode="&#x490;" horiz-adv-x="467" 
d="M532 812l-33 -202h-281l-97 -610h-78l109 682h283l21 130h76z" />
    <glyph glyph-name="uni0491" unicode="&#x491;" horiz-adv-x="384" 
d="M347 580h74l-28 -179h-214l-65 -401h-75l74 465h216z" />
    <glyph glyph-name="Wgrave" unicode="&#x1e80;" horiz-adv-x="800" 
d="M504 0l-32 432q-3 33 -3 147h-4q-42 -125 -49 -143l-175 -436h-80l-63 682h76l36 -441q7 -79 7 -134h4q29 92 50 143l173 432h78l32 -440q5 -70 5 -134h4q25 75 50 133l179 441h76l-278 -682h-86zM361 817l28 62l160 -92l-23 -50z" />
    <glyph glyph-name="wgrave" unicode="&#x1e81;" horiz-adv-x="638" 
d="M66 465h73l22 -281q6 -70 6 -112h2q14 56 34 102l115 291h78l28 -260q5 -51 5 -133h2q9 33 36 102l114 291h79l-192 -465h-92l-25 254q-6 60 -6 125h-2q-22 -84 -38 -124l-104 -255h-93zM272 674l61 46l103 -150l-45 -33z" />
    <glyph glyph-name="Wacute" unicode="&#x1e82;" horiz-adv-x="800" 
d="M504 0l-32 432q-3 33 -3 147h-4q-42 -125 -49 -143l-175 -436h-80l-63 682h76l36 -441q7 -79 7 -134h4q29 92 50 143l173 432h78l32 -440q5 -70 5 -134h4q25 75 50 133l179 441h76l-278 -682h-86zM622 883l26 -60l-201 -86l-20 49z" />
    <glyph glyph-name="wacute" unicode="&#x1e83;" horiz-adv-x="638" 
d="M66 465h73l22 -281q6 -70 6 -112h2q14 56 34 102l115 291h78l28 -260q5 -51 5 -133h2q9 33 36 102l114 291h79l-192 -465h-92l-25 254q-6 60 -6 125h-2q-22 -84 -38 -124l-104 -255h-93zM305 578l151 150l48 -54l-161 -137z" />
    <glyph glyph-name="Wdieresis" unicode="&#x1e84;" horiz-adv-x="800" 
d="M504 0l-32 432q-3 33 -3 147h-4q-42 -125 -49 -143l-175 -436h-80l-63 682h76l36 -441q7 -79 7 -134h4q29 92 50 143l173 432h78l32 -440q5 -70 5 -134h4q25 75 50 133l179 441h76l-278 -682h-86zM364 780l13 81h79l-13 -81h-79zM545 780l13 81h79l-13 -81h-79z" />
    <glyph glyph-name="wdieresis" unicode="&#x1e85;" horiz-adv-x="638" 
d="M66 465h73l22 -281q6 -70 6 -112h2q14 56 34 102l115 291h78l28 -260q5 -51 5 -133h2q9 33 36 102l114 291h79l-192 -465h-92l-25 254q-6 60 -6 125h-2q-22 -84 -38 -124l-104 -255h-93zM247 581l13 84h83l-13 -84h-83zM409 581l13 84h84l-13 -84h-84z" />
    <glyph glyph-name="Ygrave" unicode="&#x1ef2;" horiz-adv-x="511" 
d="M183 0l45 279l-141 403h79l86 -250q19 -57 25 -81q16 29 46 76l164 255h86l-267 -402l-45 -280h-78zM228 817l28 62l160 -92l-23 -50z" />
    <glyph glyph-name="ygrave" unicode="&#x1ef3;" horiz-adv-x="429" 
d="M458 465l-359 -700h-78l125 241l-104 459h77l57 -269q15 -71 18 -100h2l181 369h81zM165 674l61 46l103 -150l-45 -33z" />
    <glyph glyph-name="uni2010" unicode="&#x2010;" horiz-adv-x="453" 
d="M399 232h-309l11 65h309z" />
    <glyph glyph-name="endash" unicode="&#x2013;" horiz-adv-x="539" 
d="M467 225h-389l10 59h389z" />
    <glyph glyph-name="emdash" unicode="&#x2014;" horiz-adv-x="1070" 
d="M998 225h-920l10 59h920z" />
    <glyph glyph-name="afii00208" unicode="&#x2015;" horiz-adv-x="800" 
d="M701 234h-600l10 60h600z" />
    <glyph glyph-name="underscoredbl" unicode="&#x2017;" horiz-adv-x="550" 
d="M-33 -130l10 63h550l-10 -63h-550zM-50 -238l10 63h550l-10 -63h-550z" />
    <glyph glyph-name="quoteleft" unicode="&#x2018;" horiz-adv-x="227" 
d="M183 720h49q-41 -65 -54 -122h46l-16 -106h-102l7 48q16 105 70 180z" />
    <glyph glyph-name="quoteright" unicode="&#x2019;" horiz-adv-x="227" 
d="M160 492h-48q39 63 53 122h-46l16 106h102l-7 -48q-14 -103 -70 -180z" />
    <glyph glyph-name="quotesinglbase" unicode="&#x201a;" horiz-adv-x="227" 
d="M69 -122h-48q39 63 53 122h-46l16 106h102l-7 -48q-16 -105 -70 -180z" />
    <glyph glyph-name="quotereversed" unicode="&#x201b;" horiz-adv-x="227" 
d="M248 720l-18 -106h-40q-2 -6 -4 -32q-6 -44 13 -90h-50q-20 45 -20 90q0 28 8 82l8 56h103z" />
    <glyph glyph-name="quotedblleft" unicode="&#x201c;" horiz-adv-x="405" 
d="M359 720h48q-39 -63 -53 -122h48l-16 -106h-104l7 48q16 105 70 180zM183 720h49q-41 -65 -54 -122h48l-16 -106h-104l7 48q16 105 70 180z" />
    <glyph glyph-name="quotedblright" unicode="&#x201d;" horiz-adv-x="405" 
d="M162 492h-49q36 57 54 122h-48l16 106h104l-7 -48q-15 -98 -70 -180zM338 492h-49q39 63 53 122h-47l16 106h104l-7 -48q-15 -98 -70 -180z" />
    <glyph glyph-name="quotedblbase" unicode="&#x201e;" horiz-adv-x="405" 
d="M69 -122h-48q39 63 53 122h-46l16 106h102l-7 -48q-16 -105 -70 -180zM246 -122h-48q39 63 53 122h-46l16 106h103l-8 -48q-14 -103 -70 -180z" />
    <glyph glyph-name="dagger" unicode="&#x2020;" horiz-adv-x="431" 
d="M422 453l-141 11l-4 -91l-70 -373h-54l47 373l26 91l-145 -11l12 75l141 -11l16 165h77l-38 -165l145 11z" />
    <glyph glyph-name="daggerdbl" unicode="&#x2021;" horiz-adv-x="431" 
d="M241 169l-36 -169h-51l16 169l22 80l-146 -9l12 70l143 -10l3 83l23 83l-146 -9l11 69l143 -9l17 165h71l-36 -165l146 9l-11 -69l-143 9l-3 -83l-23 -83l146 10l-11 -70l-144 9z" />
    <glyph glyph-name="bullet" unicode="&#x2022;" horiz-adv-x="376" 
d="M69 293q0 50 36 86.5t86 36.5t86.5 -36.5t36.5 -86.5t-36.5 -86.5t-86.5 -36.5t-86 36.5t-36 86.5z" />
    <glyph glyph-name="ellipsis" unicode="&#x2026;" horiz-adv-x="1010" 
d="M747 0l17 109h104l-17 -109h-104zM87 0l17 109h103l-16 -109h-104zM417 0l17 109h104l-17 -109h-104z" />
    <glyph glyph-name="perthousand" unicode="&#x2030;" horiz-adv-x="1058" 
d="M609 682h80l-517 -682h-80zM76 484q0 90 46.5 154t119.5 64q58 0 90.5 -37t32.5 -105q0 -93 -43 -161t-117 -68q-61 0 -95 39.5t-34 113.5zM296 552q0 86 -57 86q-41 0 -67 -46t-26 -111q0 -85 63 -85q41 0 64 48.5t23 107.5zM407 131q0 90 46.5 154t119.5 64
q58 0 90.5 -37t32.5 -105q0 -93 -43 -161t-117 -68q-61 0 -95 39.5t-34 113.5zM627 199q0 86 -57 86q-41 0 -67 -46t-26 -111q0 -85 63 -85q41 0 64 48.5t23 107.5zM741 131q0 90 46.5 154t119.5 64q58 0 90.5 -37t32.5 -105q0 -93 -43 -161t-117 -68q-61 0 -95 39.5
t-34 113.5zM961 199q0 86 -57 86q-41 0 -67 -46t-26 -111q0 -85 63 -85q41 0 64 48.5t23 107.5z" />
    <glyph glyph-name="minute" unicode="&#x2032;" horiz-adv-x="230" 
d="M198 704l62 -35l-133 -227l-48 27z" />
    <glyph glyph-name="second" unicode="&#x2033;" horiz-adv-x="420" 
d="M198 704l62 -35l-133 -227l-48 27zM388 704l62 -35l-133 -227l-48 27z" />
    <glyph glyph-name="guilsinglleft" unicode="&#x2039;" horiz-adv-x="275" 
d="M65 250l145 187l43 -29l-113 -164l63 -177l-51 -19z" />
    <glyph glyph-name="guilsinglright" unicode="&#x203a;" horiz-adv-x="276" 
d="M220 235l-145 -187l-43 29l114 164l-64 177l51 19z" />
    <glyph glyph-name="exclamdbl" unicode="&#x203c;" horiz-adv-x="442" 
d="M38 0l13 88h85l-13 -88h-85zM146 682h85l-87 -493h-69zM259 0l13 88h85l-13 -88h-85zM367 682h85l-87 -493h-69z" />
    <glyph glyph-name="uni203E" unicode="&#x203e;" horiz-adv-x="550" 
d="M85 762v63h550v-63h-550z" />
    <glyph glyph-name="fraction" unicode="&#x2044;" horiz-adv-x="191" 
d="M327 682h78l-480 -682h-77z" />
    <glyph glyph-name="zero.superior" unicode="&#x2070;" 
d="M90 586q0 122 49.5 204t143.5 82q61 0 102 -41t41 -127q0 -79 -18 -143t-62.5 -107.5t-110.5 -43.5q-64 0 -104.5 43.5t-40.5 132.5zM239 471q38 0 65.5 35t39 85t11.5 108q0 110 -74 110q-58 0 -89.5 -65t-31.5 -159q0 -114 79 -114z" />
    <glyph glyph-name="four.superior" unicode="&#x2074;" 
d="M406 510h-57l-14 -85h-69l13 85h-201l8 49l258 299h63l-48 -287h57zM291 571l29 184l-158 -184h129z" />
    <glyph glyph-name="five.superior" unicode="&#x2075;" 
d="M241 796l-28 -93q18 7 47 7q65 0 101 -36.5t36 -97.5q0 -69 -46.5 -116.5t-120.5 -47.5q-114 0 -138 106l66 23q18 -67 74 -67q44 0 69 27t25 73q0 35 -19 54.5t-54 19.5q-43 0 -69 -29h-63l72 239h219l-12 -62h-159z" />
    <glyph glyph-name="six.superior" unicode="&#x2076;" 
d="M89 552q0 89 81 170l137 136h80l-134 -135q9 3 30 3q60 -2 98 -39t38 -94q0 -79 -50.5 -130t-131.5 -51q-70 0 -109 39t-39 101zM264 668q-48 0 -76.5 -33t-28.5 -80q0 -36 21.5 -58.5t59.5 -22.5q51 0 80 31.5t29 81.5q0 36 -22 58.5t-63 22.5z" />
    <glyph glyph-name="seven.superior" unicode="&#x2077;" 
d="M438 858l-10 -47l-243 -386h-79l241 371h-207l10 62h288z" />
    <glyph glyph-name="eight.superior" unicode="&#x2078;" 
d="M285 813q-33 0 -55.5 -18t-22.5 -50q0 -27 17 -44t48 -17q38 0 59.5 20t21.5 53q0 26 -17.5 41t-50.5 15zM401 556q0 -62 -44.5 -102.5t-117.5 -40.5q-68 0 -106 34t-38 89q0 47 28 79.5t75 44.5q-26 12 -41.5 36.5t-15.5 51.5q0 53 42.5 88.5t106.5 35.5
q59 0 93.5 -29.5t34.5 -78.5q0 -38 -22 -67t-63 -41q32 -12 50 -39t18 -61zM256 629q-42 0 -67.5 -23t-25.5 -66q0 -31 20.5 -50t60.5 -19q41 0 65 24t24 65q0 32 -21 50.5t-56 18.5z" />
    <glyph glyph-name="nine.superior" unicode="&#x2079;" 
d="M435 730q0 -47 -19 -84.5t-62 -80.5l-142 -140h-80l135 135q-9 -3 -30 -3q-62 2 -98 38t-36 93q0 77 51 130.5t133 53.5q68 0 108 -40.5t40 -101.5zM256 615q49 0 79 32.5t30 79.5q0 37 -20.5 60t-60.5 23q-50 0 -80.5 -33t-30.5 -83q0 -79 83 -79z" />
    <glyph glyph-name="nsuperior" unicode="&#x207f;" horiz-adv-x="416" 
d="M88 328l55 354h68l-7 -44h1q41 53 104 53q56 0 87.5 -33t31.5 -87q0 -31 -4 -47l-30 -196h-68l30 190q3 33 3 36q0 33 -17.5 54t-48.5 21q-43 0 -71.5 -33.5t-37.5 -91.5l-28 -176h-68z" />
    <glyph glyph-name="zero.inferior" unicode="&#x2080;" 
d="M26 -14q0 122 49.5 204t143.5 82q61 0 102 -41t41 -127q0 -79 -18 -143t-62.5 -107.5t-110.5 -43.5q-64 0 -104.5 43.5t-40.5 132.5zM175 -129q38 0 65.5 35t39 85t11.5 108q0 110 -74 110q-58 0 -89.5 -65t-31.5 -159q0 -114 79 -114z" />
    <glyph glyph-name="one.inferior" unicode="&#x2081;" 
d="M125 -175l62 371h-74l9 62h144l-71 -433h-70z" />
    <glyph glyph-name="two.inferior" unicode="&#x2082;" 
d="M17 -175l7 45l147 140q39 38 56 55.5t31.5 41t14.5 43.5q0 27 -17 43t-49 16q-55 0 -83 -63l-60 31q51 95 148 95q61 0 97 -31.5t36 -83.5q0 -46 -27.5 -84.5t-95.5 -99.5l-92 -84h187l-11 -64h-289z" />
    <glyph glyph-name="three.inferior" unicode="&#x2083;" 
d="M137 162l-54 35q24 40 56.5 57.5t80.5 17.5q56 0 89 -27.5t33 -72.5q0 -84 -90 -112v-1q35 -10 55 -36.5t20 -63.5q0 -68 -44.5 -107.5t-115.5 -39.5q-60 0 -93.5 26t-50.5 80l64 24q13 -39 31.5 -54.5t50.5 -15.5q39 0 63.5 24t24.5 61q0 72 -93 72h-22l9 59h20
q100 0 100 73q0 23 -15 37t-43 14q-48 0 -76 -50z" />
    <glyph glyph-name="four.inferior" unicode="&#x2084;" 
d="M334 -90h-57l-14 -85h-69l13 85h-201l8 49l258 299h63l-48 -287h57zM219 -29l29 184l-158 -184h129z" />
    <glyph glyph-name="five.inferior" unicode="&#x2085;" 
d="M169 196l-28 -93q18 7 47 7q65 0 101 -36.5t36 -97.5q0 -69 -46.5 -116.5t-120.5 -47.5q-114 0 -138 106l66 23q18 -67 74 -67q44 0 69 27t25 73q0 35 -19 54.5t-54 19.5q-43 0 -69 -29h-63l72 239h219l-12 -62h-159z" />
    <glyph glyph-name="six.inferior" unicode="&#x2086;" 
d="M17 -48q0 56 25.5 98t89.5 106l103 102h80l-134 -135q9 3 30 3q60 -2 98 -39t38 -94q0 -79 -50.5 -130t-131.5 -51q-70 0 -109 39t-39 101zM192 68q-48 0 -76.5 -33t-28.5 -80q0 -36 21.5 -58.5t59.5 -22.5q51 0 80 31.5t29 81.5q0 36 -22 58.5t-63 22.5z" />
    <glyph glyph-name="seven.inferior" unicode="&#x2087;" 
d="M364 258l-10 -47l-243 -386h-79l241 371h-207l10 62h288z" />
    <glyph glyph-name="eight.inferior" unicode="&#x2088;" 
d="M213 213q-33 0 -55.5 -18t-22.5 -50q0 -27 17 -44t48 -17q38 0 59.5 20t21.5 53q0 26 -17.5 41t-50.5 15zM329 -44q0 -62 -44.5 -102.5t-117.5 -40.5q-68 0 -106 34t-38 89q0 47 28 79.5t75 44.5q-26 12 -41.5 36.5t-15.5 51.5q0 53 42.5 88.5t106.5 35.5
q59 0 93.5 -29.5t34.5 -78.5q0 -38 -22 -67t-63 -41q32 -12 50 -39t18 -61zM184 29q-42 0 -67.5 -23t-25.5 -66q0 -31 20.5 -50t60.5 -19q41 0 65 24t24 65q0 32 -21 50.5t-56 18.5z" />
    <glyph glyph-name="nine.inferior" unicode="&#x2089;" 
d="M362 130q0 -47 -19 -84.5t-62 -80.5l-142 -140h-80l135 135q-9 -3 -30 -3q-62 2 -98 38t-36 93q0 77 51 130.5t133 53.5q68 0 108 -40.5t40 -101.5zM183 15q49 0 79 32.5t30 79.5q0 37 -20.5 60t-60.5 23q-50 0 -80.5 -33t-30.5 -83q0 -79 83 -79z" />
    <glyph glyph-name="franc" unicode="&#x20a3;" horiz-adv-x="550" 
d="M41 131l12 68h73l77 483h359l-12 -72h-281l-35 -220h271l-11 -72h-271l-19 -119h149l-12 -68h-148l-21 -131h-78l21 131h-74z" />
    <glyph glyph-name="lira" unicode="&#x20a4;" horiz-adv-x="550" 
d="M390 381h-178q1 -14 4 -38.5t4 -33.5h162l-9 -56h-150q-3 -98 -78 -157q39 0 108.5 -25.5t96.5 -25.5q59 0 86 102l71 -24q-21 -72 -59 -108t-102 -36q-50 0 -126 30t-107 30q-41 0 -85 -25l-23 51q79 41 110 81.5t32 106.5h-99l9 56h87q-2 15 -11 72h-68l9 56h54v21
q0 106 57.5 176.5t169.5 70.5q140 0 177 -133l-76 -24q-24 91 -107 91q-69 0 -105 -48.5t-36 -131.5v-22h191z" />
    <glyph glyph-name="peseta" unicode="&#x20a7;" horiz-adv-x="1154" 
d="M44 0l109 682h162q43 0 79 -9.5t67 -29.5t48.5 -57t17.5 -87q0 -12 -1 -17h71l24 151h75l-24 -151h124l-10 -63h-124l-36 -226q-7 -40 -7 -72q0 -33 14.5 -48t50.5 -15q28 0 54 6l-12 -64q-26 -6 -58 -6q-123 0 -123 127q0 15 8 83l34 215h-72q-24 -75 -94 -116t-175 -41
h-82l-42 -262h-78zM175 333h91q84 0 132.5 43t48.5 125q0 57 -37 83t-97 26h-94zM1137 372h-77q-18 60 -82 60q-35 0 -56.5 -18.5t-21.5 -45.5q0 -25 16.5 -43t57.5 -36q71 -32 99.5 -68.5t28.5 -90.5q0 -62 -47 -104.5t-123 -42.5q-65 0 -112 35t-55 103h78q4 -33 29 -53.5
t63 -20.5q42 0 67.5 22t25.5 58q0 32 -17.5 54t-68.5 45q-116 51 -116 139q0 55 42.5 92.5t115.5 37.5q58 0 98.5 -31t54.5 -92z" />
    <glyph glyph-name="Euro" unicode="&#x20ac;" horiz-adv-x="550" 
d="M470 63l11 -66q-65 -19 -123 -19q-129 0 -193 67t-71 199h-79l24 58h53q1 39 13 93h-73l24 58h65q39 113 122.5 182t206.5 69q81 0 135 -27l-28 -64q-50 24 -111 24q-88 0 -148.5 -50t-92.5 -134h288l-24 -58h-284q-11 -47 -12 -93h263l-23 -58h-236q6 -103 50.5 -151
t135.5 -48q57 0 107 18z" />
    <glyph glyph-name="afii61248" unicode="&#x2105;" horiz-adv-x="884" 
d="M673 682h80l-517 -682h-80zM266 700q62 0 101 -30t48 -84h-73q-10 52 -80 52q-50 0 -82.5 -41t-32.5 -102q0 -47 25 -73t62 -26q55 0 85 49h74q-51 -111 -162 -111q-69 0 -112 44t-43 117q0 85 53 145t137 60zM495 152q0 90 57 147t144 57q71 0 115.5 -44.5t44.5 -109.5
q0 -87 -53.5 -150.5t-144.5 -63.5q-70 0 -116.5 45.5t-46.5 118.5zM693 294q-56 0 -92 -41.5t-36 -99.5q0 -44 26 -73.5t74 -29.5q55 0 88 43.5t33 102.5q0 45 -25.5 71.5t-67.5 26.5z" />
    <glyph glyph-name="afii61289" unicode="&#x2113;" horiz-adv-x="550" 
d="M418 98l37 -42q-24 -27 -61.5 -48.5t-76.5 -21.5q-60 0 -91.5 44.5t-31.5 109.5v85l-57 -62l-37 36l94 103v223q0 88 33.5 133.5t92.5 45.5q51 0 75.5 -33.5t24.5 -74.5q0 -127 -113 -263l-34 -41v-151q0 -90 63 -90q39 0 82 47zM362 586q0 54 -37 54q-52 0 -52 -109
v-156q38 38 63.5 101t25.5 110z" />
    <glyph glyph-name="trademark" unicode="&#x2122;" horiz-adv-x="582" 
d="M511 682l17 -212h-51l-6 117q-1 23 -1 49h-3q-1 -3 -4 -19.5t-7 -29.5l-38 -117h-44l-34 110q-5 17 -9.5 36t-4.5 20h-2q0 -29 -1 -52l-7 -114h-51l19 212h68l35 -106q9 -26 10 -35q5 23 24 77.5t22 63.5h68zM104 636v46h158v-46h-55v-166h-50v166h-53z" />
    <glyph glyph-name="Omega" unicode="&#x2126;" horiz-adv-x="729" 
d="M46 72h186l2 11q-78 34 -122.5 101.5t-44.5 154.5q0 68 22.5 132t64.5 117t111 84.5t155 31.5q136 0 219.5 -87.5t83.5 -213.5q0 -108 -58 -192.5t-157 -127.5l-2 -11h186l-12 -72h-258l19 118q92 25 146 106t54 178t-63 163.5t-168 66.5q-124 0 -192.5 -87t-68.5 -205
q0 -79 44 -140.5t118 -81.5l-19 -118h-258z" />
    <glyph glyph-name="estimated" unicode="&#x212e;" horiz-adv-x="670" 
d="M645 299h-462v-209q67 -65 166 -65q133 0 221 133l34 -20q-104 -150 -255 -150q-129 0 -209.5 89.5t-80.5 219.5q0 133 79.5 222t212.5 89q130 0 209 -89t85 -220zM516 335v169q-68 68 -166 68q-101 0 -167 -66v-171h333z" />
    <glyph glyph-name="onethird" unicode="&#x2153;" horiz-adv-x="937" 
d="M173 250l62 370h-74l9 62h144l-71 -432h-70zM675 682h78l-480 -682h-77zM700 337l-54 35q24 40 56.5 57.5t80.5 17.5q57 0 89.5 -27.5t32.5 -72.5q0 -84 -90 -112v-1q35 -10 55 -36.5t20 -63.5q0 -68 -44.5 -107.5t-115.5 -39.5q-60 0 -93.5 26t-50.5 80l64 24
q13 -39 31.5 -54.5t50.5 -15.5q39 0 63.5 24t24.5 61q0 72 -93 72h-22l9 59h20q100 0 100 73q0 23 -15 37t-43 14q-48 0 -76 -50z" />
    <glyph glyph-name="twothirds" unicode="&#x2154;" horiz-adv-x="967" 
d="M730 331h-67q10 55 48 85.5t102 30.5q57 0 89.5 -27.5t32.5 -72.5q0 -84 -90 -112v-1q35 -10 55 -36.5t20 -63.5q0 -70 -43.5 -108.5t-116.5 -38.5q-64 0 -102.5 32t-40.5 88q0 8 1 10h68v-4q8 -66 76 -66q39 0 63.5 24t24.5 61q0 72 -93 72h-22l9 59h20q100 0 100 73
q0 23 -15 37t-43 14q-63 0 -76 -56zM70 249l7 45l147 140q39 38 56 55.5t31.5 41t14.5 43.5q0 27 -17 43t-49 16q-54 0 -83 -63l-60 31q51 95 148 95q61 0 97 -31.5t36 -83.5q0 -46 -27.5 -84.5t-95.5 -99.5l-92 -84h187l-11 -64h-289zM705 682h78l-480 -682h-77z" />
    <glyph glyph-name="oneeighth" unicode="&#x215b;" horiz-adv-x="937" 
d="M173 250l62 370h-74l9 62h144l-71 -432h-70zM675 682h78l-480 -682h-77zM776 388q-33 0 -55.5 -18t-22.5 -50q0 -27 17 -44t48 -17q38 0 59.5 20t21.5 53q0 26 -17.5 41t-50.5 15zM892 131q0 -62 -44.5 -102.5t-117.5 -40.5q-68 0 -106 34t-38 89q0 47 28 79.5t75 44.5
q-26 12 -41.5 36.5t-15.5 51.5q0 53 42.5 88.5t106.5 35.5q59 0 93.5 -29.5t34.5 -78.5q0 -38 -22 -67t-63 -41q32 -12 50 -39t18 -61zM747 204q-42 0 -67.5 -23t-25.5 -66q0 -31 20.5 -50t60.5 -19q41 0 65 24t24 65q0 32 -21 50.5t-56 18.5z" />
    <glyph glyph-name="threeeighths" unicode="&#x215c;" horiz-adv-x="967" 
d="M705 682h78l-480 -682h-77zM806 388q-33 0 -55.5 -18t-22.5 -50q0 -27 17 -44t48 -17q38 0 59.5 20t21.5 53q0 26 -17.5 41t-50.5 15zM922 131q0 -62 -44.5 -102.5t-117.5 -40.5q-68 0 -106 34t-38 89q0 47 28 79.5t75 44.5q-26 12 -41.5 36.5t-15.5 51.5q0 53 42.5 88.5
t106.5 35.5q59 0 93.5 -29.5t34.5 -78.5q0 -38 -22 -67t-63 -41q32 -12 50 -39t18 -61zM777 204q-42 0 -67.5 -23t-25.5 -66q0 -31 20.5 -50t60.5 -19q41 0 65 24t24 65q0 32 -21 50.5t-56 18.5zM185 585l-54 35q24 40 56.5 57.5t80.5 17.5q56 0 89 -27.5t33 -72.5
q0 -84 -90 -112v-1q35 -10 55 -36.5t20 -63.5q0 -68 -44.5 -107.5t-115.5 -39.5q-60 0 -93.5 26t-50.5 80l64 24q13 -39 31.5 -54.5t50.5 -15.5q39 0 63.5 24t24.5 61q0 72 -93 72h-22l9 59h20q100 0 100 73q0 23 -15 37t-43 14q-48 0 -76 -50z" />
    <glyph glyph-name="fiveeighths" unicode="&#x215d;" horiz-adv-x="967" 
d="M705 682h78l-480 -682h-77zM806 388q-33 0 -55.5 -18t-22.5 -50q0 -27 17 -44t48 -17q38 0 59.5 20t21.5 53q0 26 -17.5 41t-50.5 15zM922 131q0 -62 -44.5 -102.5t-117.5 -40.5q-68 0 -106 34t-38 89q0 47 28 79.5t75 44.5q-26 12 -41.5 36.5t-15.5 51.5q0 53 42.5 88.5
t106.5 35.5q59 0 93.5 -29.5t34.5 -78.5q0 -38 -22 -67t-63 -41q32 -12 50 -39t18 -61zM777 204q-42 0 -67.5 -23t-25.5 -66q0 -31 20.5 -50t60.5 -19q41 0 65 24t24 65q0 32 -21 50.5t-56 18.5zM217 620l-28 -93q18 7 47 7q65 0 101 -36.5t36 -97.5q0 -69 -46.5 -116.5
t-120.5 -47.5q-114 0 -138 106l66 23q18 -67 74 -67q44 0 69 27t25 73q0 35 -19 54.5t-54 19.5q-43 0 -69 -29h-63l72 239h219l-12 -62h-159z" />
    <glyph glyph-name="seveneighths" unicode="&#x215e;" horiz-adv-x="907" 
d="M413 682l-10 -47l-243 -385h-79l241 370h-207l10 62h288zM645 682h78l-480 -682h-77zM746 388q-33 0 -55.5 -18t-22.5 -50q0 -27 17 -44t48 -17q38 0 59.5 20t21.5 53q0 26 -17.5 41t-50.5 15zM862 131q0 -62 -44.5 -102.5t-117.5 -40.5q-68 0 -106 34t-38 89
q0 47 28 79.5t75 44.5q-26 12 -41.5 36.5t-15.5 51.5q0 53 42.5 88.5t106.5 35.5q59 0 93.5 -29.5t34.5 -78.5q0 -38 -22 -67t-63 -41q32 -12 50 -39t18 -61zM717 204q-42 0 -67.5 -23t-25.5 -66q0 -31 20.5 -50t60.5 -19q41 0 65 24t24 65q0 32 -21 50.5t-56 18.5z" />
    <glyph glyph-name="partialdiff" unicode="&#x2202;" horiz-adv-x="608" 
d="M560 473q0 -94 -26 -193q-16 -58 -41 -109.5t-59.5 -95t-82.5 -69t-103 -25.5q-79 0 -128.5 52.5t-49.5 136.5q0 139 80.5 227t184.5 88q53 0 91.5 -23t57.5 -58q4 31 4 73q0 87 -38 132t-109 45q-56 0 -100 -29l-20 53q59 35 131 35q98 0 153 -62.5t55 -177.5zM472 335
q-12 41 -45 67.5t-82 26.5q-82 0 -141.5 -76.5t-59.5 -183.5q0 -59 30 -94t79 -35q75 0 133 79t86 216z" />
    <glyph glyph-name="Delta" unicode="&#x2206;" horiz-adv-x="611" 
d="M-19 0l376 682h69l151 -682h-596zM482 70l-84 420q-1 6 -18 104h-2q-29 -60 -53 -104l-219 -420h376z" />
    <glyph glyph-name="product" unicode="&#x220f;" horiz-adv-x="738" 
d="M669 -236h-80v847h-398v-847h-80v919h558v-919z" />
    <glyph glyph-name="summation" unicode="&#x2211;" horiz-adv-x="648" 
d="M636 -235h-588v48l331 416l-306 399v54h535v-70h-425q55 -74 164 -216t127 -166l-317 -395h479v-70z" />
    <glyph glyph-name="minus" unicode="&#x2212;" horiz-adv-x="672" 
d="M613 228h-515v72h515v-72z" />
    <glyph glyph-name="uni2215" unicode="&#x2215;" horiz-adv-x="191" 
d="M327 682h78l-480 -682h-77z" />
    <glyph glyph-name="uni2219" unicode="&#x2219;" horiz-adv-x="230" 
d="M79 289l16 107h103l-17 -107h-102z" />
    <glyph glyph-name="radical" unicode="&#x221a;" horiz-adv-x="553" 
d="M501 693h57l-204 -705h-52l-148 347l-59 -31l-24 42l115 67l139 -332z" />
    <glyph glyph-name="infinity" unicode="&#x221e;" horiz-adv-x="827" 
d="M780 294q0 -70 -45 -117.5t-118 -47.5q-115 0 -189 116q-85 -116 -187 -116q-76 0 -122 45.5t-46 114.5q0 73 45 119.5t120 46.5q110 0 189 -116q78 116 185 116q74 0 121 -44t47 -117zM718 293q0 46 -27.5 76t-78.5 30q-86 0 -154 -107q63 -107 153 -107q52 0 79.5 31.5
t27.5 76.5zM396 293q-30 48 -71 77t-83 29q-51 0 -78.5 -31t-27.5 -78t30.5 -76t76.5 -29q86 0 153 108z" />
    <glyph glyph-name="integral" unicode="&#x222b;" horiz-adv-x="506" 
d="M454 734l-17 -64q-22 10 -49 10q-84 0 -84 -99v-637q0 -83 -39 -126.5t-109 -43.5q-45 0 -78 12l16 64q23 -9 51 -9q83 0 83 98v641q0 80 38.5 123.5t111.5 43.5q41 0 76 -13z" />
    <glyph glyph-name="approxequal" unicode="&#x2248;" horiz-adv-x="672" 
d="M583 229l54 -59q-38 -44 -75.5 -67t-90.5 -23q-64 0 -125 34q-57 35 -108 35q-54 0 -111 -70l-52 58q35 44 71 67.5t90 23.5q60 0 126 -34q61 -37 109 -37q56 0 112 72zM583 449l54 -58q-76 -91 -166 -91q-64 0 -125 34q-62 38 -108 38q-23 0 -45.5 -13t-34.5 -25.5
t-31 -34.5l-52 59q37 44 72.5 67.5t88.5 23.5q62 0 126 -35q61 -35 109 -35q59 0 112 70z" />
    <glyph glyph-name="notequal" unicode="&#x2260;" horiz-adv-x="672" 
d="M469 552h79l-76 -140h149v-72h-182l-80 -150h262v-72h-296l-71 -132h-79l71 132h-144v72h178l80 150h-258v72h291z" />
    <glyph glyph-name="lessequal" unicode="&#x2264;" horiz-adv-x="672" 
d="M618 0h-515v72h515v-72zM618 136l-515 205v61l515 207v-80l-397 -156v-2l397 -154v-81z" />
    <glyph glyph-name="greaterequal" unicode="&#x2265;" horiz-adv-x="672" 
d="M619 0h-515v72h515v-72zM619 341l-515 -205v81l397 154v2l-397 156v80l515 -207v-61z" />
    <glyph glyph-name="lozenge" unicode="&#x25ca;" horiz-adv-x="578" 
d="M537 345l-217 -345h-31l-216 344l217 338h31zM476 345l-171 269l-171 -269l170 -277z" />
    <glyph glyph-name="commaaccent" unicode="&#xf6c3;" horiz-adv-x="316" 
d="M109 -145l12 77h85l-11 -61q-13 -59 -38 -85h-49q26 27 33 69h-32z" />
    <glyph glyph-name="uniF8FF" unicode="&#xf8ff;" horiz-adv-x="500" 
d="M12 0v665h475v-665h-475zM88 618l162 -243l161 243h-323zM60 575v-484q0 -1 11.5 16t30.5 46.5t38 58.5q30 47 81 121zM440 575l-162 -242l162 -243v485zM411 48l-161 242l-162 -242h323z" />
    <glyph glyph-name="dollar.oldstyle" horiz-adv-x="493" 
d="M52 120l64 22q21 -68 74 -79l30 199q-59 26 -85.5 57.5t-26.5 79.5q0 57 41 97t114 44l10 61h61l-10 -64q70 -15 107 -90l-63 -32q-22 48 -54 60l-25 -165q65 -32 93 -65t28 -83q0 -68 -46.5 -111.5t-122.5 -49.5l-10 -67h-61l10 68q-100 15 -128 118zM335 154
q0 29 -12.5 47t-45.5 35l-26 -174q39 7 61.5 32t22.5 60zM185 407q0 -28 10 -44t37 -28l22 145q-69 -12 -69 -73z" />
    <glyph glyph-name="zero.oldstyle" horiz-adv-x="595" 
d="M44 215q0 133 83 217t209 84q105 0 169.5 -66t64.5 -163q0 -132 -78.5 -221t-205.5 -89q-109 0 -175.5 65.5t-66.5 172.5zM329 445q-95 0 -149.5 -67.5t-54.5 -153.5q0 -77 42.5 -126.5t121.5 -49.5q92 0 146 68t54 160q0 76 -44 122.5t-116 46.5z" />
    <glyph glyph-name="one.oldstyle" horiz-adv-x="339" 
d="M119 0l67 421h-122l11 73h200l-79 -494h-77z" />
    <glyph glyph-name="two.oldstyle" horiz-adv-x="523" 
d="M38 66l197 120q88 53 116.5 89t28.5 80q0 37 -23.5 63t-65.5 26q-43 0 -70 -20t-55 -72l-68 37q34 65 80 95.5t115 30.5q81 0 126 -45t45 -106q0 -60 -35 -110t-125 -105l-125 -76h275l-11 -73h-415z" />
    <glyph glyph-name="three.oldstyle" horiz-adv-x="513" 
d="M181 360l-70 37q61 118 187 118q73 0 119.5 -41.5t46.5 -107.5q0 -56 -33.5 -95t-90.5 -54v-2q61 -18 94.5 -63.5t33.5 -113.5q0 -95 -67 -162t-176 -67q-85 0 -141 44t-77 123l75 29q38 -125 149 -125q68 0 111 43.5t43 112.5q0 66 -38.5 105t-110.5 39h-42l10 64h49
q55 0 92 32t37 81q0 40 -25 63.5t-65 23.5q-70 0 -111 -84z" />
    <glyph glyph-name="four.oldstyle" horiz-adv-x="556" 
d="M512 31h-95l-32 -199h-78l34 199h-323l10 62l393 401h69l-61 -393h95zM397 388l-282 -287h237z" />
    <glyph glyph-name="five.oldstyle" horiz-adv-x="522" 
d="M245 192q-73 0 -120 -38h-72l99 340h320l-11 -72h-253l-51 -175q44 16 97 16q94 0 156 -54t62 -159q0 -101 -67 -171t-177 -70q-88 0 -146.5 47.5t-73.5 124.5l76 25q15 -65 49 -95.5t96 -30.5q71 0 115.5 46t44.5 118q0 69 -37 108.5t-107 39.5z" />
    <glyph glyph-name="six.oldstyle" horiz-adv-x="540" 
d="M44 183q0 94 37.5 157.5t125.5 154.5l151 162h89l-197 -218q31 12 70 12q79 0 135.5 -58t56.5 -142q0 -69 -27.5 -129.5t-88 -101.5t-143.5 -41q-91 0 -150 57.5t-59 146.5zM294 381q-75 0 -122 -56.5t-47 -135.5q0 -62 36 -100.5t101 -38.5q74 0 122 55.5t48 135.5
q0 61 -36.5 100.5t-101.5 39.5z" />
    <glyph glyph-name="seven.oldstyle" horiz-adv-x="484" 
d="M481 494l-11 -67q-61 -99 -181.5 -298t-181.5 -297h-90l366 589h-324l12 73h410z" />
    <glyph glyph-name="eight.oldstyle" horiz-adv-x="533" 
d="M136 500q0 74 54 126.5t142 52.5q76 0 121.5 -43t45.5 -109q0 -55 -29 -97t-80 -59q50 -18 80 -62t30 -101q0 -105 -66.5 -168t-178.5 -63q-91 0 -150 52t-59 137q0 76 44 131.5t118 76.5q-33 17 -52.5 51t-19.5 75zM285 336q-64 0 -111 -44.5t-47 -115.5
q0 -58 36.5 -93.5t101.5 -35.5q68 0 111 44t43 115q0 59 -36 94.5t-98 35.5zM326 608q-48 0 -79 -31.5t-31 -76.5q0 -42 25 -68.5t70 -26.5q48 0 78 29.5t30 83.5q0 41 -25 65.5t-68 24.5z" />
    <glyph glyph-name="nine.oldstyle" horiz-adv-x="539" 
d="M514 311q0 -116 -93 -223l-217 -256h-90l184 219q-23 -9 -52 -9q-79 0 -139.5 54.5t-60.5 158.5q0 109 74.5 184.5t190.5 75.5q93 0 148 -57.5t55 -146.5zM264 113q76 0 123 57t47 140q0 58 -35.5 96t-93.5 38q-77 0 -127.5 -52.5t-50.5 -135.5q0 -65 37.5 -104t99.5 -39
z" />
    <glyph glyph-name="cent.oldstyle" horiz-adv-x="515" 
d="M385 164l56 -37q-61 -96 -175 -102l-18 -115h-61l18 118q-71 13 -111.5 64.5t-40.5 124.5q0 96 58.5 168.5t161.5 81.5l16 102h61l-16 -103q94 -15 138 -104l-67 -36q-26 57 -82 72l-47 -306q69 7 109 72zM131 222q0 -46 21.5 -79.5t63.5 -45.5l47 303q-62 -10 -97 -61
t-35 -117z" />
    <glyph glyph-name="zero.fitted" horiz-adv-x="557" 
d="M54 240q0 129 32.5 233t100 168.5t160.5 64.5q92 0 146 -65t54 -184q0 -136 -31 -242t-97 -171.5t-159 -65.5q-92 0 -149 68t-57 194zM266 49q95 0 147.5 115.5t52.5 287.5q0 88 -31 135.5t-91 47.5q-67 0 -115.5 -58t-71 -147.5t-22.5 -197.5q0 -80 33 -131.5t98 -51.5z
" />
    <glyph glyph-name="one.fitted" horiz-adv-x="376" 
d="M125 0l97 609h-105l12 73h182l-109 -682h-77z" />
    <glyph glyph-name="two.fitted" horiz-adv-x="516" 
d="M27 0l11 74l251 245q62 61 97.5 113t35.5 110q0 45 -25.5 69t-70.5 24t-76 -25t-59 -85l-70 35q35 73 83.5 109.5t120.5 36.5q79 0 130 -41.5t51 -116.5q0 -70 -43.5 -136t-117.5 -138l-209 -201h306l-11 -73h-404z" />
    <glyph glyph-name="three.fitted" horiz-adv-x="532" 
d="M205 544l-65 39q35 64 81 93.5t116 29.5q80 0 127.5 -43.5t47.5 -115.5q0 -67 -40.5 -113.5t-109.5 -61.5v-4q55 -13 88 -52.5t33 -98.5q0 -102 -63.5 -170t-168.5 -68q-156 0 -198 141l74 29q32 -100 129 -100q65 0 104.5 47t39.5 115q0 121 -135 121h-42l11 72h40
q71 0 113 37t42 94q0 100 -103 100q-40 0 -67 -21t-54 -70z" />
    <glyph glyph-name="four.fitted" horiz-adv-x="531" 
d="M495 165h-84l-27 -165h-77l27 165h-304l10 66l377 451h75l-70 -447h84zM398 568l-276 -333h223q9 56 26 166.5t27 166.5z" />
    <glyph glyph-name="five.fitted" horiz-adv-x="540" 
d="M247 610l-55 -192q36 15 85 15q101 0 156.5 -58.5t55.5 -151.5q0 -96 -62.5 -170.5t-172.5 -74.5q-158 0 -207 160l77 30q20 -63 50 -91t83 -28q73 0 112 50t39 120q0 60 -35 101.5t-105 41.5q-71 0 -109 -43h-75l105 363h335l-12 -72h-265z" />
    <glyph glyph-name="six.fitted" horiz-adv-x="558" 
d="M44 189q0 77 36.5 138.5t131.5 174.5q11 13 17 20l135 160h89l-187 -223q24 9 64 9q90 0 144.5 -60.5t54.5 -146.5q0 -116 -72 -199.5t-191 -83.5q-100 0 -161 59.5t-61 151.5zM306 397q-78 0 -129.5 -60t-51.5 -143q0 -65 38.5 -105t105.5 -40q78 0 128.5 60t50.5 141
q0 70 -37 108.5t-105 38.5z" />
    <glyph glyph-name="seven.fitted" horiz-adv-x="484" 
d="M527 682l-11 -67q-64 -102 -189 -307.5t-189 -307.5h-90l380 609h-332l12 73h419z" />
    <glyph glyph-name="eight.fitted" horiz-adv-x="539" 
d="M328 634q-48 0 -84 -34.5t-36 -91.5q0 -45 30 -75t81 -30q54 0 85.5 36.5t31.5 88.5q0 50 -29 78t-79 28zM498 200q0 -97 -63.5 -159t-168.5 -62q-97 0 -156.5 55.5t-59.5 137.5q0 81 45 133t122 68q-89 41 -89 141q0 82 56 136.5t152 54.5q82 0 131 -47.5t49 -118.5
q0 -64 -36.5 -111t-95.5 -63q52 -21 83 -64.5t31 -100.5zM278 333q-60 0 -103.5 -42t-43.5 -112q0 -58 37.5 -93.5t104.5 -35.5q62 0 103 40t41 110q0 62 -39 97.5t-100 35.5z" />
    <glyph glyph-name="nine.fitted" horiz-adv-x="557" 
d="M558 493q0 -115 -95 -227l-225 -266h-89l187 223q-24 -9 -59 -9q-83 0 -143.5 57t-60.5 164t75.5 188t197.5 81q95 0 153.5 -59.5t58.5 -151.5zM298 285q80 0 129.5 60t49.5 147q0 61 -37 101t-98 40q-84 0 -136 -54.5t-52 -142.5q0 -71 40 -111t104 -40z" />
    <glyph glyph-name="percent.oldstyle" horiz-adv-x="765" 
d="M188 332q45 0 73 32.5t28 82.5q0 35 -22.5 57t-59.5 22q-47 0 -76 -33.5t-29 -75.5q0 -38 21.5 -61.5t64.5 -23.5zM185 272q-72 0 -112.5 39.5t-40.5 103.5q0 74 51.5 122.5t124.5 48.5q71 0 111 -39t40 -100q0 -74 -50 -124.5t-124 -50.5zM561 566h80l-429 -566h-80z
M570 40q45 0 73 32.5t28 82.5q0 35 -22.5 57t-59.5 22q-47 0 -76 -33.5t-29 -75.5q0 -38 21.5 -61.5t64.5 -23.5zM567 -20q-72 0 -112.5 39.5t-40.5 103.5q0 74 51.5 122.5t124.5 48.5q71 0 111 -39t40 -100q0 -74 -50 -124.5t-124 -50.5z" />
    <glyph glyph-name="perthousand.oldstyle" horiz-adv-x="1135" 
d="M188 332q45 0 73 32.5t28 82.5q0 35 -22.5 57t-59.5 22q-47 0 -76 -33.5t-29 -75.5q0 -38 21.5 -61.5t64.5 -23.5zM185 272q-72 0 -112.5 39.5t-40.5 103.5q0 74 51.5 122.5t124.5 48.5q71 0 111 -39t40 -100q0 -74 -50 -124.5t-124 -50.5zM561 566h80l-429 -566h-80z
M570 40q45 0 73 32.5t28 82.5q0 35 -22.5 57t-59.5 22q-47 0 -76 -33.5t-29 -75.5q0 -38 21.5 -61.5t64.5 -23.5zM567 -20q-72 0 -112.5 39.5t-40.5 103.5q0 74 51.5 122.5t124.5 48.5q71 0 111 -39t40 -100q0 -74 -50 -124.5t-124 -50.5zM942 40q45 0 73 32.5t28 82.5
q0 35 -22.5 57t-59.5 22q-47 0 -76 -33.5t-29 -75.5q0 -38 21.5 -61.5t64.5 -23.5zM939 -20q-72 0 -112.5 39.5t-40.5 103.5q0 74 51.5 122.5t124.5 48.5q71 0 111 -39t40 -100q0 -74 -50 -124.5t-124 -50.5z" />
    <glyph glyph-name="zero.taboldstyle" horiz-adv-x="530" 
d="M35 211q0 127 72.5 216t192.5 89q94 0 152.5 -65.5t58.5 -163.5q0 -123 -70 -216.5t-192 -93.5q-105 0 -159.5 69t-54.5 165zM295 445q-78 0 -128.5 -70t-50.5 -159q0 -78 35 -123t100 -45q78 0 128.5 70t50.5 163q0 73 -38 118.5t-97 45.5z" />
    <glyph glyph-name="one.taboldstyle" horiz-adv-x="530" 
d="M211 0l68 421h-128l11 73h206l-79 -494h-78z" />
    <glyph glyph-name="two.taboldstyle" horiz-adv-x="530" 
d="M41 66l197 120q88 53 116.5 89t28.5 80q0 37 -23.5 63t-65.5 26q-43 0 -70 -20t-55 -72l-68 37q34 65 80 95.5t115 30.5q81 0 126 -45t45 -106q0 -60 -35 -110t-125 -105l-125 -76h275l-11 -73h-415z" />
    <glyph glyph-name="three.taboldstyle" horiz-adv-x="530" 
d="M196 360l-70 37q61 118 187 118q73 0 119.5 -41.5t46.5 -107.5q0 -56 -33.5 -95t-90.5 -54v-2q61 -18 94.5 -63.5t33.5 -113.5q0 -95 -67 -162t-176 -67q-85 0 -141 44t-77 123l75 29q38 -125 149 -125q68 0 111 43.5t43 112.5q0 66 -38.5 105t-110.5 39h-42l10 64h49
q55 0 92 32t37 81q0 40 -25 63.5t-65 23.5q-70 0 -111 -84z" />
    <glyph glyph-name="four.taboldstyle" horiz-adv-x="530" 
d="M489 53h-94l-35 -221h-79l37 221h-308l10 62l376 379h69l-59 -372h95zM372 387l-265 -265h222q43 263 43 265z" />
    <glyph glyph-name="five.taboldstyle" horiz-adv-x="530" 
d="M253 192q-73 0 -120 -38h-72l99 340h320l-11 -72h-253l-51 -175q44 16 97 16q94 0 156 -54t62 -159q0 -101 -67 -171t-177 -70q-88 0 -146.5 47.5t-73.5 124.5l76 25q15 -65 49 -95.5t96 -30.5q71 0 115.5 46t44.5 118q0 69 -37 108.5t-107 39.5z" />
    <glyph glyph-name="six.taboldstyle" horiz-adv-x="530" 
d="M34 183q0 94 37.5 157.5t125.5 154.5l151 162h89l-197 -218q31 12 70 12q79 0 135.5 -58t56.5 -142q0 -69 -27.5 -129.5t-88 -101.5t-143.5 -41q-91 0 -150 57.5t-59 146.5zM284 381q-75 0 -122 -56.5t-47 -135.5q0 -62 36 -100.5t101 -38.5q74 0 122 55.5t48 135.5
q0 61 -36.5 100.5t-101.5 39.5z" />
    <glyph glyph-name="seven.taboldstyle" horiz-adv-x="530" 
d="M515 494l-11 -67q-67 -107 -189.5 -308t-175.5 -287h-90l367 589h-324l11 73h412z" />
    <glyph glyph-name="eight.taboldstyle" horiz-adv-x="530" 
d="M134 500q0 74 54 126.5t142 52.5q76 0 121 -43t45 -109q0 -55 -29 -97t-80 -59q50 -18 80.5 -62t30.5 -101q0 -105 -67 -168t-178 -63q-91 0 -150 52t-59 137q0 76 44 131.5t118 76.5q-33 17 -52.5 51t-19.5 75zM283 336q-64 0 -111 -44.5t-47 -115.5q0 -58 36.5 -93.5
t101.5 -35.5q68 0 111 44t43 115q0 58 -36 94t-98 36zM324 608q-48 0 -79.5 -31.5t-31.5 -76.5q0 -42 25.5 -68.5t70.5 -26.5q47 0 77 29.5t30 83.5q0 41 -25 65.5t-67 24.5z" />
    <glyph glyph-name="nine.taboldstyle" horiz-adv-x="530" 
d="M510 311q0 -116 -93 -223l-217 -256h-90l184 219q-23 -9 -52 -9q-47 0 -91 21.5t-76.5 72t-32.5 119.5q0 109 74.5 184.5t190.5 75.5q93 0 148 -57.5t55 -146.5zM262 113q75 0 121.5 57t46.5 140q0 58 -35.5 96t-93.5 38q-77 0 -127.5 -52.5t-50.5 -135.5
q0 -66 38 -104.5t101 -38.5z" />
    <glyph glyph-name="zero.denominator" 
d="M40 161q0 122 49.5 204t143.5 82q61 0 102 -41t41 -127q0 -79 -18 -143t-62.5 -107.5t-110.5 -43.5q-64 0 -104.5 43.5t-40.5 132.5zM189 46q38 0 65.5 35t39 85t11.5 108q0 110 -74 110q-58 0 -89.5 -65t-31.5 -159q0 -114 79 -114z" />
    <glyph glyph-name="one.denominator" 
d="M139 0l62 371h-74l9 62h144l-71 -433h-70z" />
    <glyph glyph-name="two.denominator" 
d="M31 0l7 45l147 140q39 38 56 55.5t31.5 41t14.5 43.5q0 27 -17 43t-49 16q-55 0 -83 -63l-60 31q51 95 148 95q61 0 97 -31.5t36 -83.5q0 -46 -27.5 -84.5t-95.5 -99.5l-92 -84h187l-11 -64h-289z" />
    <glyph glyph-name="three.denominator" 
d="M151 337l-54 35q24 40 56.5 57.5t80.5 17.5q56 0 89 -27.5t33 -72.5q0 -84 -90 -112v-1q35 -10 55 -36.5t20 -63.5q0 -68 -44.5 -107.5t-115.5 -39.5q-60 0 -93.5 26t-50.5 80l64 24q13 -39 31.5 -54.5t50.5 -15.5q39 0 63.5 24t24.5 61q0 72 -93 72h-22l9 59h20
q100 0 100 73q0 23 -15 37t-43 14q-48 0 -76 -50z" />
    <glyph glyph-name="four.denominator" 
d="M348 85h-57l-14 -85h-69l13 85h-201l8 49l258 299h63l-48 -287h57zM233 146l29 184l-158 -184h129z" />
    <glyph glyph-name="five.denominator" 
d="M183 371l-28 -93q18 7 47 7q65 0 101 -36.5t36 -97.5q0 -69 -46.5 -116.5t-120.5 -47.5q-114 0 -138 106l66 23q18 -67 74 -67q44 0 69 27t25 73q0 35 -19 54.5t-54 19.5q-43 0 -69 -29h-63l72 239h219l-12 -62h-159z" />
    <glyph glyph-name="six.denominator" 
d="M31 127q0 56 25.5 98t89.5 106l103 102h80l-134 -135q9 3 30 3q60 -2 98 -39t38 -94q0 -79 -50.5 -130t-131.5 -51q-70 0 -109 39t-39 101zM206 243q-48 0 -76.5 -33t-28.5 -80q0 -36 21.5 -58.5t59.5 -22.5q51 0 80 31.5t29 81.5q0 36 -22 58.5t-63 22.5z" />
    <glyph glyph-name="seven.denominator" 
d="M378 433l-10 -47l-243 -386h-79l241 371h-207l10 62h288z" />
    <glyph glyph-name="eight.denominator" 
d="M227 388q-33 0 -55.5 -18t-22.5 -50q0 -27 17 -44t48 -17q38 0 59.5 20t21.5 53q0 26 -17.5 41t-50.5 15zM343 131q0 -62 -44.5 -102.5t-117.5 -40.5q-68 0 -106 34t-38 89q0 47 28 79.5t75 44.5q-26 12 -41.5 36.5t-15.5 51.5q0 53 42.5 88.5t106.5 35.5
q59 0 93.5 -29.5t34.5 -78.5q0 -38 -22 -67t-63 -41q32 -12 50 -39t18 -61zM198 204q-42 0 -67.5 -23t-25.5 -66q0 -31 20.5 -50t60.5 -19q41 0 65 24t24 65q0 32 -21 50.5t-56 18.5z" />
    <glyph glyph-name="nine.denominator" 
d="M376 305q0 -47 -19 -84.5t-62 -80.5l-142 -140h-80l135 135q-9 -3 -30 -3q-62 2 -98 38t-36 93q0 77 51 130.5t133 53.5q68 0 108 -40.5t40 -101.5zM197 190q49 0 79 32.5t30 79.5q0 37 -20.5 60t-60.5 23q-50 0 -80.5 -33t-30.5 -83q0 -79 83 -79z" />
    <glyph glyph-name="zero.numerator" 
d="M69 409q0 122 49.5 204t143.5 82q61 0 102 -41t41 -127q0 -125 -47 -209t-144 -84q-64 0 -104.5 43.5t-40.5 131.5zM218 295q38 0 65.5 34.5t39 84.5t11.5 108q0 110 -74 110q-58 0 -89.5 -65t-31.5 -159q0 -113 79 -113z" />
    <glyph glyph-name="one.numerator" 
d="M173 250l62 370h-74l9 62h144l-71 -432h-70z" />
    <glyph glyph-name="two.numerator" 
d="M70 249l7 45l147 140q39 38 56 55.5t31.5 41t14.5 43.5q0 27 -17 43t-49 16q-54 0 -83 -63l-60 31q51 95 148 95q61 0 97 -31.5t36 -83.5q0 -46 -27.5 -84.5t-95.5 -99.5l-92 -84h187l-11 -64h-289z" />
    <glyph glyph-name="three.numerator" 
d="M185 585l-54 35q24 40 56.5 57.5t80.5 17.5q56 0 89 -27.5t33 -72.5q0 -84 -90 -112v-1q35 -10 55 -36.5t20 -63.5q0 -68 -44.5 -107.5t-115.5 -39.5q-60 0 -93.5 26t-50.5 80l64 24q13 -39 31.5 -54.5t50.5 -15.5q39 0 63.5 24t24.5 61q0 72 -93 72h-22l9 59h20
q100 0 100 73q0 23 -15 37t-43 14q-48 0 -76 -50z" />
    <glyph glyph-name="four.numerator" 
d="M383 335h-57l-14 -85h-69l13 85h-201l8 49l258 298h63l-48 -286h57zM268 396l29 183l-158 -183h129z" />
    <glyph glyph-name="five.numerator" 
d="M217 620l-28 -93q18 7 47 7q65 0 101 -36.5t36 -97.5q0 -69 -46.5 -116.5t-120.5 -47.5q-114 0 -138 106l66 23q18 -67 74 -67q44 0 69 27t25 73q0 35 -19 54.5t-54 19.5q-43 0 -69 -29h-63l72 239h219l-12 -62h-159z" />
    <glyph glyph-name="six.numerator" 
d="M66 376q0 56 25.5 98t89.5 106l103 102h80l-134 -135q9 3 30 3q60 -2 98 -39t38 -94q0 -79 -50.5 -130t-131.5 -51q-70 0 -109 39t-39 101zM241 492q-48 0 -76.5 -33t-28.5 -80q0 -36 21.5 -58.5t59.5 -22.5q51 0 80 31.5t29 81.5q0 36 -22 58.5t-63 22.5z" />
    <glyph glyph-name="seven.numerator" 
d="M413 682l-10 -47l-243 -385h-79l241 370h-207l10 62h288z" />
    <glyph glyph-name="eight.numerator" 
d="M260 637q-33 0 -55.5 -18t-22.5 -50q0 -27 17 -44t48 -17q38 0 59.5 20t21.5 53q0 26 -17.5 41t-50.5 15zM376 379q0 -62 -44.5 -102.5t-117.5 -40.5q-68 0 -106 34t-38 89q0 47 28 80.5t75 44.5q-26 12 -41.5 36.5t-15.5 51.5q0 53 42.5 88.5t106.5 35.5
q59 0 93.5 -29.5t34.5 -78.5q0 -38 -22 -67t-63 -41q32 -12 50 -39.5t18 -61.5zM231 453q-41 0 -67 -23.5t-26 -66.5q0 -31 20.5 -50t60.5 -19q41 0 65 24t24 65q0 32 -21 51t-56 19z" />
    <glyph glyph-name="nine.numerator" 
d="M411 554q0 -47 -19 -84.5t-62 -80.5l-142 -139h-80l135 134q-9 -3 -30 -3q-62 2 -98 38t-36 93q0 77 51 130.5t133 53.5q68 0 108 -40.5t40 -101.5zM232 439q49 0 79 32.5t30 79.5q0 37 -20.5 60t-60.5 23q-50 0 -80.5 -33t-30.5 -83q0 -79 83 -79z" />
    <glyph glyph-name="parenleft.cap" horiz-adv-x="308" 
d="M251 -161h-76q-83 147 -83 370q0 144 61 305.5t172 282.5h78q-112 -121 -173.5 -282.5t-61.5 -305.5q0 -228 83 -370z" />
    <glyph glyph-name="parenright.cap" horiz-adv-x="308" 
d="M38 -161h-77q108 123 171 283.5t63 335.5q0 92 -22 183t-61 156h76q83 -137 83 -339q0 -168 -58.5 -327t-174.5 -292z" />
    <glyph glyph-name="bracketleft.cap" horiz-adv-x="340" 
d="M379 782l-12 -70h-102l-123 -788h101l-11 -70h-176l148 928h175z" />
    <glyph glyph-name="bracketright.cap" horiz-adv-x="340" 
d="M134 712l12 70h174l-146 -928h-175l12 70h102l123 788h-102z" />
    <glyph glyph-name="braceleft.cap" horiz-adv-x="366" 
d="M380 795l-9 -60q-63 0 -76 -81l-33 -208q-8 -58 -29 -87.5t-65 -41.5v-2q56 -24 56 -89q0 -27 -5 -52l-32 -195q-3 -21 -3 -26q0 -28 12.5 -41t41.5 -13l-10 -60q-56 0 -86 29t-30 81q0 15 5 48l34 209q1 7 1 20q-2 28 -19.5 46.5t-48.5 18.5l8 51q38 0 62.5 24.5
t30.5 59.5l38 229q12 74 51.5 107t105.5 33z" />
    <glyph glyph-name="braceright.cap" horiz-adv-x="366" 
d="M24 -161l9 60q63 0 76 81l33 208q8 58 29 87.5t65 41.5v2q-56 24 -56 89q0 27 5 52l32 195q3 21 3 26q0 28 -12.5 41t-41.5 13l10 60q56 0 86 -29t30 -81q0 -15 -5 -48l-34 -209q-1 -7 -1 -20q2 -28 19.5 -46.5t48.5 -18.5l-8 -51q-38 0 -62.5 -24.5t-30.5 -59.5
l-38 -229q-12 -74 -51.5 -107t-105.5 -33z" />
    <glyph glyph-name="exclamdown.cap" horiz-adv-x="221" 
d="M230 682l-13 -88h-85l13 88h85zM122 0h-85l87 493h69z" />
    <glyph glyph-name="questiondown.cap" horiz-adv-x="438" 
d="M163 357q64 58 76 136h73q-10 -58 -27 -94t-56 -75q-4 -4 -30.5 -29t-35 -35.5t-25 -32.5t-23 -43t-6.5 -44q0 -41 25.5 -66.5t71.5 -25.5q51 0 85.5 33.5t43.5 90.5h80q-15 -89 -70.5 -141.5t-143.5 -52.5q-78 0 -126.5 41t-48.5 112q0 65 35.5 116t101.5 110zM347 682
l-13 -88h-85l13 88h85z" />
    <glyph glyph-name="guillemotleft.cap" horiz-adv-x="463" 
d="M79 339l150 194l43 -30l-118 -170l66 -184l-51 -19zM257 339l149 194l43 -30l-118 -170l67 -184l-52 -19z" />
    <glyph glyph-name="guillemotright.cap" horiz-adv-x="463" 
d="M414 323l-149 -193l-43 29l118 171l-67 184l52 19zM237 323l-150 -193l-43 29l119 171l-67 184l51 19z" />
    <glyph glyph-name="guilsinglleft.cap" horiz-adv-x="286" 
d="M79 339l150 194l43 -30l-118 -170l66 -184l-51 -19z" />
    <glyph glyph-name="guilsinglright.cap" horiz-adv-x="286" 
d="M237 323l-150 -193l-43 29l119 171l-67 184l51 19z" />
    <glyph glyph-name="hyphen.cap" horiz-adv-x="453" 
d="M415 332h-309l11 65h309z" />
    <glyph glyph-name="endash.cap" horiz-adv-x="560" 
d="M501 334h-404l10 60h404z" />
    <glyph glyph-name="emdash.cap" horiz-adv-x="1110" 
d="M1051 334h-954l10 60h954z" />
    <glyph glyph-name="periodcentered.cap" horiz-adv-x="220" 
d="M74 297l16 109h104l-17 -109h-103z" />
    <glyph glyph-name="at.cap" horiz-adv-x="949" 
d="M907 380q0 -116 -55 -191t-135 -75q-49 0 -78.5 23t-34.5 64h-5q-21 -39 -62 -63t-79 -24q-71 0 -114 52t-43 137q0 99 57 172t144 73q79 0 122 -74h1l11 63h67l-40 -259q-4 -17 -4 -47q0 -28 16 -44.5t48 -16.5q49 0 81.5 58.5t32.5 146.5q0 140 -84.5 218.5
t-241.5 78.5q-152 0 -248 -105t-96 -255q0 -145 91.5 -234t246.5 -89q127 0 202 36l22 -49q-89 -43 -232 -43q-178 0 -289 103.5t-111 276.5q0 175 117.5 295t300.5 120q103 0 181.5 -30.5t122.5 -81.5t66 -110.5t22 -125.5zM609 365q0 60 -26.5 93.5t-74.5 33.5
q-65 0 -101 -57.5t-36 -133.5q0 -59 26 -95t73 -36q60 0 99.5 60.5t39.5 134.5z" />
    <glyph glyph-name="sterling.oldstyle" horiz-adv-x="537" 
d="M153 93q49 0 102 -23q59 -25 92 -25q28 0 48 18.5t37 62.5l66 -31q-22 -59 -59.5 -87.5t-96.5 -28.5q-55 0 -120 30q-58 27 -104 27q-42 0 -89 -30l-23 54q78 37 106 68.5t28 90.5q0 22 -3 40h-97l11 60h77q-3 13 -3 34q0 92 50.5 151.5t152.5 59.5q132 0 172 -120
l-75 -30q-27 84 -102 84q-59 0 -89 -39.5t-30 -104.5q0 -15 2 -35h158l-11 -60h-140q3 -15 3 -38q0 -47 -13.5 -75.5t-49.5 -52.5z" />
    <glyph glyph-name="Euro.oldstyle" horiz-adv-x="498" 
d="M43 312l22 57h66q37 88 109 142t171 54q66 0 117 -24l-26 -63q-37 20 -93 20q-68 0 -118.5 -35.5t-76.5 -93.5h239l-21 -57h-237q-9 -30 -9 -72h215l-22 -57h-188q8 -72 44.5 -106t110.5 -34q49 0 90 17l11 -65q-48 -18 -109 -18q-207 0 -230 206h-82l23 57h57q0 36 9 72
h-72z" />
    <glyph glyph-name="florin.oldstyle" horiz-adv-x="495" 
d="M302 335h87l-11 -65h-93l-86 -327q-21 -82 -61.5 -117.5t-107.5 -35.5q-35 0 -60 9l10 64q24 -8 48 -8q36 0 59.5 20t36.5 70l84 325h-80l11 65h86l20 77q21 80 59.5 116.5t109.5 36.5q29 0 61 -10l-11 -63q-24 8 -51 8q-36 0 -58 -20.5t-35 -72.5z" />
    <glyph glyph-name="yen.oldstyle" horiz-adv-x="504" 
d="M69 290h125l-98 256h79l60 -168q6 -16 14.5 -46t10.5 -36q21 39 48 81l111 169h84l-175 -256h125l-9 -57h-153l-11 -70h153l-10 -57h-153l-15 -106h-79l15 106h-152l10 57h152l11 70h-152z" />
    <glyph glyph-name="numbersign.oldstyle" horiz-adv-x="529" 
d="M516 354h-105l-42 -150h106l-14 -52h-105l-44 -152h-55l43 152h-112l-42 -152h-55l42 152h-105l14 52h105l42 150h-105l15 51h105l41 141h56l-41 -141h111l39 141h56l-40 -141h106zM244 354l-42 -150h112l42 150h-112z" />
    <glyph glyph-name="acute.cap" horiz-adv-x="325" 
d="M320 883l26 -60l-201 -86l-20 49z" />
    <glyph glyph-name="breve.cap" horiz-adv-x="325" 
d="M323 882h56q-15 -61 -59.5 -93t-109.5 -32q-132 0 -132 125h55q0 -68 81 -68q40 0 70 18t39 50z" />
    <glyph glyph-name="caron.cap" horiz-adv-x="325" 
d="M205 735l-140 100l28 44l119 -69l145 69l21 -46z" />
    <glyph glyph-name="circumflex.cap" horiz-adv-x="325" 
d="M228 879l140 -100l-28 -44l-120 69l-144 -69l-21 46z" />
    <glyph glyph-name="dieresis.cap" horiz-adv-x="325" 
d="M84 780l13 81h79l-13 -81h-79zM265 780l13 81h79l-13 -81h-79z" />
    <glyph glyph-name="dotaccent.cap" horiz-adv-x="325" 
d="M171 784l13 80h81l-13 -80h-81z" />
    <glyph glyph-name="grave.cap" horiz-adv-x="323" 
d="M99 817l28 62l160 -92l-23 -50z" />
    <glyph glyph-name="hungarumlaut.cap" horiz-adv-x="325" 
d="M240 878l33 -49l-162 -94l-26 40zM398 878l34 -49l-163 -94l-26 40z" />
    <glyph glyph-name="macron.cap" horiz-adv-x="328" 
d="M353 786h-279l9 56h279z" />
    <glyph glyph-name="ring.cap" horiz-adv-x="325" 
d="M148 819q0 -28 19.5 -47.5t46.5 -19.5q29 0 48 19.5t19 47.5q0 29 -19 47.5t-48 18.5q-28 0 -47 -18.5t-19 -47.5zM102 819q0 46 33 79t79 33q47 0 80 -33t33 -79t-33 -79.5t-80 -33.5q-46 0 -79 33.5t-33 79.5z" />
    <glyph glyph-name="tilde.cap" horiz-adv-x="325" 
d="M113 771h-59q9 57 37.5 85t68.5 28q38 0 74 -33q34 -31 52 -31q37 0 46 57h59q-17 -113 -109 -113q-40 0 -74 33q-31 31 -51 31q-33 0 -44 -57z" />
    <glyph glyph-name="caron.alt" horiz-adv-x="294" 
d="M52 643l12 77h85l-11 -61q-13 -59 -38 -85h-49q26 27 33 69h-32z" />
    <glyph glyph-name="commaaccent.alt" horiz-adv-x="325" 
d="M238 640l-12 -77h-85l11 61q13 59 38 85h49q-26 -27 -33 -69h32z" />
    <glyph glyph-name="CR" horiz-adv-x="240" 
 />
    <glyph glyph-name="cyrillicbreve" horiz-adv-x="317" 
d="M328 716h62q-29 -75 -77 -116t-108 -41q-51 0 -83 28.5t-32 75.5q0 22 9 43h62q-8 -20 -8 -38q0 -26 15.5 -39t39.5 -13q33 0 65.5 26t54.5 74z" />
    <glyph glyph-name="cyrillicbreve.cap" horiz-adv-x="318" 
d="M343 874h68q-7 -60 -50.5 -96t-110.5 -36q-65 0 -102.5 30t-37.5 82q0 10 2 20h66q-2 -10 -2 -18q0 -56 75 -56q82 0 92 74z" />
    <glyph glyph-name="uni044C_dotlessi" horiz-adv-x="654" 
d="M239 228h-93l-6 -39q-3 -18 -3 -38q0 -47 24 -74t67 -27q49 0 78 28.5t29 69.5q0 35 -23.5 57.5t-72.5 22.5zM156 292h90q82 0 124 -40.5t42 -100.5q0 -71 -50.5 -119t-135.5 -48q-76 0 -120 43t-44 118q0 26 4 49l43 271h74zM558 465h75l-73 -465h-75z" />
    <glyph glyph-name="uni042C_I" horiz-adv-x="762" 
d="M152 682h79l-47 -289h102q102 0 161 -46t59 -132q0 -108 -77.5 -161.5t-200.5 -53.5h-185zM133 72h101q90 0 140 36t50 108q0 50 -38 77.5t-110 27.5h-103zM584 0l109 682h79l-109 -682h-79z" />
    </font>
</defs>
</svg>
